<?xml version="1.0" encoding="UTF-8"?>
<svg width="155px" height="23px" viewBox="0 0 155 23" version="1.1" xmlns="http://www.w3.org/2000/svg" xmlns:xlink="http://www.w3.org/1999/xlink">
    <!-- Generator: Sketch 54.1 (76490) - https://sketchapp.com -->
    <title>群組</title>
    <desc>Created with Sketch.</desc>
    <defs>
        <polygon id="path-1" points="0.705245519 0.228414359 13.8217488 0.228414359 13.8217488 18 0.705245519 18"></polygon>
    </defs>
    <g id="Page-1" stroke="none" stroke-width="1" fill="none" fill-rule="evenodd">
        <g id="iPhone-8" transform="translate(-256.000000, -176.000000)">
            <g id="群組" transform="translate(256.000000, 176.000000)">
                <path d="M102.9779,5.8346 C106.1199,5.8356 108.5589,8.2946 108.5629,11.4656 C108.5669,14.4406 106.0449,16.9476 103.0499,16.9586 C99.8889,16.9706 97.5469,14.4256 97.4419,11.6106 C97.3159,8.2306 100.1819,5.7406 102.9779,5.8346" id="Fill-1" fill="#FDB717"></path>
                <path d="M118.4701,5.8356 C121.5521,5.8286 124.0371,8.2986 124.0441,11.3756 C124.0521,14.4696 121.5631,16.9546 118.4551,16.9546 C115.4181,16.9546 112.9101,14.4236 112.9111,11.3576 C112.9121,8.3426 115.4281,5.8436 118.4701,5.8356" id="Fill-3" fill="#1FB158"></path>
                <path d="M154.9984,11.3658 C155.0334,14.4108 152.5684,16.9398 149.5394,16.9678 C146.5124,16.9938 144.0294,14.5688 143.9054,11.6428 C143.7654,8.3198 146.5064,5.9608 149.1554,5.8298 C152.3254,5.6748 155.0704,8.2948 154.9984,11.3658" id="Fill-5" fill="#14A9E1"></path>
                <path d="M93.0345,11.4391 C93.1845,14.1011 90.8355,16.9351 87.5725,16.9521 C84.4785,16.9681 81.9885,14.4891 81.9645,11.4391 C81.9385,8.3411 84.5635,5.7521 87.7095,5.8401 C90.4975,5.9191 93.1955,8.4061 93.0345,11.4391" id="Fill-7" fill="#EE3240"></path>
                <path d="M133.9984,5.8473 C136.7254,5.7663 139.4354,8.1003 139.5184,11.2153 C139.6024,14.3913 137.0594,16.9263 134.0254,16.9483 C130.9334,16.9693 128.4544,14.4873 128.4334,11.4273 C128.4084,7.9823 131.3634,5.7283 133.9984,5.8473" id="Fill-9" fill="#A04799"></path>
                <g transform="translate(15.000000, 4.790800)">
                    <mask id="mask-2" fill="white">
                        <use xlink:href="#path-1"></use>
                    </mask>
                    <g id="Clip-12"></g>
                    <path d="M7.2587,11.2577 C4.6857,11.2667 2.6507,9.2357 2.6557,6.6657 C2.6617,3.9907 4.6197,2.0337 7.2997,2.0247 C9.8727,2.0157 11.8787,4.0347 11.8737,6.6277 C11.8677,9.2587 9.8837,11.2497 7.2587,11.2577 M13.8167,6.8287 C13.9647,3.0257 10.8377,0.1957 7.2257,0.2287 C2.6477,0.2697 -0.4103,4.5307 1.0907,8.8617 C2.1577,11.9427 5.7177,13.7457 8.8207,12.8087 C10.0477,12.4377 10.9957,11.7287 11.8107,10.7077 C11.8107,11.1457 11.8477,11.5867 11.8037,12.0197 C11.6517,13.5357 11.0677,14.8177 9.6567,15.5617 C8.5017,16.1707 7.2587,16.3057 5.9767,16.0677 C5.2737,15.9377 4.5937,15.7417 3.9327,15.4587 C3.3087,15.1917 2.8937,15.3867 2.6607,15.9897 C2.4687,16.4877 2.7087,16.9587 3.3427,17.2327 C4.9937,17.9447 6.6977,18.1627 8.4907,17.8807 C11.3637,17.4277 13.4927,15.2577 13.7437,12.3717 C13.9047,10.5287 13.7447,8.6757 13.8167,6.8287" id="Fill-11" fill="#FFFFFF" mask="url(#mask-2)"></path>
                </g>
                <path d="M53.6356,16.0485 C51.0346,16.0435 48.9906,13.9915 49.0166,11.4105 C49.0426,8.7755 51.0366,6.8015 53.6616,6.8135 C56.2896,6.8235 58.2466,8.8135 58.2406,11.4645 C58.2356,14.0525 56.2246,16.0535 53.6356,16.0485 M60.1976,1.1305 C60.1966,0.3575 59.8916,0.0075 59.2446,0.0005 C58.5306,-0.0075 58.1986,0.3495 58.1926,1.1545 C58.1856,2.2345 58.1906,3.3145 58.1896,4.3945 L58.1896,7.2855 C58.1496,7.3075 58.1096,7.3295 58.0696,7.3515 C56.7866,5.5375 55.0136,4.8885 52.8636,5.0535 C48.9496,5.3545 46.1926,9.3355 47.3026,13.1205 C48.1206,15.9125 50.3826,17.6665 53.3656,17.8215 C57.0836,18.0165 60.1626,15.2135 60.1916,11.5615 C60.2196,8.0845 60.2006,4.6075 60.1976,1.1305" id="Fill-13" fill="#FFFFFF"></path>
                <path d="M6.6214,16.0494 C3.9754,16.0514 1.9524,14.0294 1.9664,11.3984 C1.9804,8.7744 3.9724,6.8194 6.6154,6.8144 C9.2654,6.8094 11.2844,8.9854 11.1714,11.4754 C11.1674,14.0454 9.1764,16.0474 6.6214,16.0494 M13.1354,11.1994 C13.1304,10.4844 12.9884,9.7864 12.7244,9.1144 C11.5714,6.1954 8.5154,4.5314 5.3494,5.1074 C2.4444,5.6344 0.2804,7.9804 0.0254,10.8794 C-0.2316,13.8024 1.4934,16.4724 4.2784,17.4634 C6.6084,18.2914 9.0994,17.7284 10.5794,16.0514 C10.7414,15.8674 10.8014,15.5834 11.1654,15.4784 C11.1654,16.0294 11.1554,16.5514 11.1684,17.0714 C11.1814,17.6244 11.5154,17.9544 12.0554,17.9784 C12.7444,18.0074 13.1354,17.6384 13.1394,16.9064 C13.1474,15.0044 13.1504,13.1024 13.1354,11.1994" id="Fill-15" fill="#FFFFFF"></path>
                <path d="M69.431,16.0485 C66.819,16.1065 64.79,14.1545 64.719,11.5165 C64.652,9.0065 66.608,6.8735 69.031,6.8155 C71.794,6.7485 73.867,8.6275 73.925,11.2505 C73.985,13.9415 72.066,15.9895 69.431,16.0485 M75.895,11.5045 C75.88,7.9105 73.246,5.1825 69.657,5.0365 C64.558,4.8285 61.255,9.7505 63.436,14.3065 C64.931,17.4315 68.925,18.7555 71.989,17.1405 C72.73,16.7495 73.281,16.1475 73.885,15.5245 C73.885,15.9575 73.881,16.3915 73.886,16.8235 C73.894,17.6235 74.198,17.9715 74.883,17.9745 C75.548,17.9775 75.895,17.5915 75.896,16.8275 C75.9,15.0535 75.902,13.2785 75.895,11.5045" id="Fill-17" fill="#FFFFFF"></path>
                <path d="M37.912,16.0553 C35.275,16.0293 33.322,13.9973 33.357,11.3173 C33.392,8.6643 35.407,6.7853 38.183,6.8173 C40.646,6.8443 42.568,8.9133 42.537,11.5043 C42.506,14.1113 40.504,16.0803 37.912,16.0553 M38.006,5.0353 C34.292,5.0163 31.414,7.7573 31.384,11.3433 C31.353,14.9773 34.18,17.7893 37.899,17.8243 C41.612,17.8583 44.493,15.0793 44.507,11.4503 C44.521,7.8323 41.705,5.0543 38.006,5.0353" id="Fill-19" fill="#FFFFFF"></path>
            </g>
        </g>
    </g>
</svg>