<?xml version="1.0" encoding="UTF-8"?>
<svg width="131px" height="22px" viewBox="0 0 131 22" version="1.1" xmlns="http://www.w3.org/2000/svg" xmlns:xlink="http://www.w3.org/1999/xlink">
    <!-- Generator: Sketch 50.2 (55047) - http://www.bohemiancoding.com/sketch -->
    <title>Group 8</title>
    <desc>Created with Sketch.</desc>
    <defs>
        <polygon id="path-1" points="0 0.0558461538 81.6674144 0.0558461538 81.6674144 21.9999516 0 21.9999516"></polygon>
    </defs>
    <g id="EN-Desktop" stroke="none" stroke-width="1" fill="none" fill-rule="evenodd">
        <g id="3-Reservation-booking-page" transform="translate(-513.000000, -876.000000)">
            <g id="Group-8" transform="translate(513.000000, 876.000000)">
                <path d="M81.7174689,16.7619048 C81.6785299,16.6692186 81.696787,16.5729072 81.6966444,16.4786501 C81.6957886,12.8148282 81.6963591,9.15100631 81.6966444,5.48706358 C81.696787,5.26749287 81.696787,5.26797624 81.4316314,5.26797624 C80.8371352,5.2678554 80.2424963,5.26725119 79.648,5.26688866 C79.7002038,5.22302286 79.7665284,5.24235765 79.8264345,5.2422368 C80.408379,5.24066585 80.9903235,5.24417028 81.5721254,5.23873237 C81.6977855,5.23752395 81.744284,5.25842969 81.7439987,5.37564686 C81.7385786,9.09735227 81.7378655,12.8190577 81.7352981,16.5407631 C81.7351554,16.614477 81.7237447,16.6881909 81.7174689,16.7619048" id="Fill-1" fill="#201612"></path>
                <path d="M108.156418,10.1423697 C107.7411,9.03317915 106.976104,8.32933462 105.767229,8.20128623 C104.923752,8.11202579 104.164756,8.32921416 103.540278,8.92307922 C102.844401,9.58488341 102.590002,10.4394227 102.554363,11.3678036 C102.530123,11.999493 102.645202,12.6137157 102.920961,13.1899936 C103.21412,13.8031322 103.658598,14.2743696 104.277075,14.5497398 C104.889432,14.82246 105.53347,14.8587183 106.187827,14.7029643 C106.834384,14.5488966 107.350262,14.1994438 107.73702,13.6611105 C108.198058,13.0191821 108.368098,12.2884752 108.369537,11.3928592 C108.391977,11.0382266 108.319138,10.5769874 108.156418,10.1423697 Z M111.727003,12.0082865 C111.682483,12.4981951 111.604724,12.9771418 111.465284,13.448861 C111.250485,14.1748701 110.911247,14.8341446 110.446489,15.4287324 C109.787931,16.2712258 108.953335,16.8831597 107.964899,17.2722437 C106.947184,17.6730123 105.884348,17.8079269 104.796073,17.7069819 C103.700478,17.6053141 102.681442,17.2686299 101.768966,16.6436864 C100.92585,16.0663242 100.277972,15.3123686 99.8296543,14.3906129 C99.5273756,13.7686808 99.3356164,13.114586 99.2452568,12.425558 C99.204457,12.1141703 99.197857,11.8050714 99.190897,11.4933224 C99.1720571,10.2375327 99.4805758,9.06967837 100.148973,8.00662377 C100.74297,7.06246265 101.556447,6.3595818 102.556523,5.87292565 C103.1444,5.58683447 103.765157,5.40180876 104.409075,5.3111028 C105.008472,5.22666073 105.609909,5.21413295 106.217587,5.2805061 C107.109543,5.37807825 107.948459,5.62598379 108.727736,6.06638351 C109.717972,6.62627901 110.481408,7.41324055 111.017926,8.42160656 C111.262725,8.88176163 111.450884,9.36504492 111.564764,9.87109504 C111.722803,10.5732531 111.792643,11.2842048 111.727003,12.0082865 Z M112.939478,5.76872823 C112.937078,6.67843795 112.937198,7.58802721 112.937678,8.49773693 C112.938518,9.92554271 112.939958,11.3533485 112.941278,12.7811543 C112.942958,12.8498162 112.945838,12.9183576 112.945958,12.9871399 C112.946318,14.4301236 112.946078,15.8732278 112.947278,17.3162114 C112.947398,17.3716228 112.930838,17.4300456 112.978118,17.5144877 L112.978118,5.54599871 C112.909478,5.6102036 112.939718,5.69428429 112.939478,5.76872823 Z M86.8002304,15.6729037 C86.8034704,14.5905756 85.8816344,13.6506306 84.7841191,13.6584604 C83.7251237,13.6659289 82.7952477,14.5367302 82.7920077,15.6665193 C82.7888877,16.8025724 83.7355636,17.7124025 84.7945591,17.6737351 C85.8969943,17.709632 86.7972304,16.7464383 86.8002304,15.6729037 Z M98.2503411,8.67926931 C98.2503411,8.47292228 98.2474611,8.26657525 98.2509411,8.06034869 C98.2570611,7.71077538 98.1789414,7.38228248 98.0159821,7.07414722 C97.6694236,6.41860693 97.0930661,6.02867971 96.4387089,5.75282758 C95.5522727,5.37928284 94.6191567,5.22593797 93.6578409,5.25484824 C92.9512839,5.27616956 92.2612869,5.38590811 91.5853298,5.60357833 C90.6596538,5.90171545 89.8414973,6.37716888 89.1489803,7.05872841 C87.9525855,8.23597855 87.3864279,9.68956266 87.3355481,11.3541917 C87.3092682,12.2092128 87.4406677,13.0408648 87.7392264,13.8475817 C88.1953444,15.0798819 88.975701,16.0493395 90.0663764,16.7630617 C90.8970128,17.3065747 91.8138088,17.6200101 92.8000846,17.7444448 C93.7296006,17.8617722 94.6484366,17.8253935 95.5541927,17.5949546 C96.2090299,17.4283592 96.8307472,17.1678054 97.4071047,16.8089567 C97.9306625,16.4832344 98.4179804,16.1120988 98.8275386,15.6445957 C98.8920983,15.570995 98.9159782,15.5096811 98.8642584,15.423914 C98.4245803,14.6945321 97.9845422,13.9651502 97.5477441,13.2338409 C97.4973443,13.1495193 97.4689045,13.1618061 97.4119047,13.2276974 C97.1949456,13.4783735 96.9405467,13.6865275 96.6759479,13.885406 C96.0596305,14.3484521 95.3817535,14.6846544 94.6226367,14.8059571 C93.86268,14.9275007 93.1141232,14.837397 92.4114062,14.4981832 C91.4736103,14.0453762 90.9256926,13.2846748 90.7258935,12.2719722 C90.614534,11.7073788 90.6348139,11.141099 90.7682533,10.5761442 C90.8898128,10.0605777 91.1061719,9.59548384 91.4416904,9.19074011 C92.2213271,8.24995185 93.618961,7.87929814 94.7654361,8.2818736 C94.9831152,8.35824489 95.2025942,8.46714023 95.2693139,8.71420255 C95.4401932,9.34528957 95.8886313,9.64764278 96.4780687,9.66751858 C97.0255064,9.68594888 97.573904,9.66872318 98.1219416,9.67414385 C98.2313812,9.67510753 98.2529811,9.63547637 98.2509411,9.53609733 C98.2450611,9.25060845 98.2489011,8.96487865 98.2489011,8.67926931 L98.2503411,8.67926931 Z M112.978118,5.54599871 C113.001878,5.51720891 113.034517,5.5228705 113.065597,5.5234728 C113.639075,5.53286864 114.214352,5.49046691 114.78567,5.55334674 C115.353867,5.61586519 115.935265,5.92990296 116.083944,6.62374936 C116.101464,6.7053004 116.130384,6.78516501 116.149344,6.86743881 C116.168424,6.95007399 116.189424,7.00765361 116.284463,6.90381757 C116.605342,6.5535215 116.940141,6.21683736 117.343339,5.95809047 C117.891136,5.60658981 118.478294,5.37398263 119.129531,5.28701091 C119.579649,5.22690165 120.024847,5.23846575 120.464285,5.30977775 C121.582321,5.49118967 122.431797,6.07011775 122.961595,7.09221614 C123.088914,7.33771248 123.100314,7.34325362 123.264113,7.12654708 C123.726591,6.51449264 124.301749,6.04433943 124.991506,5.7147624 C125.452424,5.49468299 125.935542,5.3595275 126.4435,5.28857688 C126.908378,5.22352878 127.369656,5.23810438 127.826014,5.30483891 C129.169408,5.50154918 130.139724,6.19009536 130.630762,7.4992486 C130.824801,8.01674237 130.916,8.55194368 130.9748,9.09654082 C130.97756,9.1224396 130.97468,9.1497839 131,9.16737097 L131,17.5464094 C130.425802,17.5450844 129.851245,17.5556848 129.277527,17.5390614 C128.813369,17.5255699 128.371411,17.4216134 128.051733,17.041323 C127.819414,16.7652299 127.715974,16.4328823 127.714414,16.0794543 C127.706374,14.2602758 127.707454,12.4410973 127.706014,10.6219188 C127.705534,10.172605 127.686694,9.72461636 127.585775,9.28530077 C127.466015,8.7639523 127.154977,8.37197727 126.498699,8.33583943 C125.508344,8.28127131 124.819067,8.76082035 124.299949,9.55211844 C123.99083,10.0229944 123.837951,10.5547024 123.718671,11.0995405 C123.627712,11.5145232 123.600952,11.9337221 123.601192,12.3567757 C123.602032,14.0279095 123.599272,15.6990434 123.605392,17.3701773 C123.605992,17.5206311 123.560992,17.5493005 123.422153,17.5484572 C122.442237,17.5426752 121.462441,17.543157 120.482525,17.5480959 C120.352926,17.5488186 120.303006,17.5299065 120.303486,17.3799345 C120.309366,15.0795205 120.311766,12.778986 120.305406,10.478572 C120.304206,10.0160078 120.267606,9.55380487 120.079807,9.11822352 C119.811128,8.49448452 119.29369,8.28669198 118.668613,8.32511854 C117.977296,8.36776119 117.480738,8.74275143 117.08774,9.27963918 C116.731101,9.76713854 116.515462,10.3177587 116.378783,10.9057212 C116.251224,11.4541731 116.206584,12.0078047 116.207664,12.5687843 C116.210664,14.1711358 116.206944,15.7734873 116.212584,17.3758389 C116.213184,17.5177401 116.175984,17.5496618 116.038464,17.5488186 C115.058549,17.5425547 114.078633,17.543157 113.098837,17.5483368 C112.967438,17.5490595 112.918838,17.5259313 112.919318,17.378248 C112.925438,15.8975606 112.922918,14.4167526 112.923878,12.9359447 C112.923878,12.8842676 112.910918,12.8299404 112.941278,12.7811543 C112.962518,12.8017529 112.961678,12.828013 112.961678,12.8546345 C112.962038,14.3713394 112.961678,15.8881647 112.959758,17.4048696 C112.958078,17.42595 112.993718,17.4054719 112.972838,17.4087243 C112.967798,17.4095675 112.965398,17.4069174 112.964798,17.4011353 C112.959878,17.3542766 112.962998,17.3070565 112.962998,17.2600773 C112.962758,13.4177824 112.962758,9.57536711 112.963598,5.73307223 C112.963598,5.6707947 112.948118,5.6063489 112.978118,5.54599871 Z" id="Fill-3" fill="#FFFFFF"></path>
                <g id="Group-7">
                    <mask id="mask-2" fill="white">
                        <use xlink:href="#path-1"></use>
                    </mask>
                    <g id="Clip-6"></g>
                    <path d="M21.4506007,9.83866593 C21.0675236,8.76658901 20.3073886,8.09522637 19.1641765,7.94436923 C18.1508639,7.8107978 17.2719053,8.10610549 16.605794,8.91406154 C16.0526074,9.58494066 15.8578183,10.3802044 15.8545678,11.2338527 C15.8492707,11.4472044 15.860828,11.658622 15.8957408,11.8684681 C15.9147622,11.9830615 15.9331817,12.0982593 15.9591857,12.2115231 C16.2963948,13.6766989 17.4526089,14.6862813 19.0343974,14.5469077 C20.015205,14.4606 20.7717283,13.9973912 21.2379941,13.1283912 C21.8040623,12.0733582 21.84981,10.9559516 21.4506007,9.83866593 Z M24.9311616,9.8742044 C25.2172054,11.2992484 25.0921214,12.6947978 24.4745268,14.019633 C23.6942869,15.693567 22.3831324,16.749567 20.6228073,17.2527868 C20.0156866,17.4263692 19.393156,17.5024022 18.7603925,17.4982923 C17.13093,17.4837868 15.6624273,17.0180396 14.4387955,15.9037758 C13.3739565,14.9339626 12.7665949,13.7138088 12.5574796,12.2915451 C12.3676264,11.000556 12.4880152,9.74172088 13.0244678,8.54610549 C13.8325174,6.74536923 15.2225266,5.62312747 17.1228639,5.16741319 C18.7171729,4.78519341 20.2841536,4.91610549 21.7625281,5.66011648 C23.5035911,6.53612747 24.5483251,7.96661099 24.9311616,9.8742044 Z M35.0182989,10.123578 C34.6600218,8.91708352 33.9102403,8.12181978 32.6330355,7.94400659 C31.4857302,7.7842044 30.4624253,8.2346 29.8533783,9.22774286 C29.3024791,10.1263582 29.2096594,11.1110396 29.4132368,12.1244901 C29.697836,13.5411934 30.725836,14.4986769 32.0734683,14.5544022 C33.029235,14.5939297 33.8399333,14.2882264 34.4466929,13.5283802 C34.9750793,12.8669297 35.1557829,12.0870176 35.1605985,11.2557319 C35.1685441,10.8709736 35.127612,10.4917758 35.0182989,10.123578 Z M38.38437,9.77870989 C38.7074935,11.2803912 38.5744639,12.7460505 37.8953506,14.1291495 C37.0575649,15.8352374 35.6729733,16.8704462 33.8418595,17.3164901 C33.3115468,17.4457099 32.7718438,17.5009516 32.2255194,17.4978088 C30.7883178,17.4878967 29.4641613,17.1166769 28.3073453,16.2357099 C27.0986416,15.3152154 26.3707709,14.0867209 26.0785873,12.6013582 C25.8257708,11.3158088 25.9039031,10.0466989 26.382569,8.81977582 C27.0674609,7.06461099 28.3143278,5.88398462 30.0966841,5.31077582 C31.8346169,4.75195165 33.5613536,4.83729231 35.207189,5.6466989 C36.9285081,6.49333626 37.9797432,7.89891868 38.38437,9.77870989 Z M78.3114382,11.0045451 C78.3080673,10.5601934 78.2802575,10.1534352 78.182863,9.75501758 C78.0235886,9.10287473 77.7197272,8.55033626 77.0967152,8.23266593 C76.6462202,8.0029956 76.1580436,7.95488571 75.6637272,7.97168791 C74.720842,8.00384176 74.0464239,8.45242418 73.6982595,9.33665495 C73.3108483,10.3208527 73.3232484,11.3249956 73.6519098,12.3230945 C74.0271617,13.4629846 74.8572426,14.0464681 76.0500549,14.030633 C77.0043769,14.0179407 77.7292379,13.5032374 78.0572974,12.6090945 C78.2518458,12.0791604 78.3048168,11.5281934 78.3114382,11.0045451 Z M81.6635442,5.34957802 C81.658849,5.38064396 81.6628218,5.41316044 81.6628218,5.44495165 C81.6628218,9.13684176 81.6628218,12.828611 81.6629422,16.5205011 C81.6629422,16.5842044 81.6606548,16.6477868 81.6651092,16.7114901 C81.5920332,18.0774242 81.1417791,19.2848857 80.1583229,20.2580835 C79.363516,21.0447648 78.3899317,21.5053143 77.3183509,21.7729407 C76.9137242,21.8739956 76.5034391,21.9435011 76.0870142,21.9728747 C76.0566762,21.9749297 76.0224858,21.9673143 76.0012974,21.9999516 L74.7007371,21.9999516 C74.4156564,21.9587319 74.1294922,21.9234352 73.8457358,21.8748418 C72.8571029,21.7058527 71.913977,21.4011165 71.0286377,20.9219516 C70.9290762,20.8679187 70.9074062,20.8244022 70.9508666,20.7177868 C71.1599819,20.2044132 71.3607904,19.6876549 71.565331,19.1724681 C71.5867602,19.1184352 71.6128846,19.0662154 71.6386478,19.0139956 C71.908078,18.4675011 72.3036756,18.2791714 72.8896079,18.4503363 C73.3699592,18.590556 73.8430873,18.7556769 74.3399319,18.8292923 C75.2334576,18.9617758 76.1202415,18.9808747 76.965371,18.5938198 C77.7422399,18.2378308 78.1335036,17.6033363 78.2236748,16.7664901 C78.2467894,16.5520505 78.2577448,16.3367648 78.24077,16.1243802 C78.2020048,16.1050396 78.1838261,16.1313912 78.1657678,16.1465011 C77.4463242,16.7467868 76.6023987,17.0042593 75.6835913,17.0481385 C74.2862385,17.1145011 73.0173404,16.7629846 71.93348,15.8473253 C71.0635505,15.1121385 70.5014551,14.1707319 70.1990385,13.0799187 C69.753961,11.4739187 69.7696116,9.86707253 70.3643323,8.30338022 C71.0887117,6.39796264 72.4668024,5.25529231 74.4942703,4.97436923 C75.6579485,4.81323736 76.7891218,4.95381978 77.8359024,5.54056703 C78.1090646,5.69372088 78.3533335,5.88664396 78.5919441,6.10205055 C78.8551141,5.52980879 79.2891157,5.22253407 79.9182676,5.21298462 C80.0701983,5.18445714 80.2235736,5.20222637 80.3762266,5.20101758 C80.7565349,5.1979956 81.1369635,5.20524835 81.5172718,5.19702857 C81.6392256,5.19436923 81.6812413,5.23280879 81.6635442,5.34957802 Z M7.89325602,10.8731495 C7.47273792,10.1910286 6.8232403,9.92545714 6.05768788,9.90708352 C5.46067978,9.89281978 4.86306974,9.90418242 4.26570048,9.90418242 C3.59164355,9.90418242 3.2243373,10.2524352 3.20784404,10.9339516 C3.19460127,11.4802044 3.20519548,12.0271824 3.20519548,12.5737978 L3.20098187,12.5737978 C3.20098187,13.1468857 3.20278771,13.7202154 3.19905565,14.2934242 C3.19845371,14.3860176 3.2157897,14.420589 3.31872213,14.4202264 C4.26473737,14.4157538 5.21111379,14.4314681 6.15676787,14.412611 C6.78796638,14.3997978 7.34789472,14.1824571 7.75131762,13.6658198 C8.32039551,12.9374022 8.38432196,11.6697429 7.89325602,10.8731495 Z M3.19833332,7.17763297 C3.19688866,7.28642418 3.22241108,7.32075385 3.33557656,7.32014945 C4.14374662,7.31519341 4.95191668,7.32486374 5.75996636,7.31483077 C6.31628304,7.30794066 6.81228492,7.13145714 7.16574646,6.67622637 C7.60685105,6.10809451 7.6966611,5.45317143 7.5632703,4.76464396 C7.41121924,3.98025934 6.89439009,3.4826 6.10403757,3.36462198 C5.46970894,3.26997363 4.82755505,3.30164396 4.19117981,3.33476484 C3.53433848,3.36897363 3.2275878,3.7142044 3.20748287,4.37770989 C3.19375855,4.83342418 3.20483432,5.28974286 3.20483432,5.74581978 L3.20098187,5.74581978 C3.20098187,6.22305055 3.20435276,6.7004022 3.19833332,7.17763297 Z M11.4000616,11.3420396 C11.6502295,12.5271385 11.5187649,13.6736769 10.9254889,14.7411604 C10.3272769,15.8174681 9.386318,16.4755341 8.24599522,16.8683912 C7.47069131,17.1355341 6.6684203,17.2487978 5.85049874,17.2495231 C3.95834786,17.2513363 2.06619698,17.2501275 0.174166487,17.2502484 C0.116139082,17.2502484 0.0579912884,17.2530286 -3.61166421e-05,17.2544791 L-3.61166421e-05,2.06239121 C0.0823098274,1.77252308 0.175370375,1.48906154 0.370400243,1.24947912 C0.722778281,0.816731868 1.17652369,0.584523077 1.73007143,0.58138022 C3.09371545,0.573643956 4.45735947,0.568808791 5.82076271,0.582347253 C6.85586567,0.592621978 7.85762093,0.778534066 8.77257587,1.29444615 C10.0763866,2.02975385 10.7713912,3.15223736 10.8531352,4.65343516 C10.9100791,5.69952308 10.6659306,6.65821538 10.0288331,7.5027978 C9.81670799,7.78384176 9.56208566,8.02112747 9.29349823,8.24535824 C9.22054262,8.30616044 9.14999478,8.36974286 9.06451872,8.4442044 C9.18972308,8.51673187 9.30324973,8.58684176 9.42062881,8.6496989 C10.5067766,9.23136923 11.148449,10.1500505 11.4000616,11.3420396 Z M51.9520681,11.267578 C51.9520681,13.2254571 51.9535128,15.1830945 51.9491788,17.1407319 C51.9488176,17.2750286 51.9725342,17.3187868 52.1186862,17.3176989 C53.1489737,17.3102044 54.1793815,17.3104462 55.2097893,17.3174571 C55.3525704,17.3184242 55.3826676,17.2809516 55.3824268,17.1420615 C55.3782132,13.8049516 55.3789355,10.4677209 55.3794171,7.13061099 C55.3794171,6.97673187 55.3724345,6.82381978 55.3570248,6.67042418 C55.2732342,5.83019341 54.7639895,5.31355604 53.9290931,5.24223736 C53.301747,5.18868791 52.6723544,5.23462198 52.0441656,5.21757802 C51.9181185,5.21419341 51.9421962,5.29361099 51.9421962,5.36335824 C51.9415943,7.33139121 51.9417147,9.29954505 51.9417147,11.2676989 C51.945206,11.2676989 51.9486972,11.2676989 51.9520681,11.267578 Z M60.684711,6.47484176 C60.5274832,5.6554022 59.9427548,5.31343516 59.2724299,5.2426 C58.6615771,5.17805055 58.0473534,5.23123736 57.4348152,5.21358901 C57.3307993,5.21056703 57.3442828,5.27112747 57.3445236,5.33495165 C57.3465702,5.75416044 57.3494595,6.17336923 57.3497003,6.59257802 C57.3515061,10.1113692 57.3536731,13.6301604 57.3515061,17.1489516 C57.3515061,17.2780505 57.3795567,17.3176989 57.5141514,17.3168527 C58.5449204,17.3110505 59.5756893,17.3098418 60.6064583,17.3180615 C60.7652511,17.3193912 60.7945056,17.2721275 60.7940241,17.1236879 C60.7892085,15.3138857 60.7893289,13.5039626 60.7929406,11.6941604 C60.7937833,11.2961055 60.8413369,10.9022813 60.9384906,10.5143802 C61.3397465,8.91188571 62.5476074,8.13306154 63.8945174,8.17718242 C64.5725472,8.19942418 64.9896944,8.51963297 65.1584795,9.17866593 C65.2339633,9.47385275 65.2603284,9.77447912 65.2620139,10.0758308 C65.2675517,11.0790066 65.2604488,12.0821824 65.2640605,13.0851165 C65.267311,13.9766 65.2411866,14.8682044 65.2789887,15.7592044 C65.318115,16.679578 65.8556511,17.2259516 66.7685594,17.2920725 C67.3544917,17.334622 67.9412668,17.3059736 68.5276806,17.3129846 C68.7577437,17.3158857 68.734629,17.3441714 68.7340271,17.1147429 C68.730295,15.6980396 68.7241552,14.2812154 68.7213862,12.8645121 C68.7192192,11.7393692 68.7234328,10.6141055 68.7198212,9.48896264 C68.7176542,8.84491868 68.6416888,8.20994066 68.4462978,7.59381978 C68.0928363,6.47919341 67.4058977,5.66894066 66.299645,5.25142418 C65.6069278,4.98996264 64.8847153,4.92347912 64.1511863,4.95611648 C63.0855046,5.00362198 62.1304602,5.3467978 61.302426,6.03314945 C61.0988485,6.20201758 60.9232013,6.39917143 60.7229947,6.58713846 C60.7073441,6.54205055 60.691212,6.50929231 60.684711,6.47484176 Z M50.652471,16.8132703 C49.7759201,15.3548637 48.8720409,13.9127758 48.1079331,12.3883692 C47.8321224,11.8378857 47.5912244,11.2588747 47.1391644,10.8151275 C47.0808962,10.7579516 47.1219488,10.727611 47.1613159,10.6878418 C47.3598371,10.4885121 47.5340397,10.268633 47.6905451,10.0353363 C48.6746032,8.56846813 49.6573371,7.10063297 50.6403117,5.63291868 C50.7273528,5.50309451 50.8125881,5.37194066 50.9098622,5.22446813 C50.8592989,5.22205055 50.8343784,5.21975385 50.8095784,5.21975385 C49.583298,5.21951209 48.3570176,5.2206 47.1307372,5.21733626 C47.0332223,5.21697363 46.982057,5.25202857 46.930651,5.33253407 C46.1778598,6.50796264 45.4167617,7.67807253 44.6687861,8.85664396 C44.504335,9.11592967 44.2811341,9.2349956 43.9923214,9.2569956 C43.8134236,9.27053407 43.6336831,9.27391868 43.4541834,9.27633626 C43.2315845,9.27947912 43.2314641,9.27694066 43.2314641,9.06129231 C43.2314641,6.78973187 43.2319457,4.51829231 43.2307418,2.24673187 C43.2306214,2.02939121 43.2173786,1.81132527 43.1630833,1.60027033 C43.0014011,0.972545055 42.5698072,0.646654945 41.8479559,0.593830769 C41.2197671,0.547896703 40.5906152,0.578237363 39.9620653,0.570863736 C39.7385033,0.568204396 39.762581,0.538951648 39.762581,0.775874725 C39.7619791,6.09383077 39.7620995,11.4116659 39.7620995,16.7295011 C39.7620995,16.8832593 39.7663131,17.0375011 39.7596917,17.1911385 C39.7555985,17.2873582 39.7849733,17.3164901 39.8844145,17.3161275 C40.9574399,17.3123802 42.0304654,17.3121385 43.1033704,17.3163692 C43.2141281,17.3168527 43.2382059,17.2773253 43.2331496,17.1784462 C43.2265282,17.0460835 43.2314641,16.9129956 43.2314641,16.7805121 C43.2313437,15.3528088 43.2307418,13.9252264 43.2319457,12.4975231 C43.2321864,12.2527429 43.2018485,12.2972264 43.4446727,12.2906989 C43.5984092,12.286589 43.7505806,12.2998857 43.9028725,12.3189846 C44.115118,12.3454571 44.2701787,12.4390176 44.3740743,12.6412484 C44.7386116,13.350567 45.1122984,14.0552923 45.4887542,14.7584462 C45.792736,15.3263363 46.0666205,15.9111495 46.4067189,16.4593363 C46.7168405,16.9589297 47.1643257,17.2513363 47.7547124,17.2872374 C48.8097999,17.3513033 49.866332,17.293644 50.9547673,17.3187773 C50.8414814,17.1293692 50.7473373,16.9711385 50.652471,16.8132703 Z M53.8289296,0.0557978022 C54.0671791,0.132797802 54.3110868,0.190457143 54.5317595,0.319435165 C55.2472302,0.737193407 55.6433093,1.57984176 55.5032972,2.40363297 C55.3646093,3.2186 54.7342535,3.8763033 53.9349922,4.03997363 C52.8206734,4.26807253 51.7704014,3.56624835 51.5585171,2.41680879 C51.3554212,1.31523736 52.0720958,0.303116484 53.1405464,0.0861384615 C53.1705232,0.0799736264 53.2049544,0.086621978 53.2262633,0.0557978022 L53.8289296,0.0557978022 Z" id="Fill-5" fill="#FFFFFF" mask="url(#mask-2)"></path>
                </g>
            </g>
        </g>
    </g>
</svg>