<?xml version="1.0" encoding="UTF-8"?>
<svg width="197px" height="30px" viewBox="0 0 197 30" version="1.1" xmlns="http://www.w3.org/2000/svg" xmlns:xlink="http://www.w3.org/1999/xlink">
    <!-- Generator: Sketch 50.2 (55047) - http://www.bohemiancoding.com/sketch -->
    <title>Fill 1 Copy 2</title>
    <desc>Created with Sketch.</desc>
    <defs></defs>
    <g id="Symbol" stroke="none" stroke-width="1" fill="none" fill-rule="evenodd">
        <g id="footer/1440TW" transform="translate(-85.000000, -60.000000)" fill="#FFFFFF">
            <path d="M202.420391,79.3815169 L199.209936,80.1308818 L199.209936,80.5119148 L200.280088,81.0453611 L200.280088,88.9200435 L199.209936,89.3137777 L199.209936,89.745978 L203.375883,89.745978 L203.375883,89.2121689 L202.471714,89.0851579 L202.471714,79.4453853 L202.420391,79.3815169 Z M195.812386,83.3634934 C195.918309,83.3932503 196.016225,83.4563929 196.105404,83.5540099 C196.194583,83.651627 196.268839,83.7869844 196.32817,83.9604451 C196.387502,84.1342688 196.41735,84.364703 196.41735,84.6524737 C196.41735,84.8135962 196.40461,84.9700012 196.37913,85.1224144 L194.32837,85.2875287 C194.345114,85.0505625 194.376781,84.8157736 194.423737,84.5827991 C194.470329,84.3498246 194.5424,84.1404379 194.640315,83.954276 C194.737867,83.7677513 194.858714,83.6153381 195.003585,83.4966735 C195.147727,83.3783718 195.322082,83.319221 195.525556,83.319221 C195.610732,83.319221 195.706099,83.3340994 195.812386,83.3634934 Z M198.264635,88.1325753 C198.162716,88.2174912 198.039685,88.3042216 197.895178,88.3931293 C197.750671,88.482037 197.593788,88.5647756 197.423802,88.6409822 C197.253815,88.7171888 197.069268,88.778517 196.869798,88.8246038 C196.669964,88.8714165 196.468309,88.8946413 196.264471,88.8946413 C195.941605,88.8946413 195.657323,88.8231523 195.410897,88.6787226 C195.164471,88.5350187 194.958813,88.3339785 194.793194,88.0756018 C194.627575,87.8172251 194.501996,87.5123987 194.417185,87.1607596 C194.332374,86.8098464 194.29015,86.426636 194.29015,86.0118544 L198.455734,86.0118544 L198.493953,85.9733882 C198.511061,85.8804887 198.521617,85.791581 198.525985,85.7070279 C198.529989,85.622112 198.532173,85.5288496 198.532173,85.4272408 C198.532173,85.0378614 198.481213,84.6717068 198.379294,84.3287771 C198.277375,83.9858473 198.124496,83.6850127 197.920658,83.426636 C197.716819,83.1689851 197.457653,82.9654046 197.143524,82.8173461 C196.829394,82.6692875 196.463941,82.5948954 196.047892,82.5948954 C195.428005,82.5948954 194.875822,82.7008588 194.391705,82.9124229 C193.907589,83.1239869 193.497728,83.4121205 193.162487,83.7760977 C192.826881,84.1404379 192.572083,84.5595742 192.398093,85.0335067 C192.223738,85.508165 192.137107,86.0118544 192.137107,86.5449377 C192.137107,87.0192331 192.213182,87.4655861 192.366061,87.8850853 C192.51894,88.3042216 192.744254,88.6707391 193.041276,88.9835491 C193.338661,89.2970848 193.703751,89.5445748 194.136907,89.7267449 C194.570064,89.908915 195.06692,90 195.627476,90 C196.239355,90 196.801731,89.8682714 197.315695,89.6062659 C197.829295,89.3435345 198.264635,89.0303617 198.621352,88.6660215 L198.264635,88.1325753 Z M191.380357,83.9031087 L191.533236,82.938188 L189.392932,82.938188 L189.392932,81.2489416 L188.969967,81.2489416 L187.036051,82.9124229 L186.131518,83.4458691 L186.131518,83.9031087 L187.201669,83.9031087 L187.201669,87.2819644 C187.201669,87.6626346 187.214409,88.0164509 187.239889,88.341962 C187.265369,88.6685618 187.340352,88.9476231 187.464111,89.1805976 C187.58787,89.413572 187.777877,89.5975566 188.034495,89.732914 C188.291113,89.8682714 188.64965,89.9361316 189.111198,89.9361316 C189.37546,89.9361316 189.630622,89.8998427 189.877048,89.8283537 C190.12311,89.7561389 190.354977,89.667594 190.571191,89.5616306 C190.787769,89.45603 190.983236,89.3457119 191.15759,89.231402 C191.331217,89.1170921 191.47354,89.0176606 191.584195,88.9327446 L191.393097,88.4374017 C191.206002,88.5390105 191.036379,88.6152171 190.883501,88.6660215 C190.730622,88.7171888 190.556267,88.7422281 190.361165,88.7422281 C190.131846,88.7422281 189.951304,88.6914237 189.819537,88.5898149 C189.688134,88.488569 189.590219,88.355026 189.526883,88.1895488 C189.46282,88.0244345 189.4246,87.8386355 189.41186,87.6307004 C189.399484,87.423491 189.392932,87.2097496 189.392932,86.9894762 L189.392932,83.9031087 L191.380357,83.9031087 Z M180.984598,88.420346 C180.750911,87.9173824 180.634432,87.104149 180.634432,85.9806459 C180.634432,85.6173945 180.657728,85.2751905 180.70432,84.9540341 C180.750911,84.6328777 180.825531,84.3563566 180.92745,84.123745 C181.029369,83.8918592 181.156768,83.7078747 181.309647,83.5725172 C181.462526,83.4375227 181.644888,83.3696625 181.857463,83.3696625 C182.154484,83.3696625 182.396543,83.4502238 182.583637,83.6106205 C182.770368,83.7713802 182.914875,83.9952824 183.016794,84.2823273 C183.118713,84.5697351 183.1886,84.9159308 183.227184,85.3216403 C183.26504,85.7269868 183.284332,86.1707996 183.284332,86.6519898 C183.284332,86.990202 183.26504,87.3113584 183.227184,87.6150962 C183.1886,87.9195597 183.122717,88.1880973 183.029534,88.4199831 C182.935986,88.6525947 182.810771,88.8362163 182.653525,88.9715737 C182.496278,89.1069312 182.298991,89.1740656 182.061301,89.1740656 C181.577185,89.1740656 181.218284,88.9229467 180.984598,88.420346 Z M183.392439,89.7009798 C183.880923,89.5024797 184.286416,89.2295875 184.609281,88.8823031 C184.931783,88.5350187 185.171657,88.1285835 185.328904,87.6626346 C185.486151,87.1970485 185.564774,86.6973509 185.564774,86.1639047 C185.564774,85.6983186 185.494522,85.2494254 185.354384,84.817588 C185.214245,84.3857506 185.006038,84.0047176 184.730128,83.6744889 C184.454219,83.3442603 184.110241,83.0818919 183.698196,82.8870207 C183.286152,82.6925124 182.804219,82.5948954 182.2524,82.5948954 C181.691844,82.5948954 181.173512,82.677634 180.698132,82.8427483 C180.222387,83.0078626 179.812527,83.2513608 179.468549,83.573243 C179.124572,83.8951252 178.85485,84.2903109 178.659748,84.7606145 C178.464281,85.2305552 178.36673,85.7701706 178.36673,86.3798234 C178.36673,86.8033144 178.430429,87.2307971 178.557828,87.6626346 C178.685227,88.0948349 178.882514,88.4842143 179.150052,88.8311358 C179.41759,89.1784202 179.759383,89.4596589 180.175796,89.6759405 C180.591845,89.8918592 181.088701,90 181.666364,90 C182.328839,90 182.903955,89.8998427 183.392439,89.7009798 Z M176.486321,81.9598403 L177.671131,81.7185194 L177.671131,81.1092295 L173.237646,81.1092295 L173.237646,81.6804161 L174.180398,82.0360469 L174.180398,84.7286803 L170.804325,84.7286803 L170.804325,81.9598403 L171.747077,81.7185194 L171.747077,81.1092295 L167.300852,81.1092295 L167.300852,81.6804161 L168.485663,82.0360469 L168.485663,88.856538 L167.300852,89.1486634 L167.300852,89.745978 L171.747077,89.745978 L171.747077,89.1359623 L170.804325,88.9585097 L170.804325,85.6308213 L174.180398,85.6308213 L174.180398,88.856538 L173.237646,89.1486634 L173.237646,89.745978 L177.671131,89.745978 L177.671131,89.1359623 L176.486321,88.9585097 L176.486321,81.9598403 Z M281.327333,65.6204185 L282,65.205274 L282,64.5027217 L279.053079,64.5027217 L279.053079,65.2212411 L280.126143,65.7162211 L278.268301,70.905528 L278.204238,70.905528 L276.298348,65.6204185 L277.371412,65.205274 L277.371412,64.5027217 L272.647093,64.5027217 L272.647093,65.2212411 L273.527966,65.7162211 L276.538586,73.2686585 L277.14719,73.2686585 L276.858904,73.9073424 C276.667077,74.3330108 276.471611,74.6603363 276.274325,74.889319 C276.076674,75.1179388 275.903411,75.2805129 275.753809,75.3763155 L273.687761,74.0829805 L273.655729,74.0829805 C273.420951,74.2531753 273.228396,74.4687311 273.079157,74.729648 C272.929555,74.9905649 272.854935,75.29648 272.854935,75.6477561 C272.854935,75.8923431 272.900435,76.1053587 272.99107,76.2864401 C273.081705,76.4675215 273.204736,76.6163058 273.359799,76.7335188 C273.514134,76.8503689 273.693221,76.9356478 273.895967,76.9889924 C274.098713,77.042337 274.317476,77.0688279 274.552618,77.0688279 C275.129189,77.0688279 275.641697,76.9037136 276.090506,76.5738478 C276.538586,76.2436192 276.930975,75.8364582 277.267309,75.3523648 C277.603642,74.8679086 277.891928,74.3544212 278.132166,73.8115399 C278.372404,73.2686585 278.572603,72.7896456 278.732761,72.374501 L281.327333,65.6204185 Z M268.782171,71.5122777 C268.525917,71.6509012 268.291139,71.749244 268.077836,71.807669 C267.86417,71.866457 267.682535,71.8954881 267.533297,71.8954881 C267.426281,71.8954881 267.311258,71.8769808 267.188955,71.8396032 C267.065924,71.8025886 266.953813,71.7412604 266.852622,71.6559816 C266.750703,71.5707028 266.665527,71.4563929 266.596368,71.312689 C266.52648,71.1689851 266.491901,70.9908068 266.491901,70.7777912 C266.491901,70.2882545 266.692099,69.8945204 267.09286,69.596226 C267.492893,69.2982944 268.055996,69.0428209 268.782171,68.8298052 L268.782171,71.5122777 Z M268.069464,65.5884843 C268.278035,65.6948107 268.435281,65.8439579 268.541933,66.0355631 C268.648584,66.2271683 268.715559,66.4536107 268.742495,66.7141648 C268.768703,66.9750816 268.782171,67.2650296 268.782171,67.5843716 L268.782171,67.9196807 C268.33409,68.0688279 267.821582,68.2444659 267.245011,68.4465949 C266.668439,68.6490867 266.123899,68.8777065 265.611391,69.1331801 C265.002788,69.4205879 264.55398,69.7268659 264.265694,70.0512883 C263.977408,70.3760735 263.833629,70.8097254 263.833629,71.3526067 C263.833629,71.6824725 263.897693,71.9753236 264.02582,72.2307971 C264.154311,72.4862707 264.322477,72.7043668 264.531412,72.8854482 C264.739982,73.0665296 264.983496,73.2047901 265.261954,73.3005927 C265.539684,73.3963953 265.828698,73.4442966 266.128267,73.4442966 C266.363774,73.4442966 266.604376,73.4069191 266.850802,73.3325269 C267.096864,73.2577719 267.342562,73.1648724 267.588988,73.0531027 C267.83505,72.941333 268.07274,72.8135962 268.303151,72.6698923 C268.533197,72.5261885 268.744315,72.3799444 268.93687,72.2307971 C269.044249,72.5715495 269.231343,72.8614975 269.498881,73.101004 C269.766419,73.3405105 270.177736,73.4602637 270.734652,73.4602637 C270.927206,73.4602637 271.133229,73.4257893 271.352355,73.3564776 C271.571845,73.2871658 271.793519,73.1993468 272.017742,73.0930204 C272.2416,72.9866941 272.458178,72.8723842 272.666021,72.7497278 C272.874591,72.6274344 273.063869,72.5076811 273.234948,72.3904681 L273.026742,71.7358171 C272.823631,71.8210959 272.633989,71.8904076 272.458178,71.9433894 C272.282004,71.996734 272.129853,72.0232249 272.001362,72.0232249 C271.787695,72.0232249 271.657384,71.9223418 271.609337,71.71985 C271.560925,71.5177211 271.537265,71.2408371 271.537265,70.8895609 L271.537265,67.5524374 C271.537265,67.169227 271.520885,66.7809363 271.488854,66.3868392 C271.456458,65.9931051 271.351627,65.6338454 271.174724,65.3090601 C270.997094,64.9842748 270.723004,64.7182775 270.353183,64.5107052 C269.982633,64.3031329 269.459206,64.188823 268.782171,64.1674126 L268.493885,64.1674126 C268.398154,64.1674126 268.291139,64.1728559 268.173932,64.1833797 C267.938789,64.2047901 267.674527,64.2577719 267.381146,64.3430507 C267.087036,64.4283295 266.782734,64.5346559 266.468241,64.6623926 C266.153019,64.7901294 265.845806,64.9338333 265.547328,65.0935043 C265.248122,65.2531753 264.98386,65.4182896 264.754542,65.5884843 C264.524496,65.759042 264.337765,65.9346801 264.193986,66.1153986 C264.04948,66.29648 263.977408,66.4666747 263.977408,66.6263457 C263.977408,66.8818193 264.0604,67.0893916 264.226018,67.2490625 C264.391273,67.4087335 264.682471,67.488569 265.098519,67.488569 C265.344218,67.488569 265.570988,67.4780452 265.779194,67.4566348 C265.987765,67.4352244 266.198519,67.3927664 266.412185,67.328898 L266.412185,65.6204185 C266.593456,65.4926817 266.865726,65.4288134 267.228995,65.4288134 C267.581344,65.4288134 267.861258,65.482158 268.069464,65.5884843 Z M255.875195,63.2253538 C256.516194,63.2253538 257.06037,63.3665175 257.509178,63.6484819 C257.957623,63.9308092 258.323076,64.3005927 258.605902,64.7581952 C258.889092,65.2161606 259.097298,65.7376315 259.230885,66.3229708 C259.364108,66.908673 259.431084,67.5099794 259.431084,68.1272529 C259.431084,68.6382001 259.380124,69.1331801 259.278933,69.6121931 C259.177377,70.091206 258.998655,70.5197774 258.742037,70.8975445 C258.485783,71.2753115 258.141806,71.5761461 257.709377,71.7996855 C257.276948,72.0232249 256.734956,72.1349946 256.083766,72.1349946 L255.058386,72.1349946 L255.058386,63.2253538 L255.875195,63.2253538 Z M250.654384,62.283295 L250.654384,63.0018144 L252.14386,63.4488932 L252.14386,72.0232249 L250.654384,72.3904681 L250.654384,73.1409217 L255.827512,73.1409217 C256.959179,73.1409217 257.949615,72.9946776 258.798456,72.7018265 C259.647298,72.4089754 260.35418,72.0018144 260.92056,71.4803435 C261.486576,70.9588726 261.91318,70.3361558 262.201466,69.6121931 C262.489752,68.8885932 262.634259,68.0953187 262.634259,67.2330954 C262.634259,66.4880852 262.50322,65.8094835 262.24187,65.1972904 C261.980156,64.5850974 261.585219,64.0636265 261.056695,63.6325148 C260.528171,63.2014032 259.865696,62.8686343 259.070726,62.6345712 C258.275029,62.400508 257.3381,62.283295 256.25994,62.283295 L250.654384,62.283295 Z M239.571398,70.1550744 L238.626825,70.1550744 L238.78662,72.8694811 C239.192113,73.0291521 239.680597,73.1674126 240.252437,73.2846256 C240.823184,73.4014757 241.455811,73.4602637 242.149954,73.4602637 C242.587842,73.4602637 243.030827,73.4094593 243.479272,73.3082134 C243.927716,73.2069675 244.333209,73.0447563 244.696842,72.8204911 C245.059747,72.5965888 245.355677,72.3088182 245.585359,71.9564534 C245.815041,71.6048143 245.929701,71.1835007 245.929701,70.6925124 C245.929701,70.2450708 245.815041,69.8527882 245.585359,69.5171162 C245.355677,69.1814443 245.067391,68.882787 244.720502,68.6211443 C244.373613,68.3598645 243.99724,68.1254385 243.591383,67.9175033 C243.185526,67.7092053 242.809153,67.5067134 242.462263,67.309302 C242.115374,67.1122535 241.827088,66.9123019 241.597406,66.7098101 C241.367724,66.5069554 241.253429,66.2721664 241.253429,66.0054433 C241.253429,65.6643281 241.402668,65.4030483 241.701509,65.221604 C242.000351,65.0405226 242.34724,64.9498004 242.742541,64.9498004 C242.955844,64.9498004 243.164414,64.9922584 243.36716,65.0775372 L244.504288,67.0893916 L245.160938,67.0893916 L245.657431,64.6834402 C245.518384,64.6210233 245.342573,64.5586065 245.128907,64.4958268 C244.91524,64.4334099 244.68301,64.3760735 244.432216,64.3234547 C244.181422,64.2715616 243.92262,64.2298294 243.655446,64.1982581 C243.388636,64.1670497 243.126922,64.1514455 242.870668,64.1514455 C242.16597,64.1514455 241.557731,64.231281 241.044858,64.390952 C240.53235,64.550623 240.110478,64.7581952 239.779968,65.0136688 C239.448731,65.2691424 239.203397,65.5511068 239.042874,65.859925 C238.882715,66.1687432 238.802636,66.4721181 238.802636,66.7700496 C238.802636,67.1746704 238.917659,67.5284868 239.146977,67.8318616 C239.376295,68.1352365 239.664581,68.4092174 240.011835,68.6541672 C240.359088,68.899117 240.732549,69.1251966 241.132946,69.3327688 C241.533343,69.5403411 241.906804,69.7453732 242.254421,69.9475021 C242.600946,70.1496311 242.889232,70.3626467 243.119278,70.586186 C243.348233,70.8097254 243.463256,71.0601185 243.463256,71.3366397 C243.463256,71.6454578 243.321661,71.9194387 243.038835,72.1589452 C242.756009,72.3984517 242.336684,72.5182049 241.781953,72.5182049 C241.664018,72.5182049 241.530431,72.5076811 241.381192,72.4862707 C241.231589,72.4652232 241.098366,72.4278457 240.981159,72.374501 L239.571398,70.1550744 Z M230.961409,70.1550744 L230.016472,70.1550744 L230.176631,72.8694811 C230.582124,73.0291521 231.070608,73.1674126 231.642084,73.2846256 C232.213195,73.4014757 232.845822,73.4602637 233.539965,73.4602637 C233.977489,73.4602637 234.420838,73.4094593 234.869283,73.3082134 C235.317727,73.2069675 235.72322,73.0447563 236.086489,72.8204911 C236.449394,72.5965888 236.745688,72.3088182 236.97537,71.9564534 C237.205052,71.6048143 237.319711,71.1835007 237.319711,70.6925124 C237.319711,70.2450708 237.205052,69.8527882 236.97537,69.5171162 C236.745688,69.1814443 236.457402,68.882787 236.110513,68.6211443 C235.763624,68.3598645 235.386886,68.1254385 234.981394,67.9175033 C234.575537,67.7092053 234.199164,67.5067134 233.852274,67.309302 C233.505021,67.1122535 233.216735,66.9123019 232.987417,66.7098101 C232.757735,66.5069554 232.643076,66.2721664 232.643076,66.0054433 C232.643076,65.6643281 232.792315,65.4030483 233.09152,65.221604 C233.390362,65.0405226 233.737251,64.9498004 234.132552,64.9498004 C234.345855,64.9498004 234.554061,64.9922584 234.757171,65.0775372 L235.894299,67.0893916 L236.550949,67.0893916 L237.047442,64.6834402 C236.908395,64.6210233 236.732584,64.5586065 236.518918,64.4958268 C236.305251,64.4334099 236.073021,64.3760735 235.822227,64.3234547 C235.571069,64.2715616 235.312267,64.2298294 235.045457,64.1982581 C234.778283,64.1670497 234.516933,64.1514455 234.260679,64.1514455 C233.555981,64.1514455 232.947377,64.231281 232.434869,64.390952 C231.922361,64.550623 231.500489,64.7581952 231.169615,65.0136688 C230.838378,65.2691424 230.593044,65.5511068 230.432885,65.859925 C230.272726,66.1687432 230.192647,66.4721181 230.192647,66.7700496 C230.192647,67.1746704 230.307306,67.5284868 230.536988,67.8318616 C230.766306,68.1352365 231.054592,68.4092174 231.401845,68.6541672 C231.748735,68.899117 232.12256,69.1251966 232.522957,69.3327688 C232.923354,69.5403411 233.296815,69.7453732 233.644068,69.9475021 C233.990593,70.1496311 234.278879,70.3626467 234.508925,70.586186 C234.738244,70.8097254 234.853267,71.0601185 234.853267,71.3366397 C234.853267,71.6454578 234.711672,71.9194387 234.428846,72.1589452 C234.145656,72.3984517 233.726695,72.5182049 233.1716,72.5182049 C233.054029,72.5182049 232.920442,72.5076811 232.771203,72.4862707 C232.6216,72.4652232 232.488013,72.4278457 232.370806,72.374501 L230.961409,70.1550744 Z M225.293245,65.1174549 C225.426468,65.1548325 225.549499,65.234668 225.66161,65.3569614 C225.773721,65.4796178 225.866905,65.6498125 225.941888,65.8679086 C226.016507,66.0863675 226.053999,66.3763155 226.053999,66.7381154 C226.053999,66.9406072 226.037983,67.1372929 226.005951,67.328898 L223.427395,67.5364703 C223.448871,67.2385388 223.488911,66.9431475 223.547515,66.6502964 C223.606118,66.3578082 223.696753,66.094351 223.819784,65.859925 C223.942451,65.6258619 224.094602,65.4342567 224.276237,65.2851095 C224.457871,65.1359623 224.676998,65.0615701 224.932888,65.0615701 C225.039539,65.0615701 225.159658,65.0804403 225.293245,65.1174549 Z M228.376301,71.1131003 C228.248174,71.2197895 228.093111,71.3286561 227.911841,71.4404258 C227.730206,71.5521955 227.532556,71.6559816 227.319253,71.7517842 C227.105587,71.8475868 226.873357,71.9248821 226.622563,71.9833071 C226.371769,72.0420951 226.118063,72.0711262 225.861809,72.0711262 C225.455952,72.0711262 225.098507,71.9807669 224.788745,71.7996855 C224.478983,71.618967 224.220181,71.3660336 224.011975,71.0412483 C223.803769,70.716463 223.646158,70.3336156 223.539871,69.8916173 C223.432855,69.4499819 223.379348,68.9680658 223.379348,68.4465949 L228.616539,68.4465949 L228.664587,68.3986936 C228.685699,68.2814806 228.699167,68.1700738 228.704626,68.0633845 C228.710086,67.9570582 228.712634,67.8398452 228.712634,67.7121084 C228.712634,67.2225717 228.648571,66.762066 228.520444,66.3309544 C228.392681,65.8998427 228.200126,65.5220757 227.943872,65.1972904 C227.687618,64.8725051 227.361841,64.6173945 226.967268,64.4308697 C226.571967,64.2447079 226.112603,64.1514455 225.589539,64.1514455 C224.810221,64.1514455 224.116078,64.2846256 223.507475,64.550623 C222.898872,64.8169832 222.383816,65.1787831 221.962307,65.6363856 C221.54007,66.094351 221.219389,66.6212653 221.00099,67.2171283 C220.781864,67.8133543 220.673029,68.4465949 220.673029,69.117213 C220.673029,69.713439 220.76876,70.2748276 220.961315,70.8017419 C221.153141,71.3286561 221.435967,71.7891617 221.809792,72.1828959 C222.183617,72.5769929 222.642618,72.8883513 223.187157,73.1169711 C223.731697,73.3455909 224.356316,73.4602637 225.061015,73.4602637 C225.830141,73.4602637 226.537023,73.2951494 227.183118,72.9652837 C227.829213,72.6354179 228.376301,72.2413209 228.824746,71.7837184 L228.376301,71.1131003 Z M220.065882,73.1409217 L220.065882,72.4703036 L218.864691,72.3106326 L218.864691,68.4465949 C218.864691,67.8717794 218.848675,67.3238176 218.816643,66.8019838 C218.784612,66.2805129 218.685968,65.8225475 218.519986,65.4288134 C218.354367,65.0350792 218.087921,64.7237208 217.719192,64.4947381 C217.351191,64.2657554 216.830675,64.1514455 216.158008,64.1514455 C215.837327,64.1514455 215.527929,64.2022499 215.228723,64.3031329 C214.929882,64.4043789 214.652152,64.5266723 214.395898,64.6703762 C214.139644,64.8140801 213.907778,64.9712108 213.699207,65.1414056 C213.491365,65.3119632 213.317374,65.4661909 213.179055,65.6044514 L213.147023,65.6044514 L213.35523,64.2632152 L213.242755,64.1514455 L209.287197,64.9657675 L209.287197,65.5246159 L210.616515,66.1153986 L210.616515,72.1030604 L209.287197,72.5980404 L209.287197,73.1409217 L214.332198,73.1409217 L214.332198,72.4703036 L213.371246,72.3106326 L213.371246,66.3229708 C213.520485,66.2061207 213.723595,66.1019717 213.979849,66.0116124 C214.236103,65.9212532 214.486533,65.8758921 214.732595,65.8758921 C215.063105,65.8758921 215.322271,65.9372203 215.509365,66.0595137 C215.696096,66.1821701 215.835143,66.3443813 215.925778,66.5465102 C216.016413,66.7490021 216.069921,66.9776219 216.085937,67.2330954 C216.101952,67.488569 216.109596,67.7494859 216.109596,68.0154832 L216.109596,72.1030604 L215.469325,72.5980404 L215.469325,73.1409217 L220.065882,73.1409217 Z M203.656525,65.3090601 C203.890939,65.3994194 204.104242,65.5140922 204.296796,65.6523527 L204.296796,71.3526067 C204.137002,71.4912302 203.941535,71.6055401 203.712581,71.6958994 C203.482171,71.7866215 203.282336,71.8316197 203.111621,71.8316197 C202.865923,71.8316197 202.625321,71.7652111 202.390907,71.632031 C202.155401,71.4992137 201.945011,71.2912786 201.75828,71.0093141 C201.571185,70.7273497 201.419035,70.3655498 201.301828,69.9235515 C201.184256,69.4819161 201.125289,68.9520987 201.125289,68.3348252 C201.125289,67.7389621 201.175885,67.2385388 201.27744,66.833918 C201.379359,66.4292972 201.512218,66.1048748 201.677837,65.859925 C201.843455,65.6153381 202.035282,65.4393371 202.254408,65.3330108 C202.473534,65.2266844 202.695209,65.1733398 202.919067,65.1733398 C203.175685,65.1733398 203.421019,65.2187009 203.656525,65.3090601 Z M204.296796,64.3430507 C203.890939,64.2153139 203.506194,64.1514455 203.143653,64.1514455 C202.567082,64.1514455 201.995606,64.2526914 201.429591,64.4548204 C200.863939,64.6573122 200.356891,64.9683077 199.908446,65.3888956 C199.460002,65.8094835 199.099645,66.3389379 198.827375,66.9776219 C198.555105,67.6163058 198.41897,68.3667594 198.41897,69.2289827 C198.41897,69.8357324 198.488129,70.3971211 198.62754,70.9135116 C198.766587,71.429902 198.96715,71.879521 199.229228,72.2627313 C199.491306,72.6459417 199.814899,72.9467763 200.199644,73.1648724 C200.585117,73.3829684 201.02883,73.4921979 201.532238,73.4921979 C201.831443,73.4921979 202.123005,73.4497399 202.405831,73.3644611 C202.689385,73.2791823 202.954739,73.1648724 203.200801,73.0211685 C203.446499,72.8774646 203.682005,72.7123503 203.906591,72.5261885 C204.131178,72.3400266 204.339384,72.1509617 204.532302,71.9593565 L204.580714,71.9753236 L204.451859,73.348494 L204.548682,73.4442966 L208.39686,72.7736785 L208.332797,71.9433894 L207.051891,72.0551591 L207.051891,60.1916052 L206.970719,60.1117697 L202.951099,61.0538285 L202.951099,61.5328414 L204.296796,62.2034595 L204.296796,64.3430507 Z M197.736475,73.1409217 L197.736475,72.4703036 L196.535649,72.3106326 L196.535649,68.4465949 C196.535649,67.8717794 196.519633,67.3238176 196.487601,66.8019838 C196.455205,66.2805129 196.356562,65.8225475 196.191307,65.4288134 C196.025325,65.0350792 195.758879,64.7237208 195.390514,64.4947381 C195.021784,64.2657554 194.501632,64.1514455 193.828602,64.1514455 C193.508648,64.1514455 193.198887,64.2022499 192.900045,64.3031329 C192.600839,64.4043789 192.323473,64.5266723 192.067219,64.6703762 C191.810965,64.8140801 191.578371,64.9712108 191.370529,65.1414056 C191.161958,65.3119632 190.988332,65.4661909 190.849649,65.6044514 L190.817981,65.6044514 L191.025823,64.2632152 L190.914076,64.1514455 L186.958155,64.9657675 L186.958155,65.5246159 L188.287109,66.1153986 L188.287109,72.1030604 L186.958155,72.5980404 L186.958155,73.1409217 L192.002792,73.1409217 L192.002792,72.4703036 L191.042203,72.3106326 L191.042203,66.3229708 C191.191442,66.2061207 191.394189,66.1019717 191.650807,66.0116124 C191.907061,65.9212532 192.157491,65.8758921 192.403189,65.8758921 C192.734062,65.8758921 192.993228,65.9372203 193.180323,66.0595137 C193.366689,66.1821701 193.505736,66.3443813 193.596371,66.5465102 C193.687007,66.7490021 193.740514,66.9776219 193.756894,67.2330954 C193.77291,67.488569 193.780918,67.7494859 193.780918,68.0154832 L193.780918,72.1030604 L193.139919,72.5980404 L193.139919,73.1409217 L197.736475,73.1409217 Z M182.323379,62.3790976 C182.627681,62.6345712 182.99823,62.762308 183.436118,62.762308 C183.863087,62.762308 184.234364,62.6345712 184.549222,62.3790976 C184.864079,62.123624 185.02169,61.7937583 185.02169,61.3891375 C185.02169,61.1870086 184.979102,61.0004839 184.893927,60.8302891 C184.808024,60.6600944 184.693365,60.5138502 184.549222,60.3911939 C184.405079,60.2689004 184.236912,60.1730979 184.045086,60.1037861 C183.852531,60.0348373 183.649785,60 183.436118,60 C183.222452,60 183.019706,60.0348373 182.827515,60.1037861 C182.635689,60.1730979 182.467522,60.2689004 182.323379,60.3911939 C182.179236,60.5138502 182.066761,60.6600944 181.986682,60.8302891 C181.906966,61.0004839 181.866563,61.1870086 181.866563,61.3891375 C181.866563,61.7937583 182.018714,62.123624 182.323379,62.3790976 Z M181.99469,72.1030604 L180.665372,72.5980404 L180.665372,73.1409217 L186.031054,73.1409217 L186.031054,72.4703036 L184.749784,72.3106326 L184.749784,64.07161 L184.669341,64.0077416 L180.665372,64.8220636 L180.665372,65.3809121 L181.99469,65.9716947 L181.99469,72.1030604 Z M176.121959,63.4488932 L171.829705,67.5684045 L171.829705,67.6322729 L175.609451,73.1409217 L179.949754,73.1409217 L179.949754,72.374501 L178.684499,72.1509617 L174.616467,66.4347405 L177.979801,63.3530906 L179.020833,63.0497157 L179.020833,62.283295 L174.664515,62.283295 L174.664515,63.0018144 L176.121959,63.4488932 Z M171.493371,63.3530906 L172.966832,63.0497157 L172.966832,62.283295 L167.089006,62.283295 L167.089006,63.0018144 L168.578482,63.4488932 L168.578482,72.0232249 L167.089006,72.3904681 L167.089006,73.1409217 L172.806673,73.1409217 L172.806673,72.374501 L171.493371,72.1509617 L171.493371,63.3530906 Z M127.042037,73.3934922 L127.042037,73.7959356 C137.959768,74.5616306 146.370287,76.3749849 151.035274,78.1578565 L151.035274,88.9759284 C150.250861,88.6671102 137.66311,83.5028426 118.017819,83.4966735 C98.372164,83.5028426 85.7844139,88.6671102 85,88.9759284 L85,78.1578565 C89.6649877,76.3749849 98.0755063,74.5616306 108.993237,73.7959356 L108.993237,73.3934922 C98.4253076,73.2196686 88.7750146,72.6793274 85,72.3861135 L85,61.9106084 C89.5150209,62.1962018 101.804293,62.8624652 118.017819,62.8624652 C134.230981,62.8624652 146.520254,62.1962018 151.035274,61.9106084 L151.035274,72.3861135 C147.260624,72.6793274 137.609967,73.2196686 127.042037,73.3934922 Z" id="Fill-1-Copy-2"></path>
        </g>
    </g>
</svg>