<?xml version="1.0" encoding="UTF-8"?>
<svg width="134px" height="26px" viewBox="0 0 134 26" version="1.1" xmlns="http://www.w3.org/2000/svg" xmlns:xlink="http://www.w3.org/1999/xlink">
    <!-- Generator: Sketch 50.2 (55047) - http://www.bohemiancoding.com/sketch -->
    <title>Group 3</title>
    <desc>Created with Sketch.</desc>
    <defs></defs>
    <g id="TW-Desktop" stroke="none" stroke-width="1" fill="none" fill-rule="evenodd">
        <g id="6-traffic-detail-page" transform="translate(-653.000000, -1171.000000)" fill="#0C2340">
            <g id="Group-3" transform="translate(653.000000, 1170.000000)">
                <text id="Google-map-Copy" font-family="Helvetica" font-size="20" font-weight="normal" letter-spacing="-0.625">
                    <tspan x="31.25" y="19">Google ma</tspan>
                    <tspan x="123.457031" y="19">p</tspan>
                </text>
                <path d="M8.39774083,7.0769947 C6.9802027,7.07143572 5.83505426,8.17211238 5.82949529,9.56185564 C5.81837734,10.9126861 6.94684887,12.0745115 8.27544342,12.0800704 C9.70965846,12.0856294 10.827012,11.0016297 10.832571,9.59520948 C10.832571,8.19990725 9.75413025,7.08255367 8.39774083,7.0769947 M15.698896,13.5426362 C13.7365785,17.452262 11.7509134,21.3507697 9.77858973,25.2553924 C9.47673749,25.8524261 9.04536118,26.2415542 8.34270699,26.2498927 C7.65450613,26.2576752 7.24091854,25.8413082 6.9607463,25.2904139 C4.9200473,21.2812826 2.81875549,17.3010579 0.879785701,13.2435635 C-1.54503833,8.16988879 1.35007482,3.08898745 5.81115068,1.65366061 C11.1861217,-0.0757359005 16.7067378,3.97008467 16.6756076,9.62467204 C16.7034024,11.0188625 16.3148302,12.3157709 15.698896,13.5426362 Z" id="Fill-1"></path>
            </g>
        </g>
    </g>
</svg>