<?xml version="1.0" encoding="UTF-8"?>
<svg width="135px" height="27px" viewBox="0 0 135 27" version="1.1" xmlns="http://www.w3.org/2000/svg" xmlns:xlink="http://www.w3.org/1999/xlink">
    <!-- Generator: Sketch 51.3 (57544) - http://www.bohemiancoding.com/sketch -->
    <title>Artboard</title>
    <desc>Created with Sketch.</desc>
    <defs></defs>
    <g id="Artboard" stroke="none" stroke-width="1" fill="none" fill-rule="evenodd">
        <g id="Group-13" transform="translate(1.000000, 1.000000)" fill="#0C2340">
            <path d="M39.21,20.2 C37.9299936,20.2 36.7766718,19.9200028 35.75,19.36 C34.7233282,18.7999972 33.910003,18.0300049 33.31,17.05 C32.709997,16.0699951 32.41,14.9600062 32.41,13.72 C32.41,12.3466598 32.7499966,11.1233387 33.43,10.05 C34.1100034,8.9766613 35.0066611,8.1333364 36.12,7.52 C37.2333389,6.9066636 38.4499934,6.6 39.77,6.6 C40.836672,6.6 41.6766636,6.6899991 42.29,6.87 C42.9033364,7.0500009 43.5033304,7.2799986 44.09,7.56 L44.25,10.98 L43.91,10.98 L42.27,8.38 C41.469996,7.846664 40.6500042,7.58 39.81,7.58 C38.4366598,7.58 37.2866713,8.0899949 36.36,9.11 C35.4333287,10.1300051 34.97,11.4533252 34.97,13.08 C34.97,14.9600094 35.436662,16.4299947 36.37,17.49 C37.303338,18.5500053 38.4433266,19.08 39.79,19.08 C40.0966682,19.08 40.416665,19.0633335 40.75,19.03 C41.083335,18.9966665 41.416665,18.9333338 41.75,18.84 L41.75,15.28 L39.97,14.4 L39.97,14.08 L45.71,14.08 L45.71,14.4 L44.25,15.32 L44.25,18.52 C43.6366636,19.0266692 42.8566714,19.4333318 41.91,19.74 C40.9633286,20.0466682 40.0633376,20.2 39.21,20.2 Z M51.425,20.2 C50.0516598,20.2 48.9383376,19.7400046 48.085,18.82 C47.2316624,17.8999954 46.805,16.7800066 46.805,15.46 C46.805,14.1399934 47.2316624,13.0200046 48.085,12.1 C48.9383376,11.1799954 50.0516598,10.72 51.425,10.72 C52.8116736,10.72 53.9283291,11.1799954 54.775,12.1 C55.6216709,13.0200046 56.045,14.1399934 56.045,15.46 C56.045,16.7800066 55.6216709,17.8999954 54.775,18.82 C53.9283291,19.7400046 52.8116736,20.2 51.425,20.2 Z M51.665,19.26 C52.3450034,19.26 52.8383318,18.9133368 53.145,18.22 C53.4516682,17.5266632 53.605,16.7400044 53.605,15.86 C53.605,14.7799946 53.4183352,13.806671 53.045,12.94 C52.6716648,12.073329 52.0650042,11.64 51.225,11.64 C50.5316632,11.64 50.0283349,11.9833299 49.715,12.67 C49.4016651,13.3566701 49.245,14.1466622 49.245,15.04 C49.245,16.1200054 49.4349981,17.093329 49.815,17.96 C50.1950019,18.826671 50.8116624,19.26 51.665,19.26 Z M61.88,20.2 C60.5066598,20.2 59.3933376,19.7400046 58.54,18.82 C57.6866624,17.8999954 57.26,16.7800066 57.26,15.46 C57.26,14.1399934 57.6866624,13.0200046 58.54,12.1 C59.3933376,11.1799954 60.5066598,10.72 61.88,10.72 C63.2666736,10.72 64.3833291,11.1799954 65.23,12.1 C66.0766709,13.0200046 66.5,14.1399934 66.5,15.46 C66.5,16.7800066 66.0766709,17.8999954 65.23,18.82 C64.3833291,19.7400046 63.2666736,20.2 61.88,20.2 Z M62.12,19.26 C62.8000034,19.26 63.2933318,18.9133368 63.6,18.22 C63.9066682,17.5266632 64.06,16.7400044 64.06,15.86 C64.06,14.7799946 63.8733352,13.806671 63.5,12.94 C63.1266648,12.073329 62.5200042,11.64 61.68,11.64 C60.9866632,11.64 60.4833349,11.9833299 60.17,12.67 C59.8566651,13.3566701 59.7,14.1466622 59.7,15.04 C59.7,16.1200054 59.8899981,17.093329 60.27,17.96 C60.6500019,18.826671 61.2666624,19.26 62.12,19.26 Z M71.835,17.04 C71.2216636,17.04 70.6550026,16.9333344 70.135,16.72 C69.7749982,16.920001 69.595,17.2066648 69.595,17.58 C69.595,18.2333366 70.0883284,18.56 71.075,18.56 L73.375,18.56 C75.3483432,18.56 76.335,19.4399912 76.335,21.2 C76.335,22.1066712 75.8883378,22.9333296 74.995,23.68 C74.1016622,24.4266704 72.8816744,24.8 71.335,24.8 C70.0416602,24.8 69.1183361,24.5866688 68.565,24.16 C68.0116639,23.7333312 67.735,23.2000032 67.735,22.56 C67.735,22.0666642 67.8549988,21.6466684 68.095,21.3 L69.395,20.46 L69.395,20.38 C68.3683282,20.0866652 67.855,19.4666714 67.855,18.52 C67.855,17.9466638 68.0349982,17.4800018 68.395,17.12 L69.515,16.5 L69.515,16.38 C68.581662,15.7666636 68.115,14.9333386 68.115,13.88 C68.115,12.9866622 68.4716631,12.240003 69.185,11.64 C69.8983369,11.039997 70.7816614,10.74 71.835,10.74 C72.568337,10.74 73.2083306,10.873332 73.755,11.14 L76.815,10.94 L76.815,12.1 L74.855,11.96 L74.775,12.02 C75.2950026,12.5400026 75.555,13.1599964 75.555,13.88 C75.555,14.7866712 75.1983369,15.539997 74.485,16.14 C73.7716631,16.740003 72.8883386,17.04 71.835,17.04 Z M72.015,16.2 C72.4683356,16.2 72.8249987,15.9866688 73.085,15.56 C73.3450013,15.1333312 73.475,14.5933366 73.475,13.94 C73.475,13.206663 73.3116683,12.6266688 72.985,12.2 C72.6583317,11.7733312 72.2483358,11.56 71.755,11.56 C71.2483308,11.56 70.8650013,11.7733312 70.605,12.2 C70.3449987,12.6266688 70.215,13.1666634 70.215,13.82 C70.215,14.553337 70.381665,15.1333312 70.715,15.56 C71.048335,15.9866688 71.481664,16.2 72.015,16.2 Z M69.315,22.24 C69.315,22.7866694 69.514998,23.2399982 69.915,23.6 C70.315002,23.9600018 70.8549966,24.14 71.535,24.14 C72.401671,24.14 73.0949974,23.9233355 73.615,23.49 C74.1350026,23.0566645 74.395,22.5466696 74.395,21.96 C74.395,21.426664 74.2516681,21.0533344 73.965,20.84 C73.6783319,20.6266656 73.168337,20.52 72.435,20.52 L70.535,20.52 C70.401666,20.52 70.2750006,20.5133334 70.155,20.5 C69.5949972,20.8600018 69.315,21.439996 69.315,22.24 Z M77.43,20 L77.43,19.68 L78.75,19.04 L78.75,7.28 L77.49,6.3 L77.49,6.1 L80.87,5 L81.05,5 L81.05,19.04 L82.27,19.68 L82.27,20 L77.43,20 Z M87.565,20.2 C86.23166,20.2 85.1750039,19.8066706 84.395,19.02 C83.6149961,18.2333294 83.225,17.1866732 83.225,15.88 C83.225,14.3733258 83.6849954,13.1366715 84.605,12.17 C85.5250046,11.2033285 86.618327,10.72 87.885,10.72 C88.951672,10.72 89.784997,11.086663 90.385,11.82 C90.985003,12.553337 91.2916666,13.58666 91.305,14.92 L91.225,15.02 L85.465,15.02 C85.4783334,15.9133378 85.7283309,16.6866634 86.215,17.34 C86.7016691,17.9933366 87.5383274,18.32 88.725,18.32 C89.0983352,18.32 89.4983312,18.2666672 89.925,18.16 C90.3516688,18.0533328 90.798331,17.8733346 91.265,17.62 L91.325,17.62 L91.325,17.9 C91.0049984,18.5533366 90.5183366,19.0999978 89.865,19.54 C89.2116634,19.9800022 88.4450044,20.2 87.565,20.2 Z M87.485,11.62 C86.3649944,11.62 85.705001,12.453325 85.505,14.12 L89.365,14.12 C89.2449994,13.1999954 89.0250016,12.5533352 88.705,12.18 C88.3849984,11.8066648 87.9783358,11.62 87.485,11.62 Z M96.695,20 L96.695,19.68 L97.995,19.04 L97.995,13 L96.755,12.1 L96.755,11.9 L99.915,10.72 L100.115,10.72 L100.295,12.2 L100.395,12.2 C100.875002,11.7199976 101.338331,11.3533346 101.785,11.1 C102.231669,10.8466654 102.74833,10.72 103.335,10.72 C103.975003,10.72 104.524998,10.8633319 104.985,11.15 C105.445002,11.4366681 105.748333,11.8599972 105.895,12.42 L105.955,12.42 C106.488336,11.8733306 106.991664,11.4533348 107.465,11.16 C107.938336,10.8666652 108.48833,10.72 109.115,10.72 C109.888337,10.72 110.521664,10.9266646 111.015,11.34 C111.508336,11.7533354 111.755,12.3533294 111.755,13.14 L111.755,19.04 L113.055,19.68 L113.055,20 L108.255,20 L108.255,19.68 L109.435,19.04 L109.435,14 C109.435,13.4933308 109.288335,13.1033347 108.995,12.83 C108.701665,12.5566653 108.321669,12.42 107.855,12.42 C107.068329,12.42 106.441669,12.6599976 105.975,13.14 L105.975,19.04 L107.135,19.68 L107.135,20 L102.535,20 L102.535,19.68 L103.655,19.04 L103.655,14 C103.655,13.4933308 103.508335,13.1033347 103.215,12.83 C102.921665,12.5566653 102.541669,12.42 102.075,12.42 C101.781665,12.42 101.471668,12.4733328 101.145,12.58 C100.818332,12.6866672 100.541668,12.8333324 100.315,13.02 L100.315,19.04 L101.415,19.68 L101.415,20 L96.695,20 Z M115.99,20.2 C115.349997,20.2 114.806669,20.0066686 114.36,19.62 C113.913331,19.2333314 113.696667,18.6866702 113.71,17.98 C113.723333,17.2866632 113.956664,16.7166689 114.41,16.27 C114.863336,15.8233311 115.703327,15.4533348 116.93,15.16 L118.81,14.7 L118.81,13.38 C118.81,12.8866642 118.643335,12.4833349 118.31,12.17 C117.976665,11.8566651 117.576669,11.7 117.11,11.7 C116.269996,11.7 115.85,12.1266624 115.85,12.98 L115.85,13.76 L115.75,13.84 L114.55,13.84 C114.189998,13.84 114.01,13.640002 114.01,13.24 C114.01,12.6133302 114.409996,12.0600024 115.21,11.58 C115.636669,11.313332 116.059998,11.1033341 116.48,10.95 C116.900002,10.7966659 117.343331,10.72 117.81,10.72 C118.690004,10.72 119.46333,10.9033315 120.13,11.27 C120.79667,11.6366685 121.13,12.253329 121.13,13.12 L121.13,18.58 C121.316668,18.7933344 121.656664,18.9 122.15,18.9 L122.81,18.9 L122.87,18.96 L122.87,19.16 C122.709999,19.426668 122.463335,19.6666656 122.13,19.88 C121.796665,20.0933344 121.370003,20.2 120.85,20.2 C119.889995,20.2 119.256668,19.766671 118.95,18.9 L118.81,18.9 C118.463332,19.2733352 118.050002,19.5833321 117.57,19.83 C117.089998,20.0766679 116.563336,20.2 115.99,20.2 Z M115.91,17.48 C115.91,18.3200042 116.376662,18.74 117.31,18.74 C117.750002,18.74 118.249997,18.6266678 118.81,18.4 L118.81,15.46 C117.569994,15.7000012 116.776668,15.9799984 116.43,16.3 C116.083332,16.6200016 115.91,17.013331 115.91,17.48 Z M123.145,24.6 L123.145,24.28 L124.445,23.64 L124.445,13.08 L123.205,12.1 L123.205,11.9 L126.365,10.72 L126.565,10.72 L126.725,11.94 L126.845,11.94 C127.791671,11.1266626 128.771662,10.72 129.785,10.72 C130.718338,10.72 131.51833,11.1066628 132.185,11.88 C132.85167,12.6533372 133.185,13.7133266 133.185,15.06 C133.185,16.6733414 132.731671,17.9333288 131.825,18.84 C130.918329,19.7466712 129.83834,20.2 128.585,20.2 C127.891663,20.2 127.285003,20.133334 126.765,20 L126.765,23.64 L128.265,24.28 L128.265,24.6 L123.145,24.6 Z M128.365,12.26 C127.858331,12.26 127.325003,12.4199984 126.765,12.74 L126.765,18.46 C127.285003,18.9533358 127.944996,19.2 128.745,19.2 C129.291669,19.2 129.784998,18.9466692 130.225,18.44 C130.665002,17.9333308 130.885,17.01334 130.885,15.68 C130.885,14.5066608 130.631669,13.6433361 130.125,13.09 C129.618331,12.5366639 129.03167,12.26 128.365,12.26 Z" id="Google-map-Copy"></path>
            <path d="M8.39774083,6.0769947 C6.9802027,6.07143572 5.83505426,7.17211238 5.82949529,8.56185564 C5.81837734,9.91268609 6.94684887,11.0745115 8.27544342,11.0800704 C9.70965846,11.0856294 10.827012,10.0016297 10.832571,8.59520948 C10.832571,7.19990725 9.75413025,6.08255367 8.39774083,6.0769947 M15.698896,12.5426362 C13.7365785,16.452262 11.7509134,20.3507697 9.77858973,24.2553924 C9.47673749,24.8524261 9.04536118,25.2415542 8.34270699,25.2498927 C7.65450613,25.2576752 7.24091854,24.8413082 6.9607463,24.2904139 C4.9200473,20.2812826 2.81875549,16.3010579 0.879785701,12.2435635 C-1.54503833,7.16988879 1.35007482,2.08898745 5.81115068,0.653660609 C11.1861217,-1.0757359 16.7067378,2.97008467 16.6756076,8.62467204 C16.7034024,10.0188625 16.3148302,11.3157709 15.698896,12.5426362 Z" id="Fill-1"></path>
        </g>
    </g>
</svg>