<?xml version="1.0" encoding="UTF-8"?>
<svg width="18px" height="19px" viewBox="0 0 18 19" version="1.1" xmlns="http://www.w3.org/2000/svg" xmlns:xlink="http://www.w3.org/1999/xlink">
    <!-- Generator: Sketch 50.2 (55047) - http://www.bohemiancoding.com/sketch -->
    <title>Fill 1</title>
    <desc>Created with Sketch.</desc>
    <defs></defs>
    <g id="Symbol" stroke="none" stroke-width="1" fill="none" fill-rule="evenodd">
        <g id="Group" transform="translate(-69.000000, -1.000000)" fill="#000000">
            <path d="M81.2149705,10.5117597 C81.211509,12.2796587 79.7694242,13.7166823 77.9991838,13.7166823 C76.228251,13.7152979 74.7882431,12.2775821 74.7861662,10.5076064 C74.7847816,8.73693859 76.2199433,7.29230068 77.9881068,7.28883964 C79.7694242,7.28468639 81.2177398,8.73070872 81.2149705,10.5117597 M83.9184468,6.19238231 C83.1292118,6.17992257 82.4853621,5.52232505 82.487439,4.73320803 C82.4915929,3.93647672 83.1333656,3.2954922 83.9295238,3.29410778 C84.7229128,3.29341557 85.3729933,3.93509231 85.3799164,4.72767037 C85.3882241,5.52232505 84.7076819,6.20484205 83.9184468,6.19238231 M77.9714913,15.913058 C75.0000905,15.9012905 72.5700772,13.4397991 72.5887696,10.4591519 C72.6067697,7.50203968 75.0610139,5.08000419 78.0275685,5.09177173 C80.9996617,5.10284706 83.4338288,7.56849164 83.4116749,10.5442935 C83.3895209,13.5014057 80.9345844,15.9255178 77.9714913,15.913058 M82.1475141,1.50959578 C79.3803451,1.49713604 76.6131762,1.493675 73.8446226,1.51859449 C73.3267736,1.52343994 72.7881553,1.61411918 72.2966142,1.77886466 C70.2965263,2.44961413 69.0115962,4.26596769 69.0053654,6.37858624 C68.99775,9.1051932 68.9991346,11.8318002 69.0039808,14.5584071 C69.0081347,17.3687713 71.140454,19.4938495 73.9602386,19.4973106 C76.6464071,19.5014638 79.3325757,19.5000794 82.0187442,19.4980028 C84.874529,19.495234 86.9936944,17.3750011 86.997156,14.5196435 C86.9992329,13.1816056 86.997156,11.8435677 86.997156,10.5055298 C86.997156,9.12734386 87.0047714,7.7491579 86.995079,6.37027974 C86.9777712,3.66374681 84.8482212,1.52136332 82.1475141,1.50959578" id="Fill-1"></path>
        </g>
    </g>
</svg>