<?xml version="1.0" encoding="UTF-8"?>
<svg width="177px" height="27px" viewBox="0 0 177 27" version="1.1" xmlns="http://www.w3.org/2000/svg" xmlns:xlink="http://www.w3.org/1999/xlink">
    <!-- Generator: Sketch 50.2 (55047) - http://www.bohemiancoding.com/sketch -->
    <title>Fill-1-Copy-2</title>
    <desc>Created with Sketch.</desc>
    <defs></defs>
    <g id="Page-1" stroke="none" stroke-width="1" fill="none" fill-rule="evenodd">
        <g id="logo-b" fill="#FFFFFF" fill-rule="nonzero">
            <path d="M105.499539,17.4433652 L102.615018,18.1177936 L102.615018,18.4607234 L103.576525,18.940825 L103.576525,26.0280392 L102.615018,26.3823999 L102.615018,26.7713802 L106.358027,26.7713802 L106.358027,26.290952 L105.545652,26.1766421 L105.545652,17.5008467 L105.499539,17.4433652 Z M99.562398,21.0271441 C99.657567,21.0539252 99.745542,21.1107536 99.825668,21.1986089 C99.905793,21.2864643 99.97251,21.408286 100.025818,21.5644006 C100.079126,21.7208419 100.105944,21.9282327 100.105944,22.1872263 C100.105944,22.3322366 100.094497,22.4730011 100.071604,22.610173 L98.229043,22.7587759 C98.244087,22.5455062 98.27254,22.3341962 98.314728,22.1245192 C98.35659,21.9148421 98.421344,21.7263941 98.509319,21.5588484 C98.596966,21.3909762 98.705545,21.2538043 98.835708,21.1470062 C98.965217,21.0405347 99.121871,20.9872989 99.304688,20.9872989 C99.381216,20.9872989 99.466901,21.0006895 99.562398,21.0271441 Z M101.765687,25.3193178 C101.674115,25.3957421 101.563575,25.4737994 101.433739,25.5538164 C101.303903,25.6338333 101.162947,25.7082981 101.010218,25.776884 C100.857489,25.8454699 100.691678,25.9006653 100.512458,25.9421435 C100.332911,25.9842748 100.15173,26.0051772 99.968585,26.0051772 C99.678498,26.0051772 99.423077,25.9408371 99.201669,25.8108504 C98.980261,25.6815169 98.795482,25.5005806 98.646677,25.2680416 C98.497872,25.0355026 98.385042,24.7611588 98.308841,24.4446837 C98.23264,24.1288617 98.194703,23.7839724 98.194703,23.4106689 L101.937385,23.4106689 L101.971725,23.3760494 C101.987096,23.2924398 101.99658,23.2124229 102.000504,23.1363251 C102.004102,23.0599008 102.006064,22.9759647 102.006064,22.8845168 C102.006064,22.5340752 101.960278,22.2045361 101.868706,21.8958994 C101.777134,21.5872626 101.639776,21.3165114 101.456632,21.0839724 C101.273488,20.8520866 101.040633,20.6688642 100.758395,20.5356115 C100.476156,20.4023588 100.147805,20.3354058 99.773995,20.3354058 C99.21704,20.3354058 98.720916,20.430773 98.285948,20.6211806 C97.850981,20.8115882 97.48273,21.0709084 97.181524,21.398488 C96.87999,21.7263941 96.65106,22.1036168 96.494733,22.530156 C96.338079,22.9573485 96.260243,23.4106689 96.260243,23.8904439 C96.260243,24.3173098 96.328595,24.7190275 96.465953,25.0965768 C96.603311,25.4737994 96.805751,25.8036652 97.072618,26.0851941 C97.339813,26.3673763 97.667837,26.5901173 98.057018,26.7540704 C98.4462,26.9180235 98.892613,27 99.39626,27 C99.946019,27 100.451301,26.8814443 100.913086,26.6456393 C101.374544,26.4091811 101.765687,26.1273255 102.08619,25.7994194 L101.765687,25.3193178 Z M95.580321,21.5127979 L95.717679,20.6443692 L93.794665,20.6443692 L93.794665,19.1240474 L93.414641,19.1240474 L91.677061,20.6211806 L90.864358,21.1012822 L90.864358,21.5127979 L91.825865,21.5127979 L91.825865,24.553768 C91.825865,24.8963711 91.837312,25.2148059 91.860205,25.5077658 C91.883098,25.8017056 91.950469,26.0528608 92.061663,26.2625378 C92.172858,26.4722148 92.343575,26.6378009 92.57414,26.7596226 C92.804705,26.8814443 93.126843,26.9425184 93.541534,26.9425184 C93.778967,26.9425184 94.008224,26.9098585 94.229632,26.8455183 C94.450713,26.780525 94.65904,26.7008346 94.853304,26.6054675 C95.047894,26.510427 95.223516,26.4111407 95.38017,26.3082618 C95.53617,26.2053828 95.664044,26.1158945 95.763465,26.0394702 L95.591767,25.5936615 C95.423667,25.6851095 95.271265,25.7536954 95.133907,25.7994194 C94.996548,25.8454699 94.839895,25.8680053 94.6646,25.8680053 C94.458563,25.8680053 94.296349,25.8222814 94.17796,25.7308334 C94.059897,25.6397121 93.971922,25.5195234 93.915017,25.3705939 C93.857457,25.221991 93.823118,25.054772 93.811671,24.8676303 C93.800552,24.6811419 93.794665,24.4887746 93.794665,24.2905286 L93.794665,21.5127979 L95.580321,21.5127979 Z M86.239968,25.5783114 C86.030007,25.1256441 85.925353,24.3937341 85.925353,23.3825813 C85.925353,23.055655 85.946284,22.7476715 85.988145,22.4586307 C86.030007,22.1695899 86.097051,21.9207209 86.188623,21.7113705 C86.280195,21.5026733 86.39466,21.3370872 86.532018,21.2152655 C86.669376,21.0937704 86.833225,21.0326963 87.024218,21.0326963 C87.291085,21.0326963 87.508569,21.1052014 87.676669,21.2495585 C87.844442,21.3942422 87.974278,21.5957542 88.06585,21.8540946 C88.157422,22.1127616 88.220215,22.4243377 88.254881,22.7894762 C88.288894,23.1542881 88.306227,23.5537196 88.306227,23.9867909 C88.306227,24.2911818 88.288894,24.5802226 88.254881,24.8535865 C88.220215,25.1276037 88.16102,25.3692875 88.077297,25.5779848 C87.993247,25.7873352 87.880744,25.9525947 87.739461,26.0744164 C87.598179,26.1962381 87.420921,26.256659 87.207362,26.256659 C86.772395,26.256659 86.44993,26.030652 86.239968,25.5783114 Z M88.403359,26.7308818 C88.842251,26.5522318 89.206577,26.3066288 89.496664,25.9940728 C89.786424,25.6815169 90.001946,25.3157252 90.143228,24.8963711 C90.284511,24.4773437 90.355152,24.0276158 90.355152,23.5475142 C90.355152,23.1284868 90.292033,22.7244829 90.166121,22.3358292 C90.04021,21.9471755 89.853141,21.6042458 89.605242,21.30704 C89.357344,21.0098343 89.048288,20.7737027 88.678075,20.5983186 C88.307862,20.4232612 87.874857,20.3354058 87.37906,20.3354058 C86.875413,20.3354058 86.409704,20.4098706 85.982585,20.5584734 C85.55514,20.7070763 85.186889,20.9262247 84.877834,21.2159187 C84.568778,21.5056127 84.326439,21.8612798 84.151144,22.284553 C83.975522,22.7074997 83.887874,23.1931535 83.887874,23.7418411 C83.887874,24.1229829 83.945107,24.5077174 84.059572,24.8963711 C84.174037,25.2853514 84.351294,25.6357929 84.591671,25.9480223 C84.832048,26.2605782 85.139141,26.513693 85.513279,26.7083464 C85.887089,26.9026733 86.333503,27 86.85252,27 C87.447739,27 87.964467,26.9098585 88.403359,26.7308818 Z M82.198369,19.7638563 L83.262895,19.5466675 L83.262895,18.9983065 L79.279509,18.9983065 L79.279509,19.5123745 L80.126551,19.8324422 L80.126551,22.2558123 L77.093226,22.2558123 L77.093226,19.7638563 L77.940268,19.5466675 L77.940268,18.9983065 L73.945436,18.9983065 L73.945436,19.5123745 L75.009961,19.8324422 L75.009961,25.9708842 L73.945436,26.233797 L73.945436,26.7713802 L77.940268,26.7713802 L77.940268,26.222366 L77.093226,26.0626588 L77.093226,23.0677392 L80.126551,23.0677392 L80.126551,25.9708842 L79.279509,26.233797 L79.279509,26.7713802 L83.262895,26.7713802 L83.262895,26.222366 L82.198369,26.0626588 L82.198369,19.7638563 Z M176.395624,5.0583767 L177,4.6847466 L177,4.0524495 L174.352259,4.0524495 L174.352259,4.699117 L175.316382,5.144599 L173.647154,9.8149752 L173.589594,9.8149752 L171.877196,5.0583767 L172.841319,4.6847466 L172.841319,4.0524495 L168.596626,4.0524495 L168.596626,4.699117 L169.388071,5.144599 L172.093045,11.9417927 L172.639861,11.9417927 L172.380843,12.5166082 C172.208491,12.8997097 172.032869,13.1943026 171.855611,13.4003871 C171.678027,13.6061449 171.522354,13.7524616 171.38794,13.8386839 L169.531643,12.6746825 L169.502863,12.6746825 C169.29192,12.8278577 169.118914,13.021858 168.984827,13.2566832 C168.850412,13.4915084 168.783368,13.766832 168.783368,14.0829805 C168.783368,14.3031087 168.824248,14.4948228 168.905682,14.6577961 C168.987116,14.8207693 169.097657,14.9546752 169.236977,15.0601669 C169.375643,15.165332 169.536548,15.242083 169.718711,15.2900931 C169.900875,15.3381033 170.097427,15.3619451 170.308697,15.3619451 C170.826734,15.3619451 171.28721,15.2133422 171.690455,14.916463 C172.093045,14.6192573 172.445597,14.2528124 172.747785,13.8171283 C173.049973,13.3811177 173.308991,12.9189791 173.52484,12.4303859 C173.740688,11.9417927 173.920562,11.510681 174.064461,11.1370509 L176.395624,5.0583767 Z M165.124082,10.36105 C164.893844,10.4858111 164.682901,10.5743196 164.491254,10.6269021 C164.29928,10.6798113 164.136085,10.7059393 164.001997,10.7059393 C163.905847,10.7059393 163.802501,10.6892827 163.692615,10.6556429 C163.582074,10.6223297 163.481345,10.5671344 163.390427,10.4903835 C163.298855,10.4136325 163.222327,10.3107536 163.160188,10.1814201 C163.097396,10.0520866 163.066327,9.8917261 163.066327,9.7000121 C163.066327,9.2594291 163.246201,8.9050683 163.606275,8.6366034 C163.965696,8.368465 164.471631,8.1385388 165.124082,7.9468247 L165.124082,10.36105 Z M164.483732,5.0296359 C164.671128,5.1253296 164.81241,5.2595621 164.908234,5.4320068 C165.004058,5.6044514 165.064233,5.8082497 165.088435,6.0427483 C165.111982,6.2775735 165.124082,6.5385267 165.124082,6.8259344 L165.124082,7.1277126 C164.721492,7.2619451 164.261016,7.4200194 163.742979,7.6019354 C163.224943,7.7841781 162.735686,7.9899359 162.27521,8.2198621 C161.728393,8.4785291 161.325149,8.7541793 161.066131,9.0461594 C160.807113,9.3384662 160.677931,9.7287529 160.677931,10.2173461 C160.677931,10.5142252 160.73549,10.7777912 160.85061,11.0077174 C160.966056,11.2376436 161.11715,11.4339301 161.304873,11.5969034 C161.492268,11.7598766 161.71106,11.8843111 161.961248,11.9705334 C162.210782,12.0567558 162.470454,12.0998669 162.739611,12.0998669 C162.951208,12.0998669 163.167383,12.0662272 163.388791,11.9992742 C163.609873,11.9319947 163.830627,11.8483851 164.052035,11.7477924 C164.273116,11.6471997 164.486675,11.5322366 164.693694,11.4029031 C164.900385,11.2735696 165.09007,11.1419499 165.263076,11.0077174 C165.359553,11.3143946 165.527654,11.5753478 165.76803,11.7909036 C166.008407,12.0064594 166.377966,12.1142373 166.878342,12.1142373 C167.051348,12.1142373 167.236454,12.0832104 167.433334,12.0208298 C167.630541,11.9584493 167.82971,11.8794121 168.031169,11.7837184 C168.2323,11.6880247 168.426891,11.5851458 168.613633,11.4747551 C168.801028,11.3646909 168.971091,11.256913 169.124801,11.1514213 L168.937732,10.5622354 C168.755242,10.6389863 168.584853,10.7013669 168.426891,10.7490504 C168.268602,10.7970606 168.131898,10.8209024 168.016452,10.8209024 C167.824478,10.8209024 167.707396,10.7301077 167.664226,10.547865 C167.62073,10.365949 167.599472,10.1167534 167.599472,9.8006048 L167.599472,6.7971937 C167.599472,6.4523043 167.584755,6.1028426 167.555975,5.7481553 C167.526868,5.3937946 167.43268,5.0704609 167.273737,4.7781541 C167.11414,4.4858473 166.867876,4.2464497 166.535601,4.0596347 C166.202671,3.8728196 165.732383,3.7699407 165.124082,3.7506713 L164.865064,3.7506713 C164.779052,3.7506713 164.682901,3.7555703 164.577593,3.7650417 C164.366323,3.7843111 164.12889,3.8319947 163.865293,3.9087456 C163.601042,3.9854966 163.327634,4.0811903 163.045069,4.1961534 C162.76185,4.3111165 162.485825,4.44045 162.21765,4.5841539 C161.948821,4.7278577 161.711387,4.8764606 161.50535,5.0296359 C161.298659,5.1831378 161.130886,5.341212 161.001704,5.5038587 C160.871867,5.666832 160.807113,5.8200073 160.807113,5.9637111 C160.807113,6.1936374 160.881679,6.3804524 161.030483,6.5241563 C161.178961,6.6678602 161.440595,6.7397121 161.814406,6.7397121 C162.03516,6.7397121 162.238908,6.7302407 162.425976,6.7109713 C162.613372,6.6917019 162.80273,6.6534898 162.994704,6.5960082 L162.994704,5.0583767 C163.157572,4.9434136 163.4022,4.885932 163.728589,4.885932 C164.045167,4.885932 164.296663,4.9339422 164.483732,5.0296359 Z M153.52746,2.9028184 C154.103383,2.9028184 154.592312,3.0298657 154.995556,3.2836337 C155.398473,3.5377283 155.726825,3.8705334 155.980937,4.2823757 C156.235377,4.6945446 156.422446,5.1638684 156.54247,5.6906738 C156.662168,6.2178057 156.722344,6.7589815 156.722344,7.3145276 C156.722344,7.7743801 156.676558,8.2198621 156.58564,8.6509738 C156.494395,9.0820854 156.333817,9.4677997 156.103251,9.80779 C155.873013,10.1477803 155.563957,10.4185315 155.17543,10.6197169 C154.786903,10.8209024 154.299936,10.9214951 153.714855,10.9214951 L152.793575,10.9214951 L152.793575,2.9028184 L153.52746,2.9028184 Z M148.83668,2.0549655 L148.83668,2.701633 L150.17494,3.1040039 L150.17494,10.8209024 L148.83668,11.1514213 L148.83668,11.8268296 L153.484617,11.8268296 C154.501394,11.8268296 155.391278,11.6952099 156.153943,11.4316439 C156.916608,11.1680779 157.551725,10.801633 158.060605,10.3323092 C158.569157,9.8629854 158.952451,9.3025402 159.211469,8.6509738 C159.470488,7.9997339 159.600324,7.2857869 159.600324,6.5097859 C159.600324,5.8392766 159.482588,5.2285351 159.247771,4.6775614 C159.012627,4.1265876 158.657785,3.6572638 158.182919,3.2692633 C157.708052,2.8812629 157.112834,2.5817709 156.398571,2.3711141 C155.683655,2.1604572 154.841846,2.0549655 153.873144,2.0549655 L148.83668,2.0549655 Z M138.87887,9.139567 L138.030193,9.139567 L138.173765,11.582533 C138.538091,11.7262368 138.976983,11.8506713 139.490768,11.9561631 C140.003572,12.0613282 140.571973,12.1142373 141.195644,12.1142373 C141.589077,12.1142373 141.987088,12.0685134 142.390005,11.977392 C142.792923,11.8862707 143.157249,11.7402806 143.483965,11.538442 C143.810027,11.33693 144.075913,11.0779364 144.282277,10.760808 C144.488641,10.4443329 144.59166,10.0651506 144.59166,9.6232612 C144.59166,9.2205637 144.488641,8.8675094 144.282277,8.5654046 C144.075913,8.2632999 143.816895,7.9945083 143.505223,7.7590299 C143.19355,7.5238781 142.855388,7.3128946 142.490735,7.125753 C142.126082,6.9382847 141.787919,6.7560421 141.476247,6.5783718 C141.164575,6.4010282 140.905557,6.2210717 140.699192,6.0388291 C140.492828,5.8562598 140.390137,5.6449498 140.390137,5.404899 C140.390137,5.0978952 140.524224,4.8627434 140.792727,4.6994436 C141.061229,4.5364703 141.372901,4.4548204 141.72807,4.4548204 C141.919717,4.4548204 142.107113,4.4930325 142.289276,4.5697835 L143.310959,6.3804524 L143.900945,6.3804524 L144.347032,4.2150962 C144.222101,4.158921 144.064139,4.1027459 143.872165,4.0462441 C143.680191,3.9900689 143.471537,3.9384662 143.246204,3.8911092 C143.020872,3.8444055 142.788344,3.8068465 142.548294,3.7784323 C142.308572,3.7503447 142.073428,3.736301 141.843189,3.736301 C141.210034,3.736301 140.663545,3.8081529 140.202741,3.9518568 C139.742264,4.0955607 139.363221,4.2823757 139.066266,4.5123019 C138.768657,4.7422281 138.54823,4.9959961 138.404004,5.2739325 C138.260105,5.5518689 138.188155,5.8249063 138.188155,6.0930446 C138.188155,6.4572033 138.291501,6.7756381 138.497538,7.0486755 C138.703575,7.3217128 138.962593,7.5682956 139.274592,7.7887505 C139.586592,8.0092053 139.922138,8.2126769 140.281885,8.399492 C140.641633,8.586307 140.977179,8.7708359 141.289505,8.9527519 C141.60085,9.134668 141.859868,9.326382 142.06656,9.5275674 C142.27227,9.7287529 142.375616,9.9541067 142.375616,10.2029757 C142.375616,10.4809121 142.248396,10.7274949 141.994283,10.9430507 C141.740171,11.1586065 141.363417,11.2663844 140.865003,11.2663844 C140.759041,11.2663844 140.639016,11.256913 140.504929,11.2376436 C140.370514,11.2187009 140.250816,11.1850611 140.145508,11.1370509 L138.87887,9.139567 Z M131.142992,9.139567 L130.293988,9.139567 L130.437887,11.582533 C130.802213,11.7262368 131.241105,11.8506713 131.754562,11.9561631 C132.267693,12.0613282 132.836094,12.1142373 133.459765,12.1142373 C133.852871,12.1142373 134.25121,12.0685134 134.654127,11.977392 C135.057044,11.8862707 135.42137,11.7402806 135.747759,11.538442 C136.073821,11.33693 136.340034,11.0779364 136.546399,10.760808 C136.752763,10.4443329 136.855781,10.0651506 136.855781,9.6232612 C136.855781,9.2205637 136.752763,8.8675094 136.546399,8.5654046 C136.340034,8.2632999 136.081016,7.9945083 135.769344,7.7590299 C135.457672,7.5238781 135.119182,7.3128946 134.754856,7.125753 C134.390203,6.9382847 134.052041,6.7560421 133.740368,6.5783718 C133.428369,6.4010282 133.169351,6.2210717 132.963314,6.0388291 C132.75695,5.8562598 132.653931,5.6449498 132.653931,5.404899 C132.653931,5.0978952 132.788019,4.8627434 133.056848,4.6994436 C133.325351,4.5364703 133.637023,4.4548204 133.992192,4.4548204 C134.183839,4.4548204 134.370908,4.4930325 134.553398,4.5697835 L135.57508,6.3804524 L136.165066,6.3804524 L136.611153,4.2150962 C136.486223,4.158921 136.328261,4.1027459 136.136286,4.0462441 C135.944312,3.9900689 135.735659,3.9384662 135.510326,3.8911092 C135.284666,3.8444055 135.052138,3.8068465 134.812416,3.7784323 C134.572366,3.7503447 134.337549,3.736301 134.107311,3.736301 C133.474155,3.736301 132.927339,3.8081529 132.466862,3.9518568 C132.006386,4.0955607 131.627343,4.2823757 131.33006,4.5123019 C131.032451,4.7422281 130.812024,4.9959961 130.668125,5.2739325 C130.524226,5.5518689 130.452277,5.8249063 130.452277,6.0930446 C130.452277,6.4572033 130.555295,6.7756381 130.761659,7.0486755 C130.967697,7.3217128 131.226715,7.5682956 131.538714,7.7887505 C131.850386,8.0092053 132.186259,8.2126769 132.546007,8.399492 C132.905754,8.586307 133.241301,8.7708359 133.5533,8.9527519 C133.864645,9.134668 134.123663,9.326382 134.330354,9.5275674 C134.536391,9.7287529 134.639737,9.9541067 134.639737,10.2029757 C134.639737,10.4809121 134.512517,10.7274949 134.258405,10.9430507 C134.003965,11.1586065 133.627539,11.2663844 133.128798,11.2663844 C133.023163,11.2663844 132.903138,11.256913 132.76905,11.2376436 C132.634636,11.2187009 132.514611,11.1850611 132.409303,11.1370509 L131.142992,9.139567 Z M126.050276,4.6057094 C126.169974,4.6393492 126.280514,4.7112012 126.381244,4.8212653 C126.481973,4.931656 126.565696,5.0848313 126.633067,5.2811177 C126.700111,5.4777307 126.733796,5.7386839 126.733796,6.0643039 C126.733796,6.2465465 126.719406,6.4235636 126.690626,6.5960082 L124.373853,6.7828233 C124.393148,6.5146849 124.429123,6.2488327 124.481777,5.9852667 C124.534431,5.7220273 124.615865,5.4849159 124.726405,5.2739325 C124.836619,5.0632757 124.973323,4.890831 125.136517,4.7565985 C125.299712,4.622366 125.496592,4.5554131 125.726503,4.5554131 C125.822327,4.5554131 125.930251,4.5723963 126.050276,4.6057094 Z M128.820331,10.0017903 C128.705212,10.0978106 128.565892,10.1957905 128.403024,10.2963832 C128.23983,10.3969759 128.062245,10.4903835 127.870598,10.5766058 C127.678624,10.6628281 127.46997,10.7323939 127.244638,10.7849764 C127.019305,10.8378856 126.791356,10.8640135 126.561117,10.8640135 C126.196464,10.8640135 125.875308,10.7826902 125.596994,10.6197169 C125.31868,10.4570703 125.086153,10.2294303 124.899084,9.9371235 C124.712015,9.6448167 124.570406,9.300254 124.474909,8.9024555 C124.378758,8.5049837 124.330683,8.0712592 124.330683,7.6019354 L129.03618,7.6019354 L129.07935,7.5588242 C129.098318,7.4533325 129.110419,7.3530664 129.115324,7.2570461 C129.12023,7.1613524 129.122519,7.0558607 129.122519,6.9408975 C129.122519,6.5003145 129.06496,6.0858594 128.94984,5.697859 C128.835048,5.3098585 128.662042,4.9698682 128.431804,4.6775614 C128.201566,4.3852546 127.908862,4.155655 127.554347,3.9877828 C127.199179,3.8202371 126.78645,3.736301 126.316489,3.736301 C125.61629,3.736301 124.992618,3.8561631 124.445802,4.0955607 C123.898986,4.3352849 123.43622,4.6609048 123.057504,5.0727471 C122.678134,5.4849159 122.390009,5.9591387 122.193783,6.4954155 C121.996903,7.0320189 121.899117,7.6019354 121.899117,8.2054917 C121.899117,8.7420951 121.98513,9.2473449 122.158136,9.7215677 C122.330487,10.1957905 122.5846,10.6102456 122.920473,10.9646063 C123.256346,11.3192936 123.668748,11.5995161 124.158004,11.805274 C124.647261,12.0110318 125.208467,12.1142373 125.841622,12.1142373 C126.532665,12.1142373 127.167782,11.9656345 127.748284,11.6687553 C128.328786,11.3718761 128.820331,11.0171888 129.223249,10.6053466 L128.820331,10.0017903 Z M121.353609,11.8268296 L121.353609,11.2232733 L120.274367,11.0795694 L120.274367,7.6019354 C120.274367,7.0846014 120.259977,6.5914358 120.231197,6.1217854 C120.202418,5.6524616 120.113789,5.2402927 119.964657,4.885932 C119.815853,4.5315713 119.576457,4.2513487 119.245162,4.0452643 C118.914522,3.8391799 118.44685,3.736301 117.842474,3.736301 C117.554349,3.736301 117.276363,3.7820249 117.007533,3.8728196 C116.739031,3.963941 116.489497,4.0740051 116.259258,4.2033386 C116.02902,4.3326721 115.820694,4.4740898 115.633298,4.627265 C115.446556,4.7807669 115.29023,4.9195718 115.165953,5.0440063 L115.137173,5.0440063 L115.324242,3.8368937 L115.223186,3.736301 L111.669208,4.4691908 L111.669208,4.9721543 L112.863569,5.5038587 L112.863569,10.8927543 L111.669208,11.3382364 L111.669208,11.8268296 L116.202026,11.8268296 L116.202026,11.2232733 L115.338632,11.0795694 L115.338632,5.6906738 C115.47272,5.5855086 115.65521,5.4917745 115.885448,5.4104512 C116.115686,5.3291279 116.340692,5.2883029 116.561773,5.2883029 C116.858728,5.2883029 117.091583,5.3434982 117.259683,5.4535624 C117.427456,5.5639531 117.552387,5.7099431 117.633821,5.8918592 C117.715254,6.0741019 117.76333,6.2798597 117.77772,6.5097859 C117.79211,6.7397121 117.798977,6.9745373 117.798977,7.2139349 L117.798977,10.8927543 L117.223709,11.3382364 L117.223709,11.8268296 L121.353609,11.8268296 Z M106.610178,4.7781541 C106.820793,4.8594774 107.012441,4.962683 107.185446,5.0871175 L107.185446,10.2173461 C107.041874,10.3421072 106.866252,10.4449861 106.660542,10.5263094 C106.453524,10.6079594 106.273977,10.6484577 106.120594,10.6484577 C105.89984,10.6484577 105.683664,10.58869 105.473049,10.4688279 C105.261452,10.3492924 105.072421,10.1621507 104.904648,9.9083827 C104.736547,9.6546147 104.599843,9.3289948 104.494535,8.9311963 C104.3889,8.5337244 104.335919,8.0568888 104.335919,7.5013427 C104.335919,6.9650659 104.381378,6.5146849 104.472624,6.1505262 C104.564196,5.7863675 104.683566,5.4943873 104.832371,5.2739325 C104.981176,5.0538043 105.153527,4.8954034 105.350407,4.7997097 C105.547287,4.704016 105.746457,4.6560058 105.947588,4.6560058 C106.178154,4.6560058 106.398581,4.6968308 106.610178,4.7781541 Z M107.185446,3.9087456 C106.820793,3.7937825 106.475109,3.736301 106.149374,3.736301 C105.631337,3.736301 105.11788,3.8274223 104.609328,4.0093383 C104.101103,4.191581 103.645531,4.471477 103.242614,4.850006 C102.839697,5.2285351 102.515924,5.7050442 102.271296,6.2798597 C102.026668,6.8546752 101.904354,7.5300835 101.904354,8.3060844 C101.904354,8.8521592 101.966492,9.357409 102.091749,9.8221604 C102.21668,10.2869118 102.396881,10.6915689 102.632352,11.0364582 C102.867823,11.3813475 103.158564,11.6520987 103.504249,11.8483851 C103.850587,12.0446716 104.249253,12.1429781 104.701554,12.1429781 C104.970383,12.1429781 105.232345,12.1047659 105.486457,12.028015 C105.741224,11.9512641 105.979638,11.8483851 106.200719,11.7190517 C106.421474,11.5897182 106.633071,11.4411153 106.834856,11.2735696 C107.036642,11.106024 107.22371,10.9358655 107.397043,10.7634208 L107.44054,10.7777912 L107.324767,12.0136446 L107.41176,12.0998669 L110.86926,11.4963106 L110.811701,10.7490504 L109.660836,10.8496432 L109.660836,0.1724447 L109.587905,0.1005927 L105.976368,0.9484456 L105.976368,1.3795573 L107.185446,1.9831136 L107.185446,3.9087456 Z M101.291148,11.8268296 L101.291148,11.2232733 L100.212233,11.0795694 L100.212233,7.6019354 C100.212233,7.0846014 100.197843,6.5914358 100.169063,6.1217854 C100.139956,5.6524616 100.051327,5.2402927 99.90285,4.885932 C99.753718,4.5315713 99.514322,4.2513487 99.183355,4.0452643 C98.85206,3.8391799 98.384715,3.736301 97.780013,3.736301 C97.492542,3.736301 97.214228,3.7820249 96.945726,3.8728196 C96.676896,3.963941 96.427689,4.0740051 96.197451,4.2033386 C95.967213,4.3326721 95.758232,4.4740898 95.57149,4.627265 C95.384095,4.7807669 95.228095,4.9195718 95.103492,5.0440063 L95.075039,5.0440063 L95.26178,3.8368937 L95.161378,3.736301 L91.607073,4.4691908 L91.607073,4.9721543 L92.801108,5.5038587 L92.801108,10.8927543 L91.607073,11.3382364 L91.607073,11.8268296 L96.139564,11.8268296 L96.139564,11.2232733 L95.276497,11.0795694 L95.276497,5.6906738 C95.410585,5.5855086 95.592748,5.4917745 95.823314,5.4104512 C96.053552,5.3291279 96.278558,5.2883029 96.499312,5.2883029 C96.796594,5.2883029 97.029449,5.3434982 97.197549,5.4535624 C97.364995,5.5639531 97.489925,5.7099431 97.571359,5.8918592 C97.652793,6.0741019 97.700868,6.2798597 97.715585,6.5097859 C97.729975,6.7397121 97.73717,6.9745373 97.73717,7.2139349 L97.73717,10.8927543 L97.161247,11.3382364 L97.161247,11.8268296 L101.291148,11.8268296 Z M87.442833,2.1411879 C87.716241,2.3711141 88.049171,2.4860772 88.442604,2.4860772 C88.826226,2.4860772 89.15981,2.3711141 89.442702,2.1411879 C89.725594,1.9112616 89.867204,1.6143825 89.867204,1.2502238 C89.867204,1.0683077 89.82894,0.9004355 89.752412,0.7472602 C89.67523,0.5940849 89.572211,0.4624652 89.442702,0.3520745 C89.313193,0.2420104 89.162099,0.1557881 88.989747,0.0934075 C88.816741,0.0313536 88.634578,0 88.442604,0 C88.25063,0 88.068467,0.0313536 87.895788,0.0934075 C87.723436,0.1557881 87.572342,0.2420104 87.442833,0.3520745 C87.313324,0.4624652 87.212268,0.5940849 87.140318,0.7472602 C87.068696,0.9004355 87.032394,1.0683077 87.032394,1.2502238 C87.032394,1.6143825 87.169098,1.9112616 87.442833,2.1411879 Z M87.147513,10.8927543 L85.953152,11.3382364 L85.953152,11.8268296 L90.774094,11.8268296 L90.774094,11.2232733 L89.622903,11.0795694 L89.622903,3.664449 L89.550626,3.6069675 L85.953152,4.3398573 L85.953152,4.8428209 L87.147513,5.3745252 L87.147513,10.8927543 Z M81.870999,3.1040039 L78.014506,6.811564 L78.014506,6.8690456 L81.410522,11.8268296 L85.310185,11.8268296 L85.310185,11.1370509 L84.173383,10.9358655 L80.518349,5.7912665 L83.540227,3.0177815 L84.475571,2.7447442 L84.475571,2.0549655 L80.561518,2.0549655 L80.561518,2.701633 L81.870999,3.1040039 Z M77.712318,3.0177815 L79.036189,2.7447442 L79.036189,2.0549655 L73.755096,2.0549655 L73.755096,2.701633 L75.093357,3.1040039 L75.093357,10.8209024 L73.755096,11.1514213 L73.755096,11.8268296 L78.89229,11.8268296 L78.89229,11.1370509 L77.712318,10.9358655 L77.712318,3.0177815 Z M37.77381,12.054143 L37.77381,12.4163421 C47.583142,13.1054675 55.139801,14.7374864 59.331186,16.3420709 L59.331186,26.0783356 C58.626408,25.8003992 47.316602,21.1525584 29.6657564,21.1470062 C12.0145839,21.1525584 0.704778,25.8003992 0,26.0783356 L0,16.3420709 C4.1913849,14.7374864 11.7480437,13.1054675 21.5573757,12.4163421 L21.5573757,12.054143 C12.0623322,11.8977017 3.3917644,11.4113947 0,11.1475021 L0,1.7195476 C4.0566431,1.9765816 15.0982737,2.5762187 29.6657564,2.5762187 C44.232912,2.5762187 55.274543,1.9765816 59.331186,1.7195476 L59.331186,11.1475021 C55.939748,11.4113947 47.268853,11.8977017 37.77381,12.054143 Z" id="Fill-1-Copy-2"></path>
        </g>
    </g>
</svg>