<?xml version="1.0" encoding="utf-8"?>
<!-- Generator: Adobe Illustrator 22.0.1, SVG Export Plug-In . SVG Version: 6.00 Build 0)  -->
<svg version="1.1" id="Capa_1" xmlns="http://www.w3.org/2000/svg" xmlns:xlink="http://www.w3.org/1999/xlink" x="0px" y="0px"
	 viewBox="0 0 430.1 430.1" style="enable-background:new 0 0 430.1 430.1;" xml:space="preserve">
<style type="text/css">
	.st0{fill:#898989;}
</style>
<g>
	<path id="Facebook_Places" class="st0" d="M272.2,171.3c-0.6-2.3-1.9-4.8-2.8-7c-11.1-26.8-35.5-36.4-55.2-36.4
		c-26.3,0-55.3,17.7-59.2,54v7.4c0,0.3,0.1,3.1,0.3,4.5c2.2,17.3,15.9,35.8,26.1,53.1c11,18.6,22.4,36.9,33.7,55.1
		c7-11.9,13.9-24,20.7-35.6c1.9-3.4,4-6.8,5.9-10.1c1.2-2.2,3.6-4.3,4.7-6.3c11-20.1,28.7-40.4,28.7-60.4v-8.2
		C275.1,179.4,272.4,171.8,272.2,171.3z M214.7,208.6c-7.7,0-16.2-3.9-20.4-14.6c-0.6-1.7-0.6-5.1-0.6-5.4v-4.8
		c0-13.6,11.6-19.8,21.6-19.8c12.4,0,22,9.9,22,22.3C237.4,198.7,227.1,208.6,214.7,208.6z"/>
</g>
</svg>
