<?xml version="1.0" encoding="UTF-8"?>
<svg width="98px" height="78px" viewBox="0 0 98 78" version="1.1" xmlns="http://www.w3.org/2000/svg" xmlns:xlink="http://www.w3.org/1999/xlink">
    <!-- Generator: Sketch 50.2 (55047) - http://www.bohemiancoding.com/sketch -->
    <title>Fill 1</title>
    <desc>Created with Sketch.</desc>
    <defs></defs>
    <g id="TW-Desktop" stroke="none" stroke-width="1" fill="none" fill-rule="evenodd">
        <g id="5-facility" transform="translate(-1214.000000, -771.000000)" fill="#0C2340">
            <path d="M1219.79752,849 L1217.44723,830.505347 L1293.40721,830.505347 L1290.86803,849 L1219.79752,849 Z M1296.9538,827.41356 L1214.04722,827.41356 L1214,820.253166 L1223.60481,820.253166 L1223.20441,808.118171 L1233.38179,802.920269 L1243.55819,808.118171 L1243.15681,820.253166 L1248.45062,820.253166 L1250.69171,808.118171 L1256.93292,804.152853 L1263.17413,808.118171 L1265.36997,820.253166 L1296.95183,820.253166 L1296.9538,827.41356 Z M1227.25175,796.5311 C1227.25175,793.002548 1229.99556,790.141931 1233.38081,790.141931 L1233.38081,790.140947 L1239.51085,790.140947 L1239.51085,796.5311 C1239.51085,800.060637 1236.76704,802.920269 1233.38179,802.920269 C1229.99655,802.920269 1227.25175,800.059653 1227.25175,796.5311 Z M1256.93292,804.152853 L1250.80288,804.152853 L1250.80288,797.7627 C1250.80386,794.234147 1253.54767,791.374514 1256.93292,791.374514 C1260.31817,791.374514 1263.06198,794.234147 1263.06198,797.7627 L1263.06296,797.7627 L1263.06296,804.152853 L1256.93292,804.152853 Z M1293.2862,801.065 L1287.47688,804.46272 L1283.78666,803.021591 L1282.77728,802.627125 L1285.24071,796.325506 L1286.2491,796.719972 L1288.84731,797.735156 L1292.74315,787.76333 L1289.15524,786.360566 L1289.54187,785.371942 L1291.49373,780.3757 L1291.88823,779.366418 L1296.56717,781.195127 L1298.5082,787.69939 L1293.2862,801.065 Z M1291.93742,771 C1280.85789,771 1271.8768,780.361928 1271.87582,791.911618 L1271.87582,812.82717 L1291.93939,812.82717 C1303.01891,812.826187 1312,803.463275 1312,791.913585 C1312,780.362912 1303.01793,771 1291.93742,771 Z" id="Fill-1"></path>
        </g>
    </g>
</svg>