<?xml version="1.0" encoding="UTF-8"?>
<svg width="75px" height="97px" viewBox="0 0 75 97" version="1.1" xmlns="http://www.w3.org/2000/svg" xmlns:xlink="http://www.w3.org/1999/xlink">
    <!-- Generator: Sketch 50.2 (55047) - http://www.bohemiancoding.com/sketch -->
    <title>Fill 1</title>
    <desc>Created with Sketch.</desc>
    <defs></defs>
    <g id="TW-Desktop" stroke="none" stroke-width="1" fill="none" fill-rule="evenodd">
        <g id="5-facility" transform="translate(-595.000000, -1023.000000)" fill="#0C2340">
            <path d="M627.08289,1087.21399 L640.48888,1079.61309 L639.183059,1077.28855 L623.701489,1086.06618 L627.594586,1095.18527 L630.036771,1094.13422 L627.08289,1087.21399 Z M646.631446,1086.64009 C646.631446,1097.928 637.487374,1107.1116 626.24557,1107.1116 C615.004873,1107.1116 605.859693,1097.928 605.859693,1086.64009 C605.859693,1075.35106 615.004873,1066.16858 626.24557,1066.16858 C637.487374,1066.16858 646.631446,1075.35106 646.631446,1086.64009 Z M642.671894,1054.50362 L642.671894,1051.27818 L639.735735,1048.3308 L612.756512,1048.3308 L609.820353,1051.27818 L609.820353,1054.50362 L642.671894,1054.50362 Z M649.290714,1086.64009 C649.290714,1073.87959 638.952685,1063.49814 626.24557,1063.49814 C613.538455,1063.49814 603.201533,1073.87959 603.201533,1086.64009 C603.201533,1099.40058 613.538455,1109.78204 626.24557,1109.78204 C638.952685,1109.78204 649.290714,1099.40058 649.290714,1086.64009 Z M657.492247,1062.95982 L657.492247,1110.19912 L652.16042,1115.55223 L652.16042,1120 L643.162547,1120 L641.48569,1116.00602 L628.23476,1116.00602 L624.953039,1116.00602 L611.006557,1116.00602 L609.329701,1120 L600.331827,1120 L600.331827,1115.55223 L595,1110.19912 L595,1062.95982 L600.783714,1057.15181 L624.953039,1057.15181 L628.23476,1057.15181 L651.708533,1057.15181 L657.492247,1062.95982 Z M656.796695,1043.2335 L648.837719,1043.2335 L661.791822,1023 L661.777423,1036.36443 L670,1036.36443 L656.997165,1057.79245 L655.215089,1056.00289 L656.796695,1043.2335 Z" id="Fill-1"></path>
        </g>
    </g>
</svg>