<?xml version="1.0" encoding="UTF-8"?>
<svg width="110px" height="73px" viewBox="0 0 110 73" version="1.1" xmlns="http://www.w3.org/2000/svg" xmlns:xlink="http://www.w3.org/1999/xlink">
    <!-- Generator: Sketch 50.2 (55047) - http://www.bohemiancoding.com/sketch -->
    <title>Fill 1</title>
    <desc>Created with Sketch.</desc>
    <defs></defs>
    <g id="TW-Desktop" stroke="none" stroke-width="1" fill="none" fill-rule="evenodd">
        <g id="5-facility" transform="translate(-882.000000, -1046.000000)" fill="#0C2340">
            <path d="M949.116584,1069.65666 L931.551877,1069.65666 L931.551877,1079.7945 L954.38906,1079.7945 L949.116584,1069.65666 Z M962.682257,1102.07981 C960.858387,1102.07981 959.375599,1103.56128 959.375599,1105.38126 C959.375599,1107.20124 960.858387,1108.68271 962.682257,1108.68271 C964.506127,1108.68271 965.988915,1107.20124 965.988915,1105.38126 C965.988915,1103.56128 964.506127,1102.07981 962.682257,1102.07981 Z M905.557132,1102.07981 C903.734283,1102.07981 902.250473,1103.56128 902.250473,1105.38126 C902.250473,1107.20124 903.734283,1108.68271 905.557132,1108.68271 C907.381002,1108.68271 908.86379,1107.20124 908.86379,1105.38126 C908.86379,1103.56128 907.381002,1102.07981 905.557132,1102.07981 Z M984.188811,1093.27764 L981.326377,1093.27764 L978.793791,1090.74904 L978.793791,1087.89213 L976.501188,1087.89213 L976.501188,1091.69726 L980.377678,1095.56663 L984.188811,1095.56663 L984.188811,1093.27764 Z M970.122749,1105.38126 C970.122749,1101.28554 966.784433,1097.95248 962.682257,1097.95248 C958.57906,1097.95248 955.241765,1101.28554 955.241765,1105.38126 C955.241765,1109.47698 958.57906,1112.81003 962.682257,1112.81003 C966.784433,1112.81003 970.122749,1109.47698 970.122749,1105.38126 Z M958.423837,1082.24153 L950.604478,1067.20963 L910.894965,1067.20963 L906.411879,1082.24153 L958.423837,1082.24153 Z M935.95633,1089.14318 L941.261484,1089.14318 L941.261484,1086.51364 L935.95633,1086.51364 L935.95633,1089.14318 Z M907.954918,1089.14318 L913.260073,1089.14318 L913.260073,1086.51364 L907.954918,1086.51364 L907.954918,1089.14318 Z M912.997623,1105.38126 C912.997623,1101.28554 909.660329,1097.95248 905.557132,1097.95248 C901.454956,1097.95248 898.117661,1101.28554 898.117661,1105.38126 C898.117661,1109.47698 901.454956,1112.81003 905.557132,1112.81003 C909.660329,1112.81003 912.997623,1109.47698 912.997623,1105.38126 Z M920.628059,1050.17015 L922.245646,1050.17015 L922.245646,1054.77056 L923.520108,1054.77056 L923.520108,1050.17015 L925.137695,1050.17015 L925.137695,1049.06898 L920.628059,1049.06898 L920.628059,1050.17015 Z M927.376174,1049.06898 L924.908946,1054.77056 L926.265105,1054.77056 L926.796131,1053.53889 L929.189833,1053.53889 L929.720859,1054.77056 L931.077017,1054.77056 L928.609789,1049.06898 L927.376174,1049.06898 Z M933.037729,1051.85044 L931.117865,1054.77056 L932.653756,1054.77056 L933.86184,1052.89451 L935.080137,1054.77056 L936.632367,1054.77056 L934.704334,1051.81781 L936.485313,1049.06898 L934.949423,1049.06898 L933.86184,1050.75743 L932.776301,1049.06898 L931.24858,1049.06898 L933.037729,1051.85044 Z M921.794274,1062.92529 L938.858591,1062.92529 L938.858591,1057.75186 L921.794274,1057.75186 L921.794274,1062.92529 Z M937.906829,1054.77056 L939.18027,1054.77056 L939.18027,1049.06898 L937.906829,1049.06898 L937.906829,1054.77056 Z M992,1104.67876 L976.286735,1104.67876 C976.29899,1104.91326 976.322478,1105.14369 976.322478,1105.38126 C976.322478,1112.90282 970.214657,1119 962.681236,1119 C955.147815,1119 949.041015,1112.90282 949.041015,1105.38126 C949.041015,1105.14369 949.064503,1104.91326 949.076757,1104.67876 L919.16161,1104.67876 C919.173865,1104.91326 919.197352,1105.14369 919.197352,1105.38126 C919.197352,1112.90282 913.090553,1119 905.557132,1119 C898.02371,1119 891.916911,1112.90282 891.916911,1105.38126 C891.916911,1105.14369 891.940399,1104.91326 891.952653,1104.67876 L882,1104.67876 L882,1099.35545 L885.076887,1099.28204 L885.076887,1085.11985 L898.560864,1082.46686 L906.095306,1062.92529 L919.343384,1062.92529 L919.343384,1057.75186 L912.778065,1057.75186 L916.151101,1046 L944.662093,1046 L947.8748,1057.75186 L941.30948,1057.75186 L941.30948,1062.92529 L955.074288,1062.92529 L967.136748,1082.46686 L988.696405,1085.88659 L988.696405,1099.28204 L992,1099.28204 L992,1104.67876 Z M909.698114,1079.7945 L929.099967,1079.7945 L929.099967,1069.65666 L912.721898,1069.65666 L909.698114,1079.7945 Z M928.707824,1052.42141 L927.278139,1052.42141 L927.997066,1050.76559 L928.707824,1052.42141 Z" id="Fill-1"></path>
        </g>
    </g>
</svg>