<?xml version="1.0" encoding="UTF-8"?>
<svg width="155px" height="25px" viewBox="0 0 155 25" version="1.1" xmlns="http://www.w3.org/2000/svg" xmlns:xlink="http://www.w3.org/1999/xlink">
    <!-- Generator: Sketch 50.2 (55047) - http://www.bohemiancoding.com/sketch -->
    <title>Group 15</title>
    <desc>Created with Sketch.</desc>
    <defs></defs>
    <g id="TW-Desktop" stroke="none" stroke-width="1" fill="none" fill-rule="evenodd">
        <g id="3-Reservation-booking-page" transform="translate(-785.000000, -848.000000)" fill="#000000" fill-rule="nonzero">
            <g id="Group-12" transform="translate(736.000000, 834.000000)">
                <g id="Group-17">
                    <g id="Group-15" transform="translate(49.000000, 14.000000)">
                        <g id="Group">
                            <path d="M10.5708007,9.25531915 C7.73407949,9.25531915 5.43258871,11.5425532 5.43258871,14.3617021 C5.43258871,17.1808511 7.73407949,19.4680851 10.5708007,19.4680851 C13.4075219,19.4680851 15.7090127,17.1808511 15.7090127,14.3617021 C15.6822512,11.5425532 13.3807604,9.25531915 10.5708007,9.25531915 Z M10.5708007,17.8723404 C8.61720968,17.8723404 7.01151843,16.3031915 7.01151843,14.3351064 C7.01151843,12.393617 8.59044816,10.7978723 10.5708007,10.7978723 C12.5243917,10.7978723 14.1300829,12.3670213 14.1300829,14.3351064 C14.1300829,16.3031915 12.5243917,17.8723404 10.5708007,17.8723404 Z M42.4705334,4.04255319 L35.4054919,4.04255319 C31.7926866,1.62234043 26.8953283,0.132978723 21.2486475,0.132978723 C15.6019666,0.132978723 10.3567085,1.62234043 6.74390323,4.04255319 L0.0267615207,4.04255319 C1.12398387,5.31914894 1.92682949,7.04787234 2.14092166,8.21808511 C0.883130184,9.94680851 0.133807604,12.0744681 0.133807604,14.3882979 C0.133807604,20.1861702 4.87059677,24.893617 10.7046083,24.893617 C14.0230369,24.893617 16.9668041,23.3776596 18.8936336,21.0106383 C19.6964793,21.9148936 20.9810323,23.7765957 21.2486475,24.3085106 C21.2486475,24.3085106 22.7740541,22.0478723 23.6304228,21.0106383 C25.5572523,23.3776596 28.5277811,24.893617 31.8194482,24.893617 C37.6534597,24.893617 42.3902488,20.1861702 42.3902488,14.3882979 C42.3902488,12.0744681 41.6409263,9.94680851 40.3563733,8.21808511 C40.5704654,7.04787234 41.3733111,5.31914894 42.4705334,4.04255319 Z M10.6778468,22.8457447 C5.96781912,22.8457447 2.16768318,19.0691489 2.16768318,14.3882979 C2.16768318,9.73404255 5.96781912,5.93085106 10.6778468,5.93085106 C15.3611129,5.93085106 19.1880104,9.70744681 19.1880104,14.3882979 C19.1880104,19.0425532 15.3878744,22.8457447 10.6778468,22.8457447 Z M10.7046083,3.88297872 C13.7286601,2.57978723 17.475273,1.86170213 21.2486475,1.86170213 C25.0220219,1.86170213 28.4474965,2.57978723 31.4715484,3.88297872 C25.798106,4.06914894 21.2486475,8.67021277 21.2486475,14.3617021 C21.2486475,8.59042553 16.5386198,3.88297872 10.7046083,3.88297872 Z M31.8194482,22.8457447 C27.136182,22.8457447 23.3092846,19.0691489 23.3092846,14.3882979 C23.3092846,9.73404255 27.1094205,5.93085106 31.8194482,5.93085106 C36.5294758,5.93085106 40.3296118,9.70744681 40.3296118,14.3882979 C40.3028502,19.0425532 36.5027143,22.8457447 31.8194482,22.8457447 Z M31.8194482,9.2287234 C28.982727,9.2287234 26.6812362,11.5159574 26.6812362,14.3351064 C26.6812362,17.1542553 28.982727,19.4414894 31.8194482,19.4414894 C34.6561694,19.4414894 36.9576601,17.1542553 36.9576601,14.3351064 C36.9308986,11.5159574 34.6294078,9.2287234 31.8194482,9.2287234 Z M31.8194482,17.8723404 C29.8658571,17.8723404 28.2601659,16.3031915 28.2601659,14.3351064 C28.2601659,12.3670213 29.8390956,10.7978723 31.8194482,10.7978723 C33.7998007,10.7978723 35.3787304,12.3670213 35.3787304,14.3351064 C35.3519689,16.2765957 33.7730392,17.8723404 31.8194482,17.8723404 Z" id="Shape"></path>
                            <path d="M64.8379063,9.98613861 L64.8379063,8.1980198 L61.9307725,8.1980198 L61.9307725,5.4950495 L59.719713,6.16039604 L59.719713,8.1980198 L58,8.1980198 L58,9.98613861 L59.719713,9.98613861 L59.719713,15.7663366 C59.719713,18.3445545 60.7433516,19.6336634 62.790629,19.6336634 C63.5276488,19.6336634 64.141832,19.5089109 64.6741241,19.3425743 L64.7560152,19.3009901 L64.6741241,17.5128713 L64.5512875,17.5544554 C64.2646686,17.6376238 63.8552132,17.6792079 63.4048122,17.6792079 C62.9134656,17.6792079 62.5449557,17.5128713 62.2992824,17.2217822 C62.0536091,16.8891089 61.971718,16.3485149 61.971718,15.6 L61.971718,9.98613861 L64.8379063,9.98613861 Z M72.4947235,7.99009901 C72.2490502,7.94851485 72.085268,7.94851485 71.9214859,7.94851485 C71.2254116,7.94851485 70.6112284,8.15643564 70.0379907,8.61386139 C69.5466442,8.98811881 69.1781342,9.48712871 68.8915154,10.0693069 L68.7686788,8.1980198 L66.762347,8.1980198 L66.762347,8.28118812 C66.8032925,9.1960396 66.8442381,10.360396 66.8442381,11.7742574 L66.8442381,19.3841584 L69.0962431,19.3841584 L69.0962431,13.4792079 C69.0962431,12.3980198 69.3419164,11.5663366 69.8742085,10.9841584 C70.4065006,10.4019802 71.0206838,10.1108911 71.7577037,10.1108911 C72.0443225,10.1108911 72.2490502,10.1524752 72.453778,10.1940594 L72.5766146,10.2356436 L72.5766146,8.03168317 L72.4947235,7.99009901 Z M74.5420008,8.1980198 L76.7940059,8.1980198 L76.7940059,19.3841584 L74.5420008,19.3841584 L74.5420008,8.1980198 Z M75.6884762,6.40990099 C76.0979316,6.40990099 76.4664415,6.28514851 76.7121148,5.99405941 C76.9577881,5.7029703 77.1215703,5.37029703 77.1215703,4.95445545 C77.1215703,4.58019802 76.9987336,4.24752475 76.7121148,3.95643564 C76.425496,3.70693069 76.0979316,3.54059406 75.6884762,3.54059406 C75.2790207,3.54059406 74.9105108,3.66534653 74.6648375,3.95643564 C74.3782187,4.24752475 74.255382,4.58019802 74.255382,4.95445545 C74.255382,5.37029703 74.3782187,5.7029703 74.6648375,5.99405941 C74.9105108,6.24356436 75.2790207,6.40990099 75.6884762,6.40990099 Z M87.8493035,9.52871287 C86.9485015,8.44752475 85.8429717,7.90693069 84.5327142,7.90693069 C82.9358379,7.90693069 81.666526,8.53069307 80.8066695,9.81980198 L80.7247784,8.15643564 L78.6775011,8.15643564 L78.6775011,8.32277228 C78.7184466,9.23762376 78.7593921,10.4435644 78.7593921,11.9405941 L78.7593921,24 L81.0113972,24 L81.0113972,18.2613861 C81.3389616,18.6772277 81.7074715,19.009901 82.1988181,19.2594059 C82.8130013,19.5920792 83.46813,19.7168317 84.2051499,19.7168317 C85.638244,19.7168317 86.8256648,19.1346535 87.7674124,18.0534653 C88.70916,16.9722772 89.2005065,15.4752475 89.2005065,13.6455446 C89.159561,11.9821782 88.70916,10.5683168 87.8493035,9.52871287 Z M82.2807092,10.4019802 C82.7720557,10.0277228 83.3043478,9.86138614 83.8775855,9.86138614 C84.7783875,9.86138614 85.5154073,10.1940594 86.0476995,10.9425743 C86.5799916,11.649505 86.8666104,12.6059406 86.8666104,13.6871287 C86.8666104,14.9346535 86.5799916,15.9326733 86.0067539,16.639604 C85.4335163,17.3465347 84.6964964,17.7207921 83.7547488,17.7207921 C82.9767835,17.7207921 82.3216547,17.429703 81.7893626,16.8475248 C81.2570705,16.2653465 80.9704517,15.5584158 80.9704517,14.7267327 L80.9704517,12.9386139 C80.9704517,12.6059406 81.0523428,12.190099 81.2570705,11.6910891 C81.4617982,11.1920792 81.7893626,10.7762376 82.2807092,10.4019802 Z M99.3140566,19.3009901 C99.1912199,18.6356436 99.1502744,17.7623762 99.1502744,16.6811881 L99.1502744,12.6475248 C99.1502744,11.150495 98.7817645,9.98613861 98.0447446,9.15445545 C97.3077248,8.36435644 96.202195,7.94851485 94.7691009,7.94851485 C93.2950612,7.94851485 92.0257493,8.28118812 91.0021106,8.94653465 L90.9202195,8.98811881 L91.4525116,10.5683168 L91.5344027,10.4851485 C92.3942592,9.94455446 93.3769523,9.65346535 94.4415365,9.65346535 C95.2604474,9.65346535 95.8336851,9.86138614 96.2431406,10.2772277 C96.652596,10.6930693 96.8573238,11.2752475 96.8573238,12.0237624 L96.8573238,12.1485149 C94.6872098,12.1485149 93.0493879,12.5227723 91.9029126,13.229703 C90.7564373,13.9366337 90.1422541,15.0178218 90.1422541,16.390099 C90.1422541,17.2633663 90.4698185,18.0534653 91.0840017,18.6772277 C91.6981849,19.3009901 92.5580414,19.6336634 93.6226256,19.6336634 C95.0557197,19.6336634 96.1612495,19.1346535 96.9801604,18.0950495 L97.1848881,19.3841584 L99.273111,19.3841584 L99.3140566,19.3009901 Z M96.1203039,17.180198 C95.5880118,17.6792079 94.9738286,17.8871287 94.1958632,17.8871287 C93.6635711,17.8871287 93.2131701,17.7207921 92.9265513,17.429703 C92.5989869,17.0970297 92.4352047,16.6811881 92.4352047,16.1405941 C92.4352047,15.4336634 92.7627691,14.8930693 93.4178978,14.4772277 C94.0730266,14.0613861 95.2195019,13.8534653 96.8982693,13.8534653 L96.8982693,15.6 C96.8982693,16.1405941 96.652596,16.6811881 96.1203039,17.180198 Z M110.77881,19.4673267 L110.77881,19.3009901 C110.737864,18.5940594 110.696919,17.6376238 110.696919,16.4316832 L110.696919,3 L108.444913,3 L108.444913,9.32079208 C108.158295,8.94653465 107.748839,8.65544554 107.339384,8.40594059 C106.766146,8.07326733 106.070072,7.94851485 105.333052,7.94851485 C103.940903,7.94851485 102.753482,8.53069307 101.811735,9.65346535 C100.869987,10.7762376 100.419586,12.2316832 100.419586,14.019802 C100.419586,15.6415842 100.869987,17.0554455 101.770789,18.0950495 C102.671591,19.1762376 103.818067,19.7168317 105.128324,19.7168317 C105.947235,19.7168317 106.725201,19.5089109 107.380329,19.1346535 C107.912621,18.8019802 108.322077,18.3861386 108.649641,17.8871287 L108.772478,19.5089109 L110.77881,19.4673267 Z M108.403968,12.8138614 L108.403968,14.560396 C108.403968,15.5168317 108.117349,16.2653465 107.544111,16.8475248 C106.970874,17.429703 106.315745,17.6792079 105.619671,17.6792079 C104.677923,17.6792079 103.940903,17.3465347 103.408611,16.5980198 C102.876319,15.849505 102.5897,14.9346535 102.5897,13.8118812 C102.5897,12.6475248 102.876319,11.649505 103.449557,10.9009901 C104.022794,10.1524752 104.718869,9.81980198 105.660616,9.81980198 C106.397636,9.81980198 107.052765,10.0693069 107.585057,10.609901 C108.117349,11.1920792 108.403968,11.9405941 108.403968,12.8138614 Z M120.073449,8.1980198 C120.073449,8.1980198 117.248206,14.0613861 117.043478,14.7267327 C116.797805,13.9366337 113.972562,8.1980198 113.972562,8.1980198 L111.515829,8.1980198 L117.043478,19.3841584 L122.489236,8.1980198 L120.073449,8.1980198 Z M123.594766,8.1980198 L125.846771,8.1980198 L125.846771,19.3841584 L123.594766,19.3841584 L123.594766,8.1980198 Z M124.700295,6.40990099 C125.109751,6.40990099 125.478261,6.28514851 125.723934,5.99405941 C125.969607,5.7029703 126.13339,5.37029703 126.13339,4.95445545 C126.13339,4.58019802 126.010553,4.24752475 125.723934,3.95643564 C125.478261,3.70693069 125.109751,3.54059406 124.700295,3.54059406 C124.29084,3.54059406 123.92233,3.66534653 123.676657,3.95643564 C123.430984,4.24752475 123.267201,4.58019802 123.267201,4.95445545 C123.267201,5.37029703 123.390038,5.7029703 123.676657,5.99405941 C123.963276,6.24356436 124.29084,6.40990099 124.700295,6.40990099 Z M134.7729,14.1861386 C134.322499,13.6455446 133.544534,13.1881188 132.479949,12.8138614 C131.620093,12.5227723 131.087801,12.2316832 130.801182,11.9821782 C130.555509,11.7326733 130.432672,11.4415842 130.432672,11.0673267 C130.432672,10.6514851 130.596454,10.3188119 130.883073,10.0693069 C131.169692,9.81980198 131.620093,9.6950495 132.152385,9.6950495 C132.93035,9.6950495 133.708316,9.9029703 134.445336,10.360396 L134.527227,10.4019802 L135.100464,8.6970297 L135.018573,8.65544554 C134.240608,8.1980198 133.29886,7.94851485 132.193331,7.94851485 C131.00591,7.94851485 130.023217,8.28118812 129.327142,8.9049505 C128.590122,9.57029703 128.221612,10.360396 128.221612,11.3168317 C128.221612,12.7306931 129.245251,13.8118812 131.251583,14.5188119 C131.988603,14.7683168 132.520895,15.0178218 132.807514,15.3089109 C133.094133,15.6 133.216969,15.9326733 133.216969,16.390099 C133.216969,16.8475248 133.053187,17.2217822 132.725623,17.4712871 C132.398058,17.7207921 131.865766,17.8871287 131.210637,17.8871287 C130.309835,17.8871287 129.409033,17.6376238 128.508231,17.0970297 L128.42634,17.0138614 L127.894048,18.8019802 L127.975939,18.8435644 C128.917687,19.3425743 130.023217,19.6336634 131.210637,19.6336634 C132.520895,19.6336634 133.585479,19.3009901 134.322499,18.6772277 C135.100464,18.0534653 135.468974,17.2217822 135.468974,16.1821782 C135.468974,15.3920792 135.264247,14.7267327 134.7729,14.1861386 Z M145.869143,9.57029703 C144.88645,8.48910891 143.617138,7.94851485 142.061207,7.94851485 C140.505276,7.94851485 139.195019,8.48910891 138.17138,9.57029703 C137.147742,10.6514851 136.61545,12.1069307 136.61545,13.8950495 C136.61545,15.6 137.106796,16.9722772 138.089489,18.0534653 C139.072182,19.1346535 140.341494,19.6752475 141.897425,19.6752475 C142.880118,19.6752475 143.78092,19.4257426 144.640777,18.9267327 C145.500633,18.4277228 146.155762,17.7623762 146.606163,16.8475248 C147.056564,15.9326733 147.302237,14.8930693 147.302237,13.6871287 C147.343183,12.0237624 146.851836,10.609901 145.869143,9.57029703 Z M141.938371,17.8871287 C141.078514,17.8871287 140.341494,17.5128713 139.727311,16.7227723 C139.154073,15.9742574 138.826509,14.9762376 138.826509,13.8118812 C138.826509,12.6475248 139.113128,11.649505 139.686366,10.8594059 C140.259603,10.1108911 140.996623,9.6950495 141.979316,9.6950495 C142.921064,9.6950495 143.699029,10.1108911 144.231321,10.8594059 C144.804559,11.649505 145.091178,12.6059406 145.091178,13.7287129 C145.091178,14.9346535 144.763613,15.9326733 144.190376,16.7227723 C143.576192,17.5128713 142.798227,17.8871287 141.938371,17.8871287 Z M154.918109,7.99009901 C154.672436,7.94851485 154.508653,7.94851485 154.344871,7.94851485 C153.648797,7.94851485 153.034614,8.15643564 152.461376,8.61386139 C151.97003,8.98811881 151.60152,9.48712871 151.314901,10.0693069 L151.192064,8.1980198 L149.185732,8.1980198 L149.185732,8.28118812 C149.226678,9.1960396 149.267623,10.360396 149.267623,11.7742574 L149.267623,19.3841584 L151.519629,19.3841584 L151.519629,13.4792079 C151.519629,12.3980198 151.765302,11.5663366 152.297594,10.9841584 C152.829886,10.4019802 153.444069,10.1108911 154.181089,10.1108911 C154.426762,10.1108911 154.672436,10.1524752 154.877163,10.1940594 L155,10.2356436 L155,8.03168317 L154.918109,7.99009901 Z" id="Shape"></path>
                        </g>
                        <path d="M10.3031855,12.6329787 C9.33977074,12.6329787 8.59044816,13.4042553 8.59044816,14.3351064 C8.59044816,15.2925532 9.36653226,16.037234 10.3031855,16.037234 C11.2398387,16.037234 12.0159228,15.2659574 12.0159228,14.3351064 C12.0159228,13.4042553 11.2398387,12.6329787 10.3031855,12.6329787 Z M31.5518329,12.606383 C30.5884182,12.606383 29.8390956,13.3776596 29.8390956,14.3085106 C29.8390956,15.2393617 30.6151797,16.0106383 31.5518329,16.0106383 C32.5152477,16.0106383 33.2645703,15.2393617 33.2645703,14.3085106 C33.2645703,13.3776596 32.4884862,12.606383 31.5518329,12.606383 Z" id="Shape"></path>
                    </g>
                </g>
            </g>
        </g>
    </g>
</svg>