<?xml version="1.0" encoding="UTF-8"?>
<svg width="155px" height="24px" viewBox="0 0 155 24" version="1.1" xmlns="http://www.w3.org/2000/svg" xmlns:xlink="http://www.w3.org/1999/xlink">
    <!-- Generator: Sketch 54.1 (76490) - https://sketchapp.com -->
    <title>群組</title>
    <desc>Created with Sketch.</desc>
    <g id="Page-1" stroke="none" stroke-width="1" fill="none" fill-rule="evenodd">
        <g id="iPhone-8" transform="translate(-256.000000, -217.000000)" fill="#FFFFFF">
            <g id="群組" transform="translate(256.000000, 217.000000)">
                <path d="M9.2452,10.4088 C7.4322,10.4048 5.9692,11.8638 5.9672,13.6788 C5.9662,15.4958 7.4212,16.9578 9.2322,16.9598 C11.0482,16.9608 12.5062,15.5058 12.5072,13.6908 C12.5092,11.8728 11.0582,10.4128 9.2452,10.4088" id="Fill-1"></path>
                <path d="M27.7335,10.4097 C25.9255,10.3967 24.4425,11.8587 24.4355,13.6637 C24.4275,15.4757 25.8875,16.9537 27.6915,16.9587 C29.5055,16.9647 30.9755,15.5147 30.9925,13.7057 C31.0085,11.9057 29.5415,10.4217 27.7335,10.4097" id="Fill-3"></path>
                <path d="M47.4376,13.1802 C47.4376,15.3042 47.4306,17.4292 47.4456,19.5532 C47.4476,19.8742 47.3636,19.9622 47.0446,19.9522 C46.2876,19.9282 45.5286,19.9272 44.7716,19.9522 C44.4356,19.9642 44.3476,19.8672 44.3486,19.5312 C44.3596,15.3232 44.3506,11.1142 44.3656,6.9062 C44.3666,6.4982 44.2866,6.3632 43.8506,6.3752 C42.6736,6.4092 41.4966,6.3792 40.3186,6.3932 C40.0506,6.3962 39.9386,6.3502 39.9486,6.0462 C39.9726,5.3302 39.9636,4.6132 39.9516,3.8952 C39.9476,3.6852 40.0046,3.6192 40.2216,3.6202 C43.9966,3.6262 47.7716,3.6262 51.5476,3.6192 C51.7756,3.6192 51.8476,3.6762 51.8426,3.9102 C51.8286,4.6272 51.8226,5.3452 51.8446,6.0622 C51.8536,6.3462 51.7496,6.3952 51.4966,6.3922 C50.2786,6.3812 49.0606,6.4012 47.8436,6.3782 C47.4976,6.3722 47.4276,6.4782 47.4296,6.8072 C47.4456,8.9312 47.4376,11.0562 47.4376,13.1802" id="Fill-5"></path>
                <path d="M125.1988,15.8814 C125.6048,15.8814 126.0108,15.8894 126.4168,15.8784 C126.6098,15.8734 126.6948,15.9084 126.7128,16.1364 C126.7678,16.8764 127.1748,17.3744 127.8858,17.5714 C128.6558,17.7844 129.4048,17.7234 129.9968,17.1194 C130.4578,16.6494 130.3558,15.8924 129.8148,15.4784 C129.4538,15.2024 129.0268,15.0654 128.5968,14.9434 C127.8838,14.7384 127.1558,14.5754 126.4518,14.3414 C125.1408,13.9054 124.1528,13.1334 123.9268,11.6684 C123.7428,10.4794 124.1678,9.5114 125.0808,8.7604 C126.6878,7.4404 129.6728,7.3334 131.3818,8.5184 C132.2988,9.1544 132.7708,10.0404 132.8608,11.1454 C132.8778,11.3514 132.8348,11.4354 132.6068,11.4324 C131.8218,11.4194 131.0368,11.4274 130.2518,11.4274 C130.1288,11.4284 130.0338,11.4354 129.9838,11.2654 C129.6888,10.2494 128.8898,9.8254 127.8228,10.0994 C127.5308,10.1744 127.2578,10.2874 127.0538,10.5234 C126.7218,10.9074 126.7848,11.4734 127.2018,11.8184 C127.5218,12.0834 127.9118,12.2064 128.3018,12.3174 C129.0038,12.5174 129.7088,12.7024 130.4108,12.9004 C130.6058,12.9534 130.7988,13.0194 130.9878,13.0904 C133.9658,14.2154 133.6058,17.3814 132.1478,18.7734 C130.8948,19.9684 129.3678,20.2574 127.7128,20.0924 C126.9508,20.0164 126.2288,19.7894 125.5758,19.3824 C124.3888,18.6414 123.7618,17.5654 123.6558,16.1714 C123.6378,15.9284 123.7128,15.8694 123.9398,15.8774 C124.3588,15.8924 124.7788,15.8814 125.1988,15.8814" id="Fill-7"></path>
                <path d="M105.9322,7.9097 C106.9582,7.9097 107.9712,7.9117 108.9842,7.9077 C109.2222,7.9067 109.2122,8.0957 109.2592,8.2407 C109.9312,10.3657 110.6022,12.4917 111.2742,14.6167 C111.4692,15.2337 111.6642,15.8507 111.8622,16.4737 C112.0342,16.3677 112.0462,16.1967 112.0942,16.0467 C112.9082,13.4707 113.7252,10.8947 114.5252,8.3137 C114.6202,8.0057 114.7382,7.8857 115.0792,7.8987 C115.9042,7.9307 116.7312,7.9167 117.5562,7.9047 C117.8142,7.9017 117.9222,7.9177 117.8142,8.2287 C116.4912,12.0307 115.1782,15.8367 113.8702,19.6437 C113.7922,19.8717 113.6892,19.9557 113.4412,19.9517 C112.4122,19.9347 111.3832,19.9387 110.3552,19.9487 C110.1402,19.9507 110.0192,19.9137 109.9402,19.6807 C108.6202,15.8057 107.2882,11.9347 105.9602,8.0627 C105.9482,8.0267 105.9462,7.9867 105.9322,7.9097" id="Fill-9"></path>
                <path d="M151.0143,9.7418 C151.0883,9.6158 151.1183,9.5778 151.1353,9.5338 C151.5823,8.4038 152.2463,7.9408 153.4483,7.9288 C153.8803,7.9238 154.3143,7.9358 154.7463,7.9238 C154.9403,7.9188 155.0013,7.9778 154.9983,8.1748 C154.9893,8.9598 154.9873,9.7448 154.9993,10.5298 C155.0033,10.7498 154.9313,10.8018 154.7223,10.7968 C154.1673,10.7838 153.6133,10.7818 153.0583,10.7978 C151.7013,10.8368 151.0173,11.5358 151.0153,12.8838 C151.0113,15.0628 151.0033,17.2418 151.0233,19.4218 C151.0273,19.8228 150.9563,19.9818 150.5093,19.9568 C149.7543,19.9138 148.9943,19.9368 148.2373,19.9498 C148.0013,19.9538 147.9083,19.9088 147.9093,19.6418 C147.9173,15.8258 147.9163,12.0088 147.9113,8.1908 C147.9113,7.9958 147.9393,7.9008 148.1703,7.9038 C149.0363,7.9178 149.9033,7.9158 150.7693,7.9048 C150.9683,7.9018 151.0223,7.9648 151.0173,8.1548 C151.0063,8.6498 151.0143,9.1458 151.0143,9.7418" id="Fill-11"></path>
                <path d="M53.4303,9.7213 C54.0163,8.3123 54.6243,7.9103 56.0723,7.9093 C56.3703,7.9093 56.6683,7.9213 56.9653,7.9063 C57.1803,7.8943 57.2753,7.9363 57.2703,8.1843 C57.2533,8.9543 57.2553,9.7273 57.2703,10.4973 C57.2743,10.7343 57.1953,10.7913 56.9713,10.7853 C56.4573,10.7713 55.9423,10.7733 55.4293,10.7853 C54.1173,10.8173 53.4343,11.5103 53.4313,12.8173 C53.4273,15.0633 53.4233,17.3093 53.4383,19.5553 C53.4413,19.8823 53.3503,19.9613 53.0343,19.9523 C52.2373,19.9293 51.4383,19.9353 50.6403,19.9503 C50.3953,19.9543 50.3163,19.8943 50.3173,19.6373 C50.3253,15.8223 50.3253,12.0053 50.3173,8.1903 C50.3173,7.9503 50.3983,7.9013 50.6183,7.9043 C51.4443,7.9163 52.2693,7.9183 53.0953,7.9043 C53.3513,7.8993 53.4533,7.9523 53.4373,8.2343 C53.4113,8.6923 53.4303,9.1533 53.4303,9.7213" id="Fill-13"></path>
                <path d="M119.2184,13.8912 C119.2184,12.0232 119.2244,10.1552 119.2114,8.2872 C119.2094,8.0012 119.2514,7.8882 119.5764,7.9002 C120.3744,7.9282 121.1744,7.9182 121.9724,7.9042 C122.2244,7.9002 122.3214,7.9482 122.3204,8.2332 C122.3094,12.0232 122.3094,15.8132 122.3204,19.6022 C122.3214,19.9052 122.2174,19.9552 121.9484,19.9512 C121.1644,19.9342 120.3784,19.9292 119.5944,19.9532 C119.2924,19.9602 119.2074,19.8862 119.2104,19.5762 C119.2264,17.6812 119.2184,15.7862 119.2184,13.8912" id="Fill-15"></path>
                <path d="M58.6344,13.8756 C58.6344,12.0086 58.6434,10.1416 58.6264,8.2736 C58.6234,7.9596 58.7144,7.8946 59.0094,7.9016 C59.7934,7.9236 60.5794,7.9206 61.3634,7.9036 C61.6324,7.8976 61.7334,7.9516 61.7334,8.2516 C61.7224,12.0396 61.7224,15.8286 61.7324,19.6166 C61.7334,19.8956 61.6464,19.9556 61.3874,19.9496 C60.6034,19.9356 59.8184,19.9306 59.0334,19.9516 C58.7244,19.9606 58.6224,19.8916 58.6254,19.5586 C58.6434,17.6646 58.6344,15.7706 58.6344,13.8756" id="Fill-17"></path>
                <path d="M120.776,6.9107 C119.71,6.9177 118.893,6.1107 118.891,5.0477 C118.889,3.9787 119.695,3.1537 120.747,3.1477 C121.799,3.1417 122.629,3.9637 122.637,5.0187 C122.646,6.0787 121.834,6.9037 120.776,6.9107" id="Fill-19"></path>
                <path d="M60.1686,6.9107 C59.1076,6.9057 58.2966,6.0837 58.3056,5.0227 C58.3136,3.9627 59.1356,3.1427 60.1886,3.1477 C61.2396,3.1527 62.0536,3.9797 62.0526,5.0437 C62.0526,6.1017 61.2306,6.9157 60.1686,6.9107" id="Fill-21"></path>
                <path d="M27.9073,19.9351 C24.5373,20.0351 21.6373,17.4641 21.4523,13.9361 C21.2793,10.6201 23.9733,7.6561 27.3613,7.4781 C30.7913,7.2981 33.7243,9.9211 33.9253,13.3491 C34.1293,16.8271 31.4703,19.7371 27.9073,19.9351 M20.8153,7.5611 C19.5713,8.9841 18.7883,10.6261 18.4893,12.5161 C17.7503,8.4851 15.2463,5.9791 11.5773,4.3771 C16.1983,2.5581 20.7543,2.5631 25.4073,4.3871 C23.5783,5.1221 22.0553,6.1421 20.8153,7.5611 M15.4883,14.0251 C15.2993,17.4241 12.3553,20.1211 9.0363,19.9351 C5.5243,19.7381 2.8263,16.8351 3.0213,13.4621 C3.2253,9.9101 6.1433,7.2721 9.6373,7.4811 C13.0393,7.6841 15.6783,10.6351 15.4883,14.0251 M34.1593,7.1461 C33.9293,6.9091 33.9793,6.8121 34.1653,6.6131 C35.0713,5.6471 35.9623,4.6681 36.9283,3.6181 L36.4373,3.6181 C34.5013,3.6181 32.5663,3.6141 30.6303,3.6231 C30.3593,3.6241 30.1423,3.5521 29.9183,3.4051 C27.0243,1.5081 23.8503,0.3881 20.4073,0.0871 C15.5523,-0.3359 11.0653,0.7771 6.9803,3.4541 C6.8033,3.5711 6.6283,3.6231 6.4153,3.6221 C4.4393,3.6161 2.4633,3.6181 0.4873,3.6181 L0.0263,3.6181 C0.9763,4.6511 1.8523,5.6221 2.7553,6.5701 C2.9943,6.8221 2.9883,6.9381 2.7433,7.1971 C0.0433,10.0541 -0.7047,13.3901 0.6823,17.0491 C2.9283,22.9751 10.4083,24.8141 15.2353,20.7021 C15.4893,20.4851 15.5973,20.5271 15.7943,20.7471 C16.5883,21.6341 17.4083,22.4981 18.2033,23.3851 C18.4053,23.6101 18.5143,23.6581 18.7433,23.3991 C19.5403,22.4971 20.3763,21.6271 21.1773,20.7281 C21.3793,20.4991 21.4813,20.5051 21.7113,20.6981 C23.8013,22.4521 26.2173,23.2121 28.9163,22.8151 C32.6323,22.2671 35.2183,20.1791 36.4133,16.6351 C37.6143,13.0721 36.7803,9.8601 34.1593,7.1461" id="Fill-23"></path>
                <path d="M98.3414,17.2965 C96.4764,17.2855 94.9604,15.7585 94.9754,13.9045 C94.9904,12.0365 96.5034,10.5405 98.3724,10.5465 C100.2364,10.5515 101.7454,12.0735 101.7354,13.9375 C101.7254,15.8025 100.2054,17.3065 98.3414,17.2965 M104.8434,3.9175 C104.8444,3.6905 104.7834,3.6155 104.5494,3.6195 C103.7374,3.6335 102.9254,3.6395 102.1134,3.6175 C101.8164,3.6085 101.7294,3.6785 101.7324,3.9895 C101.7504,5.5985 101.7404,7.2065 101.7404,8.8735 C98.4514,6.6675 95.0864,7.9675 93.5224,9.6815 C91.6384,11.7455 91.3064,14.7785 92.7734,17.1585 C93.7134,18.6855 95.0774,19.6485 96.8364,20.0095 C98.5984,20.3725 100.2254,19.9945 101.7404,18.9425 C101.7404,19.2145 101.7574,19.4035 101.7374,19.5895 C101.7044,19.8735 101.8084,19.9575 102.0944,19.9515 C102.9054,19.9325 103.7184,19.9345 104.5294,19.9505 C104.7874,19.9565 104.8444,19.8715 104.8444,19.6275 C104.8374,14.3915 104.8374,9.1545 104.8434,3.9175" id="Fill-25"></path>
                <path d="M69.9859,17.2965 C68.1219,17.3005 66.6009,15.7875 66.5999,13.9285 C66.5989,12.0615 68.1069,10.5485 69.9719,10.5465 C71.8399,10.5435 73.3539,12.0485 73.3559,13.9135 C73.3589,15.7825 71.8549,17.2915 69.9859,17.2965 M75.2429,10.2055 C74.3679,9.0395 73.2219,8.2585 71.8079,7.9015 C69.9499,7.4345 68.2259,7.7735 66.5979,8.9015 C66.5979,8.6355 66.5819,8.4365 66.6019,8.2405 C66.6319,7.9765 66.5429,7.8975 66.2719,7.9025 C65.4469,7.9215 64.6209,7.9175 63.7959,7.9035 C63.5709,7.9005 63.4989,7.9545 63.4989,8.1925 C63.5059,13.1855 63.5069,18.1785 63.4979,23.1715 C63.4969,23.4425 63.5929,23.4755 63.8239,23.4725 C64.6349,23.4595 65.4479,23.4525 66.2589,23.4755 C66.5589,23.4835 66.6079,23.3795 66.6049,23.1085 C66.5899,21.8515 66.5959,20.5925 66.6009,19.3335 C66.6019,19.2235 66.5479,19.0955 66.6489,18.9945 C69.6669,21.0605 73.1409,20.0835 74.9249,18.0315 C76.8639,15.8025 77.0069,12.5555 75.2429,10.2055" id="Fill-27"></path>
                <path d="M84.0807,17.2965 C82.2137,17.2965 80.7047,15.7885 80.7027,13.9215 C80.6997,12.0585 82.2157,10.5445 84.0797,10.5465 C85.9447,10.5475 87.4657,12.0635 87.4657,13.9205 C87.4647,15.7785 85.9427,17.2965 84.0807,17.2965 M90.5657,8.2075 C90.5657,7.9395 90.4707,7.8995 90.2377,7.9045 C89.6427,7.9195 89.0477,7.9005 88.4527,7.9125 C88.1337,7.9185 87.7257,7.7745 87.5227,7.9785 C87.3677,8.1335 87.4657,8.5385 87.4477,8.8705 C84.3727,6.7705 80.9537,7.7885 79.1947,9.7365 C77.2757,11.8645 77.0407,15.0535 78.6667,17.4255 C79.4817,18.6155 80.5827,19.4435 81.9617,19.8585 C83.9137,20.4445 85.7437,20.1325 87.4657,18.9405 C87.4657,19.2115 87.4817,19.4125 87.4617,19.6095 C87.4337,19.8745 87.5197,19.9575 87.7937,19.9515 C88.6177,19.9335 89.4437,19.9375 90.2687,19.9495 C90.4997,19.9525 90.5637,19.8835 90.5637,19.6525 C90.5577,15.8375 90.5567,12.0235 90.5657,8.2075" id="Fill-29"></path>
                <path d="M140.4078,17.2965 C138.5398,17.3035 137.0218,15.8005 137.0148,13.9365 C137.0088,12.0685 138.5148,10.5495 140.3778,10.5455 C142.2478,10.5425 143.7668,12.0465 143.7708,13.9055 C143.7748,15.7745 142.2728,17.2885 140.4078,17.2965 M140.4168,7.7025 C136.9718,7.6925 134.1858,10.4565 134.1738,13.8975 C134.1608,17.3405 136.9278,20.1265 140.3688,20.1355 C143.8148,20.1445 146.6078,17.3765 146.6168,13.9445 C146.6248,10.5045 143.8528,7.7135 140.4168,7.7025" id="Fill-31"></path>
            </g>
        </g>
    </g>
</svg>