<?xml version="1.0" encoding="UTF-8"?>
<svg width="155px" height="23px" viewBox="0 0 155 23" version="1.1" xmlns="http://www.w3.org/2000/svg" xmlns:xlink="http://www.w3.org/1999/xlink">
    <!-- Generator: Sketch 54.1 (76490) - https://sketchapp.com -->
    <title>群組</title>
    <desc>Created with Sketch.</desc>
    <g id="Page-1" stroke="none" stroke-width="1" fill="none" fill-rule="evenodd">
        <g id="iPhone-8" transform="translate(-256.000000, -176.000000)">
            <g id="群組" transform="translate(256.000000, 176.000000)">
                <path d="M102.9779,5.8346 C106.1199,5.8356 108.5589,8.2946 108.5629,11.4656 C108.5669,14.4406 106.0449,16.9476 103.0499,16.9586 C99.8889,16.9706 97.5469,14.4256 97.4419,11.6106 C97.3159,8.2306 100.1819,5.7406 102.9779,5.8346" id="Fill-1" fill="#FDB717"></path>
                <path d="M118.4701,5.8356 C121.5521,5.8286 124.0371,8.2986 124.0441,11.3756 C124.0521,14.4696 121.5631,16.9546 118.4551,16.9546 C115.4181,16.9546 112.9101,14.4236 112.9111,11.3576 C112.9121,8.3426 115.4281,5.8436 118.4701,5.8356" id="Fill-3" fill="#1FB158"></path>
                <path d="M154.9984,11.3658 C155.0334,14.4108 152.5684,16.9398 149.5394,16.9678 C146.5124,16.9938 144.0294,14.5688 143.9054,11.6428 C143.7654,8.3198 146.5064,5.9608 149.1554,5.8298 C152.3254,5.6748 155.0704,8.2948 154.9984,11.3658" id="Fill-5" fill="#14A9E1"></path>
                <path d="M93.0345,11.4391 C93.1845,14.1011 90.8355,16.9351 87.5725,16.9521 C84.4785,16.9681 81.9885,14.4891 81.9645,11.4391 C81.9385,8.3411 84.5635,5.7521 87.7095,5.8401 C90.4975,5.9191 93.1955,8.4061 93.0345,11.4391" id="Fill-7" fill="#EE3240"></path>
                <path d="M133.9984,5.8473 C136.7254,5.7663 139.4354,8.1003 139.5184,11.2153 C139.6024,14.3913 137.0594,16.9263 134.0254,16.9483 C130.9334,16.9693 128.4544,14.4873 128.4334,11.4273 C128.4084,7.9823 131.3634,5.7283 133.9984,5.8473" id="Fill-9" fill="#A04799"></path>
                <path d="M22.2587,16.0485 C19.6857,16.0575 17.6507,14.0265 17.6557,11.4565 C17.6617,8.7815 19.6197,6.8245 22.2997,6.8155 C24.8727,6.8065 26.8787,8.8255 26.8737,11.4185 C26.8677,14.0495 24.8837,16.0405 22.2587,16.0485 M28.8167,11.6195 C28.9647,7.8165 25.8377,4.9865 22.2257,5.0195 C17.6477,5.0605 14.5897,9.3215 16.0907,13.6525 C17.1577,16.7335 20.7177,18.5365 23.8207,17.5995 C25.0477,17.2285 25.9957,16.5195 26.8107,15.4985 C26.8107,15.9365 26.8477,16.3775 26.8037,16.8105 C26.6517,18.3265 26.0677,19.6085 24.6567,20.3525 C23.5017,20.9615 22.2587,21.0965 20.9767,20.8585 C20.2737,20.7285 19.5937,20.5325 18.9327,20.2495 C18.3087,19.9825 17.8937,20.1775 17.6607,20.7805 C17.4687,21.2785 17.7087,21.7495 18.3427,22.0235 C19.9937,22.7355 21.6977,22.9535 23.4907,22.6715 C26.3637,22.2185 28.4927,20.0485 28.7437,17.1625 C28.9047,15.3195 28.7447,13.4665 28.8167,11.6195" id="Fill-11" fill="#5B5B5B"></path>
                <path d="M53.6356,16.0485 C51.0346,16.0435 48.9906,13.9915 49.0166,11.4105 C49.0426,8.7755 51.0366,6.8015 53.6616,6.8135 C56.2896,6.8235 58.2466,8.8135 58.2406,11.4645 C58.2356,14.0525 56.2246,16.0535 53.6356,16.0485 M60.1976,1.1305 C60.1966,0.3575 59.8916,0.0075 59.2446,0.0005 C58.5306,-0.0075 58.1986,0.3495 58.1926,1.1545 C58.1856,2.2345 58.1906,3.3145 58.1896,4.3945 L58.1896,7.2855 C58.1496,7.3075 58.1096,7.3295 58.0696,7.3515 C56.7866,5.5375 55.0136,4.8885 52.8636,5.0535 C48.9496,5.3545 46.1926,9.3355 47.3026,13.1205 C48.1206,15.9125 50.3826,17.6665 53.3656,17.8215 C57.0836,18.0165 60.1626,15.2135 60.1916,11.5615 C60.2196,8.0845 60.2006,4.6075 60.1976,1.1305" id="Fill-13" fill="#5B5B5B"></path>
                <path d="M6.6214,16.0494 C3.9754,16.0514 1.9524,14.0294 1.9664,11.3984 C1.9804,8.7744 3.9724,6.8194 6.6154,6.8144 C9.2654,6.8094 11.2844,8.9854 11.1714,11.4754 C11.1674,14.0454 9.1764,16.0474 6.6214,16.0494 M13.1354,11.1994 C13.1304,10.4844 12.9884,9.7864 12.7244,9.1144 C11.5714,6.1954 8.5154,4.5314 5.3494,5.1074 C2.4444,5.6344 0.2804,7.9804 0.0254,10.8794 C-0.2316,13.8024 1.4934,16.4724 4.2784,17.4634 C6.6084,18.2914 9.0994,17.7284 10.5794,16.0514 C10.7414,15.8674 10.8014,15.5834 11.1654,15.4784 C11.1654,16.0294 11.1554,16.5514 11.1684,17.0714 C11.1814,17.6244 11.5154,17.9544 12.0554,17.9784 C12.7444,18.0074 13.1354,17.6384 13.1394,16.9064 C13.1474,15.0044 13.1504,13.1024 13.1354,11.1994" id="Fill-15" fill="#5B5B5B"></path>
                <path d="M69.431,16.0485 C66.819,16.1065 64.79,14.1545 64.719,11.5165 C64.652,9.0065 66.608,6.8735 69.031,6.8155 C71.794,6.7485 73.867,8.6275 73.925,11.2505 C73.985,13.9415 72.066,15.9895 69.431,16.0485 M75.895,11.5045 C75.88,7.9105 73.246,5.1825 69.657,5.0365 C64.558,4.8285 61.255,9.7505 63.436,14.3065 C64.931,17.4315 68.925,18.7555 71.989,17.1405 C72.73,16.7495 73.281,16.1475 73.885,15.5245 C73.885,15.9575 73.881,16.3915 73.886,16.8235 C73.894,17.6235 74.198,17.9715 74.883,17.9745 C75.548,17.9775 75.895,17.5915 75.896,16.8275 C75.9,15.0535 75.902,13.2785 75.895,11.5045" id="Fill-17" fill="#5B5B5B"></path>
                <path d="M37.912,16.0553 C35.275,16.0293 33.322,13.9973 33.357,11.3173 C33.392,8.6643 35.407,6.7853 38.183,6.8173 C40.646,6.8443 42.568,8.9133 42.537,11.5043 C42.506,14.1113 40.504,16.0803 37.912,16.0553 M38.006,5.0353 C34.292,5.0163 31.414,7.7573 31.384,11.3433 C31.353,14.9773 34.18,17.7893 37.899,17.8243 C41.612,17.8583 44.493,15.0793 44.507,11.4503 C44.521,7.8323 41.705,5.0543 38.006,5.0353" id="Fill-19" fill="#5B5B5B"></path>
            </g>
        </g>
    </g>
</svg>