<?xml version="1.0" encoding="UTF-8"?>
<svg width="144px" height="30px" viewBox="0 0 144 30" version="1.1" xmlns="http://www.w3.org/2000/svg" xmlns:xlink="http://www.w3.org/1999/xlink">
    <!-- Generator: Sketch 50.2 (55047) - http://www.bohemiancoding.com/sketch -->
    <title>Group 5</title>
    <desc>Created with Sketch.</desc>
    <defs></defs>
    <g id="TW-Desktop" stroke="none" stroke-width="1" fill="none" fill-rule="evenodd">
        <g id="1-Home" transform="translate(-648.000000, -340.000000)" fill="#FFFFFF">
            <g id="Group-5" transform="translate(648.000000, 340.000000)">
                <path d="M62.6246038,17.9509091 L51.9432453,17.9509091 L51.9473208,17.5281818 L48.4528302,16.6454545 L48.4528302,29.125 L49.2670189,29.7168182 L51.7231698,28.8163636 L51.7231698,19.2195455 L62.9393208,19.2195455 L62.9393208,25.6590909 C62.9393208,26.2836364 62.6141887,26.5263636 61.9267925,26.4454545 C61.0913208,26.3468182 60.5184906,26.2318182 60.5184906,26.2318182 L60.3378113,26.8813636 L61.5826415,27.5963636 L62.2378868,29.7168182 C65.7753962,29.3881818 66.3033962,28.2809091 66.3033962,26.0181818 L66.3033962,19.2186364 L67.1180377,18.1277273 L64.1501887,15.9090909 L62.6246038,17.9509091 Z" id="Fill-1"></path>
                <path d="M60.3821887,9.74136364 L59.3587925,10.5536364 L55.1791698,10.5536364 L55.1823396,10.1963636 L53.6576604,9.82681818 C54.0611321,9.42863636 54.8467925,8.61136364 55.7035472,7.54454545 L59.1246792,7.54454545 C59.3017358,7.91727273 59.8279245,8.99 60.3821887,9.74136364 Z M54.938717,14.4990909 L59.4489057,14.4990909 L59.4489057,11.8209091 L54.938717,11.8209091 L54.938717,14.4990909 Z M66.7462642,7.54454545 L67.4753208,6.54954545 L64.7003774,4.74181818 L63.5755472,6.27681818 L56.6599245,6.27681818 C57.1883774,5.52818182 57.701434,4.71 58.1289057,3.85909091 C60.7489811,3.51363636 62.6997736,3.10772727 62.6997736,3.10772727 L64.0455849,3.63454545 L64.5649811,3.16863636 L61.5790189,0.127272727 C58.4563019,1.67272727 53.6083019,3.08636364 48.8363774,3.84181818 L49.0555472,4.56590909 C50.6716981,4.56318182 52.2335094,4.38590909 53.8976604,4.325 C53.664,5.01272727 53.3827925,5.66227273 53.0680755,6.27681818 L48.1299623,6.27681818 L48.5126038,7.54454545 L52.3421887,7.54454545 C50.9316226,9.75454545 49.1062642,11.4013636 47.5267925,12.4927273 C46.9349434,11.9940909 46.1366038,11.4418182 45.0579623,10.83 L45.0579623,9.31136364 L48.5175849,9.31136364 L49.1678491,8.43681818 L46.722566,6.27227273 L45.3975849,8.04409091 L45.0579623,8.04409091 L45.0579623,2.18181818 L45.0593208,2.18272727 L46.1284528,1.63954545 L46.1284528,0.940454545 L41.5992453,0 L41.5992453,8.04409091 L37.7003774,8.04409091 L38.0830189,9.31136364 L41.2487547,9.31136364 L41.2487547,9.70590909 C40.4078491,17.2245455 37.1320755,22.0436364 37.1320755,22.0436364 L37.7003774,22.5290909 C37.7003774,22.5290909 40.0804528,20.4468182 41.5992453,17.5863636 L41.5992453,29.1113636 L42.4600755,29.7372727 L45.0579623,28.785 L45.0579623,12.3254545 C45.653434,13.5518182 46.0904151,14.9045455 46.3240755,16.2872727 C47.7758491,16.4127273 48.5696604,16.045 48.9142642,15.2222727 C49.1216604,14.7277273 49.0424151,14.0113636 48.1313208,13.055 C49.3725283,12.52 50.853283,11.7568182 51.8803019,11.1090909 L51.8803019,16.5709091 L52.6283774,17.1145455 L54.936,16.2140909 L54.936,15.7668182 L59.4552453,15.7668182 L59.4552453,16.1340909 L60.2259623,16.6945455 L62.6015094,15.7668182 L62.6015094,11.8040909 C63.4021132,12.4781818 64.4748679,13.385 65.4181132,13.7954545 L66.2295849,11.4195455 L67.4947925,11.1981818 L67.6238491,10.5209091 C64.9729811,10.3259091 62.1726792,9.03772727 60.317434,7.54454545 L66.7462642,7.54454545 Z" id="Fill-3"></path>
                <path d="M58.7615094,24.4709091 L56.0431698,24.4709091 L56.0431698,22.4131818 L58.7628679,22.4131818 L58.7615094,24.4709091 Z M61.4341132,22.1277273 L61.8357736,21.6227273 L59.7169811,20 L58.7628679,21.1995455 L56.1690566,21.1995455 L56.1731321,20.9804545 L53.4339623,20.3259091 L53.4339623,26.3404545 L54.0439245,26.7840909 L56.0481509,26.0495455 L56.0481509,25.6840909 L58.7615094,25.6840909 L58.7615094,25.9840909 L59.3900377,26.4413636 L61.4341132,25.6840909 L61.4341132,22.1277273 Z" id="Fill-5"></path>
                <path d="M123.117872,12.4408636 L120.559381,12.4408636 C120.564815,12.2954091 120.662626,9.01586364 120.687079,7.90268182 L127.774777,7.90268182 C127.252664,9.18222727 126.678928,10.4290455 126.04723,11.6131364 L124.744438,10.4854091 L123.117872,12.4408636 Z M136.804211,19.0149545 C138.606928,17.8599545 140.21674,16.1554091 141.820664,14.4367727 L143.116664,14.3749545 L143.438174,13.6940455 L139.462777,11.7463182 C138.834702,13.4304091 137.406475,16.1272273 136.25357,17.7308636 C135.664891,16.2181364 135.178098,14.4890455 134.820362,12.5349545 C135.51274,11.8281364 136.216438,11.0631364 136.95274,10.2272273 L138.246928,10.3217727 L138.64723,9.68404545 L134.932664,7.27313636 C133.675608,9.87995455 129.687532,14.7217727 126.64723,16.9672273 C126.654928,16.7831364 126.733721,13.8608636 126.733721,13.8608636 C126.733721,13.8608636 127.488136,12.8599545 127.488136,12.8599545 L126.871834,12.3263182 C128.365268,10.6885909 129.901268,8.76359091 131.209042,6.85540909 L142.332815,6.85540909 L143.080891,5.8495 L139.787909,2.93677273 L137.806777,5.58813636 L132.046325,5.58813636 C132.641343,4.64677273 133.163909,3.72722727 133.579608,2.86677273 L134.849343,2.59859091 L135.058098,1.8745 L130.060211,0.353590909 C129.658551,2.37768182 129.078475,4.40631818 128.364362,6.37313636 L125.663683,3.98404545 L123.682551,6.63540909 L122.108966,6.63540909 L122.108966,2.34904545 L123.178098,1.80631818 L123.178098,1.10677273 L118.524815,0.166318182 L118.524815,6.63540909 L113.321343,6.63540909 L113.703985,7.90268182 L117.109268,7.90268182 C117.075758,15.4135909 116.943532,23.7608636 113.020211,29.4440455 L113.589419,29.9295 C118.617192,25.5476818 120.010098,19.8626818 120.478325,13.7081364 L123.432136,13.7081364 C123.21206,21.7558636 122.533268,24.6613182 121.652513,25.4817727 C121.432891,25.7345 121.149419,25.7976818 120.678023,25.7976818 C120.08074,25.7976818 118.965419,25.6126818 118.053419,25.5176818 L117.857343,26.2245 L119.675004,27.2549545 C119.675004,27.2549545 120.389117,29.5581364 120.395004,29.5535909 C121.935985,29.5535909 123.193042,29.1431364 124.167985,28.2276818 C125.408287,27.0408636 126.239683,24.6167727 126.587004,18.2331364 C127.54157,17.8540455 128.419608,17.4313182 129.251457,16.9613182 L129.251457,29.3490455 L130.112287,29.9749545 L132.710174,29.0222273 L132.710174,14.5190455 C133.141721,14.1499545 133.571457,13.7590455 134.001192,13.3458636 C134.131608,20.2231364 135.765419,26.1426818 140.468513,29.8858636 L141.999079,26.7663182 L143.377947,26.7667727 L143.675004,25.9785909 C141.103381,25.1013182 138.600136,22.8699545 136.804211,19.0149545 Z" id="Fill-7"></path>
                <path d="M90.5089811,21.0009091 L98.0486038,21.0009091 C97.0858868,21.8863636 96.0226415,22.7609091 94.8593208,23.5945455 C93.3903396,22.9322727 91.922717,22.085 90.5089811,21.0009091 M97.9521509,24.7368182 C99.7082264,23.6168182 101.217509,22.3454545 102.55834,20.9218182 L103.759698,21.0095455 L104.131019,20.4177273 L100.685434,18.1818182 L99.2644528,19.7331818 L85.5695094,19.7331818 L85.9521509,21.0009091 L88.9675472,21.0009091 C90.1086792,22.3995455 91.3593962,23.7259091 92.8555472,24.9245455 C90.2309434,26.5318182 87.1951698,27.8863636 83.7735849,28.7031818 L84.0950943,29.4795455 C88.490717,28.785 92.010566,27.7463636 94.9276981,26.3895455 C97.1918491,27.7904545 99.9862642,28.9290909 103.646943,29.6663636 L104.204377,27.0159091 L105.540679,26.6745455 L105.634415,25.8322727 C103.475321,25.8081818 100.78234,25.5645455 97.9521509,24.7368182" id="Fill-10"></path>
                <path d="M88.8647547,16.3709091 L90.9726792,16.3709091 L90.9726792,13.0204545 L88.8647547,13.0204545 L88.8647547,16.3709091 Z M101.035019,13.0204545 L101.035019,14.5936364 L101.035019,16.3704545 L98.9270943,16.3704545 L98.9270943,13.0204545 L101.035019,13.0204545 Z M96.0036226,16.3704545 L93.8956981,16.3704545 L93.8956981,13.0204545 L96.0036226,13.0204545 L96.0036226,15.2818182 L96.0036226,16.3704545 Z M85.7447547,10.7954545 L85.7447547,18.43 L86.5209057,18.9945455 L88.8647547,18.135 L88.8647547,17.6381818 L101.035019,17.6381818 L101.035019,17.9772727 L101.811623,18.5422727 L104.155019,17.6827273 L104.15683,13.0195455 L104.971925,11.9286364 L102.237736,9.86909091 L100.712151,11.7518182 L89.1749434,11.7518182 L89.1749434,11.3290909 L85.9335849,10.495 C86.013283,10.3327273 86.0685283,10.1681818 86.0730566,10.0095455 C86.1106415,8.61318182 84.7983396,7.53272727 82.5640755,6.56045455 L82.5640755,2.15272727 L82.565434,2.15363636 L83.634566,1.61045455 L83.634566,0.910909091 L79.245283,0 L79.245283,29.1840909 L79.9661887,29.7081818 L82.5640755,28.7559091 L82.5640755,8.00227273 C83.621434,10.2354545 83.6218868,11.7245455 83.6218868,11.7245455 C84.5298113,11.7863636 85.3209057,11.3418182 85.7447547,10.7954545 Z" id="Fill-12"></path>
                <path d="M78.0018113,8.63636364 C76.4010566,13.1722727 74.7169811,13.9677273 74.7169811,13.9677273 C75.7073208,15.8563636 76.949434,15.9340909 77.7871698,15.4586364 C78.6416604,14.9740909 79.1366038,13.1845455 78.629434,8.67363636 L78.0018113,8.63636364 Z" id="Fill-14"></path>
                <path d="M90.9690566,8.68227273 L99.1575849,8.68227273 L99.1575849,6.62818182 L90.9690566,6.62818182 L90.9690566,8.68227273 Z M90.9690566,5.36090909 L99.1575849,5.36090909 L99.1575849,3.31045455 L90.9690566,3.31045455 L90.9690566,5.36090909 Z M90.9690566,10.2395455 L90.9690566,9.95 L99.1575849,9.95 L99.1575849,10.3104545 L99.9337358,10.875 L102.277585,10.0159091 L102.277585,3.30954545 L103.092226,2.21863636 L100.124377,0 L98.5987925,2.04181818 L91.3390189,2.04181818 L91.3430943,1.61909091 L87.8490566,0.736363636 L87.8490566,10.5340909 L88.6252075,11.0986364 L90.9690566,10.2395455 Z" id="Fill-15"></path>
                <path d="M12.3341887,20.8995455 C12.3631698,20.0072727 11.4511698,18.8263636 7.16784906,18.1818182 L6.79245283,18.7968182 C8.15184906,19.86 9.37313208,21.2586364 10.2946415,22.8240909 C11.6947925,22.42 12.3052075,21.7918182 12.3341887,20.8995455" id="Fill-16"></path>
                <path d="M13.1719245,22.2727273 C13.1719245,22.2727273 8.90445283,23.845 4.98113208,24.8027273 L6.13675472,28.605 L6.79471698,28.3745455 L7.0469434,27.4472727 C9.98762264,25.8263636 11.9193962,24.4722727 13.5500377,22.885 L13.1719245,22.2727273 Z" id="Fill-17"></path>
                <path d="M18.0787925,16.0336364 L22.2738113,16.0336364 L22.2738113,13.3390909 L18.0787925,13.3390909 L18.0787925,16.0336364 Z M18.0787925,12.0718182 L22.2738113,12.0718182 L22.2738113,9.37227273 L18.0787925,9.37227273 L18.0787925,12.0718182 Z M26.2999245,20.6336364 L27.501283,20.7213636 L27.8726038,20.1295455 L24.4252075,17.8922727 C23.7681509,19.2763636 21.8558491,21.4468182 21.258566,21.7581818 C19.973434,20.8018182 18.965434,19.85 18.0787925,18.6604545 L18.0787925,17.3013636 L22.2738113,17.3013636 L23.1581887,17.9440909 L25.8262642,16.9659091 L25.8262642,13.3390909 L29.1753962,13.3390909 L29.904,12.3445455 L27.0104151,10.4586364 L26.0046792,12.0713636 L26.0028679,12.0713636 L25.8262642,12.0713636 L25.8262642,9.37227273 L26.5553208,8.37727273 L23.2967547,6.25409091 L21.9142642,8.10454545 L18.0787925,8.10454545 L18.0787925,7.355 L19.1479245,6.81181818 L19.1479245,6.11272727 L14.4316981,5.15409091 L14.4316981,8.10454545 L7.92316981,8.10454545 L8.30581132,9.37227273 L14.4316981,9.37227273 L14.4316981,12.0713636 L6.1485283,12.0713636 L6.1485283,4.97772727 L28.6098113,4.97772727 L29.3578868,3.97181818 L26.0649057,1.05863636 L24.0842264,3.71 L17.261434,3.71 L17.261434,2.18272727 L18.330566,1.63954545 L18.330566,0.94 L13.677283,0 L13.677283,3.71 L6.86807547,3.71 L6.86807547,2.88909091 L6.87169811,2.88181818 L2.59562264,1.99909091 L2.59562264,12.2454545 C2.59562264,18.7368182 2.58611321,22.8372727 0,28.3377273 L0.880301887,28.9340909 C5.66898113,23.4777273 6.12498113,18.9695455 6.14581132,13.465 L6.1485283,13.465 L6.1485283,13.3390909 L14.4316981,13.3390909 L14.4316981,16.0336364 L7.72754717,16.0336364 L8.11018868,17.3013636 L14.4316981,17.3013636 L14.4316981,25.3622727 C14.4316981,26.0418182 14.0961509,26.2363636 13.3462642,26.1677273 C12.4455849,26.0854545 11.0531321,25.7895455 11.0531321,25.7895455 L10.8566038,26.4963636 L12.674717,27.5268182 L13.3942642,29.8245455 C17.4815094,29.4772727 18.0787925,28.2145455 18.0787925,25.7527273 L18.0787925,20.6122727 C19.9503396,23.7677273 23.0975094,26.9222727 26.5784151,29.0077273 L27.7856604,26.5186364 L29.0685283,26.4636364 L29.2813585,25.8154545 C26.9628679,25.0718182 24.7693585,24.0318182 22.7719245,22.7640909 C24.5049057,22.0181818 26.2999245,20.6336364 26.2999245,20.6336364 Z" id="Fill-18"></path>
            </g>
        </g>
    </g>
</svg>