<?xml version="1.0" encoding="UTF-8"?>
<svg width="25px" height="25px" viewBox="0 0 25 25" version="1.1" xmlns="http://www.w3.org/2000/svg" xmlns:xlink="http://www.w3.org/1999/xlink">
    <title>Fill 1</title>
    <g id="Symbol" stroke="none" stroke-width="1" fill="none" fill-rule="evenodd">
        <g id="footer/1440TW-red" transform="translate(-1173.000000, -63.000000)" fill="#FFFFFF">
            <g id="Group-4" transform="translate(1173.000000, 63.000000)">
                <path d="M24.6,12.3751561 C24.6,5.54052591 19.0930867,6.75015599e-14 12.2999769,6.75015599e-14 C5.50686719,6.75015599e-14 1.81188398e-13,5.54052591 1.81188398e-13,12.3751561 C1.81188398e-13,18.5519677 4.49792831,23.6716289 10.3781315,24.6 L10.3781315,15.9523431 L7.25505191,15.9523431 L7.25505191,12.3751561 L10.3781315,12.3751561 L10.3781315,9.64874767 C10.3781315,6.5472319 12.214415,4.83402648 15.0240289,4.83402648 C16.3697266,4.83402648 17.7773241,5.07571388 17.7773241,5.07571388 L17.7773241,8.12117006 L16.2263239,8.12117006 C14.6983401,8.12117006 14.2218685,9.07511135 14.2218685,10.0537875 L14.2218685,12.3751561 L17.6331834,12.3751561 L17.0878472,15.9523431 L14.2218685,15.9523431 L14.2218685,24.6 C20.1020256,23.6716289 24.6,18.5519677 24.6,12.3751561" id="Fill-1"></path>
            </g>
        </g>
    </g>
</svg>