<?xml version="1.0" encoding="UTF-8"?>
<svg width="230px" height="35px" viewBox="0 0 230 35" version="1.1" xmlns="http://www.w3.org/2000/svg" xmlns:xlink="http://www.w3.org/1999/xlink">
    <!-- Generator: Sketch 50.2 (55047) - http://www.bohemiancoding.com/sketch -->
    <title>Fill 1 Copy 2</title>
    <desc>Created with Sketch.</desc>
    <defs></defs>
    <g id="Symbol" stroke="none" stroke-width="1" fill="none" fill-rule="evenodd">
        <g id="header/original/1440/TW" transform="translate(-60.000000, -36.000000)" fill="#FFFFFF">
            <path d="M196.642764,58.6117697 L192.90674,59.4860288 L192.90674,59.9305673 L194.152082,60.5529213 L194.152082,69.7400508 L192.90674,70.1994073 L192.90674,70.703641 L197.754677,70.703641 L197.754677,70.0808637 L196.70249,69.9326842 L196.70249,58.6862828 L196.642764,58.6117697 Z M188.952993,63.257409 C189.076256,63.2921253 189.190201,63.3657917 189.293979,63.4796782 C189.397757,63.5935648 189.484169,63.7514818 189.553213,63.9538527 C189.622258,64.1566469 189.656992,64.4254869 189.656992,64.7612193 C189.656992,64.9491956 189.642166,65.1316681 189.612515,65.3094835 L187.226034,65.5021169 C187.245519,65.2256562 187.282371,64.9517358 187.337014,64.6799323 C187.391233,64.4081287 187.475103,64.1638442 187.589047,63.9466554 C187.702568,63.7290432 187.843199,63.5512278 188.011786,63.4127858 C188.179525,63.2747671 188.382423,63.2057578 188.619207,63.2057578 C188.718326,63.2057578 188.829306,63.223116 188.952993,63.257409 Z M191.806688,68.8213378 C191.688084,68.9204064 191.544913,69.0215919 191.376749,69.1253175 C191.208586,69.2290432 191.02602,69.3255715 190.828206,69.4144793 C190.630391,69.503387 190.415633,69.5749365 190.183509,69.6287045 C189.95096,69.6833192 189.716294,69.7104149 189.479086,69.7104149 C189.103365,69.7104149 188.772545,69.627011 188.485778,69.4585097 C188.19901,69.2908552 187.959685,69.0563082 187.766953,68.7548688 C187.574222,68.4534293 187.428085,68.0977985 187.329389,67.6875529 C187.230694,67.2781541 187.181558,66.8310754 187.181558,66.3471634 L192.029071,66.3471634 L192.073547,66.3022862 C192.093456,66.1939035 192.10574,66.0901778 192.110823,65.9915326 C192.115482,65.892464 192.118024,65.7836579 192.118024,65.6651143 C192.118024,65.2108383 192.058722,64.7836579 191.940118,64.3835732 C191.821514,63.9834886 191.643608,63.6325148 191.4064,63.3310754 C191.169192,63.0304826 190.867599,62.7929721 190.502045,62.6202371 C190.136491,62.4475021 189.711211,62.3607113 189.227052,62.3607113 C188.505686,62.3607113 187.863107,62.4843353 187.299738,62.73116 C186.73637,62.9779848 186.259412,63.3141406 185.86929,63.7387807 C185.478744,64.1638442 185.182234,64.6528366 184.97976,65.2057578 C184.776863,65.7595258 184.676049,66.3471634 184.676049,66.969094 C184.676049,67.5224386 184.764579,68.0431837 184.942485,68.5325995 C185.120391,69.0215919 185.38259,69.4491956 185.728236,69.8141406 C186.074305,70.1799323 186.499162,70.4686706 187.003228,70.6812024 C187.507295,70.8937341 188.085489,71 188.737811,71 C189.449858,71 190.104298,70.8463167 190.702401,70.5406435 C191.30008,70.2341236 191.806688,69.8687553 192.221802,69.4436918 L191.806688,68.8213378 Z M183.795415,63.8869602 L183.973321,62.7612193 L181.482638,62.7612193 L181.482638,60.7904318 L180.990432,60.7904318 L178.739922,62.73116 L177.687312,63.353514 L177.687312,63.8869602 L178.932653,63.8869602 L178.932653,67.8289585 C178.932653,68.2730737 178.947479,68.6858594 178.97713,69.0656224 C179.006781,69.4466554 179.094039,69.7722269 179.238058,70.0440305 C179.382077,70.315834 179.603189,70.5304826 179.901817,70.6883997 C180.200445,70.8463167 180.617676,70.9254869 181.154783,70.9254869 C181.462306,70.9254869 181.759239,70.8831499 182.046007,70.799746 C182.332351,70.7154953 182.602175,70.6121931 182.853784,70.488569 C183.105818,70.3653683 183.333283,70.2366638 183.536181,70.1033023 C183.738231,69.9699407 183.903853,69.8539373 184.032623,69.7548688 L183.810241,69.1769687 C183.592518,69.2955123 183.395127,69.38442 183.217221,69.4436918 C183.039315,69.503387 182.836417,69.5325995 182.609376,69.5325995 C182.342517,69.5325995 182.132418,69.4733277 181.97908,69.3547841 C181.826166,69.2366638 181.712221,69.0808637 181.638518,68.8878069 C181.563966,68.6951736 181.51949,68.4784081 181.504665,68.2358171 C181.490263,67.9940728 181.482638,67.7447079 181.482638,67.4877223 L181.482638,63.8869602 L183.795415,63.8869602 Z M171.697812,69.1570703 C171.42587,68.5702794 171.290323,67.6215072 171.290323,66.3107536 C171.290323,65.8869602 171.317432,65.4877223 171.371651,65.1130398 C171.42587,64.7383573 171.512705,64.4157494 171.631309,64.1443692 C171.749913,63.8738357 171.898168,63.6591871 172.076074,63.5012701 C172.25398,63.3437765 172.466196,63.2646063 172.71357,63.2646063 C173.059216,63.2646063 173.3409,63.3585944 173.558623,63.545724 C173.775923,63.7332769 173.944086,63.9944962 174.06269,64.3293819 C174.181294,64.6646909 174.262623,65.0685859 174.307523,65.5419136 C174.351576,66.014818 174.374026,66.5325995 174.374026,67.0939881 C174.374026,67.488569 174.351576,67.8632515 174.307523,68.2176122 C174.262623,68.5728196 174.185954,68.8861135 174.077516,69.1566469 C173.968654,69.4280271 173.822941,69.6422523 173.639952,69.8001693 C173.456963,69.9580864 173.22738,70.0364098 172.950778,70.0364098 C172.387409,70.0364098 171.969754,69.7434378 171.697812,69.1570703 Z M174.49983,70.6511431 C175.068282,70.4195597 175.540157,70.1011854 175.915877,69.6960203 C176.291174,69.2908552 176.570317,68.8166808 176.753306,68.2730737 C176.936294,67.7298899 177.027789,67.1469094 177.027789,66.5245555 C177.027789,65.9813717 176.946037,65.457663 176.782957,64.9538527 C176.619876,64.4500423 176.377585,64.0055038 176.056507,63.6202371 C175.735429,63.2349704 175.335141,62.9288738 174.855642,62.7015241 C174.376143,62.4745978 173.815316,62.3607113 173.173161,62.3607113 C172.520839,62.3607113 171.917653,62.4572396 171.36445,62.649873 C170.810824,62.8425064 170.333867,63.1265876 169.933578,63.5021169 C169.53329,63.8776461 169.219413,64.338696 168.992371,64.8873836 C168.764906,65.4356478 168.651385,66.065199 168.651385,66.7764606 C168.651385,67.2705334 168.725512,67.7692633 168.873767,68.2730737 C169.022022,68.7773074 169.251606,69.2315834 169.562941,69.6363251 C169.874276,70.0414903 170.272023,70.369602 170.756605,70.6219306 C171.240763,70.8738357 171.818958,71 172.491188,71 C173.262114,71 173.931379,70.8831499 174.49983,70.6511431 Z M166.463142,61.6198137 L167.841913,61.3382727 L167.841913,60.6274344 L162.682641,60.6274344 L162.682641,61.2938188 L163.779728,61.7087214 L163.779728,64.850127 L159.850972,64.850127 L159.850972,61.6198137 L160.948058,61.3382727 L160.948058,60.6274344 L155.773961,60.6274344 L155.773961,61.2938188 L157.152732,61.7087214 L157.152732,69.665961 L155.773961,70.0067739 L155.773961,70.703641 L160.948058,70.703641 L160.948058,69.991956 L159.850972,69.784928 L159.850972,65.9026249 L163.779728,65.9026249 L163.779728,69.665961 L162.682641,70.0067739 L162.682641,70.703641 L167.841913,70.703641 L167.841913,69.991956 L166.463142,69.784928 L166.463142,61.6198137 Z M288.467214,42.557155 L289.25,42.0728196 L289.25,41.2531753 L285.820651,41.2531753 L285.820651,42.0914479 L287.069382,42.6689246 L284.907401,48.723116 L284.83285,48.723116 L282.614956,42.557155 L283.863686,42.0728196 L283.863686,41.2531753 L278.36597,41.2531753 L278.36597,42.0914479 L279.391047,42.6689246 L282.894523,51.4801016 L283.602758,51.4801016 L283.267278,52.2252329 C283.044048,52.7218459 282.816583,53.1037257 282.586999,53.3708721 C282.356993,53.6375953 282.155366,53.827265 281.981272,53.9390347 L279.577001,52.4301439 L279.539725,52.4301439 C279.266512,52.6287045 279.042436,52.8801863 278.868766,53.1845893 C278.694672,53.4889924 278.607837,53.8458933 278.607837,54.2557155 C278.607837,54.5410669 278.660785,54.7895851 278.766258,55.0008467 C278.871731,55.2121084 279.014903,55.3856901 279.19535,55.5224386 C279.37495,55.6587638 279.583354,55.7582557 279.819292,55.8204911 C280.055229,55.8827265 280.309804,55.9136325 280.58344,55.9136325 C281.254399,55.9136325 281.850808,55.7209992 282.373089,55.3361558 C282.894523,54.9508891 283.351148,54.4758679 283.742541,53.9110923 C284.133934,53.3458933 284.469414,52.7468247 284.74898,52.1134632 C285.028547,51.4801016 285.261519,50.9212532 285.447896,50.4369179 L288.467214,42.557155 Z M273.868338,49.4309907 C273.570134,49.592718 273.296921,49.7074513 273.0487,49.7756139 C272.800056,49.8441998 272.588686,49.8780694 272.415016,49.8780694 C272.290482,49.8780694 272.156629,49.8564776 272.014304,49.8128704 C271.871133,49.7696867 271.740668,49.6981372 271.622911,49.5986452 C271.504307,49.4991533 271.405188,49.3657917 271.324707,49.1981372 C271.243379,49.0304826 271.203138,48.822608 271.203138,48.5740898 C271.203138,48.0029636 271.43611,47.5436071 271.902478,47.195597 C272.367998,46.8480102 273.023285,46.5499577 273.868338,46.3014395 L273.868338,49.4309907 Z M273.038958,42.5198984 C273.281672,42.6439458 273.464661,42.8179509 273.588772,43.0414903 C273.712882,43.2650296 273.790822,43.5292125 273.822168,43.8331922 C273.852666,44.1375953 273.868338,44.4758679 273.868338,44.8484335 L273.868338,45.2396274 C273.346905,45.4136325 272.750496,45.6185436 272.079537,45.8543607 C271.408577,46.0906012 270.774893,46.3573243 270.178485,46.6553768 C269.47025,46.9906859 268.947969,47.3480102 268.612489,47.726503 C268.277009,48.1054191 268.109693,48.6113463 268.109693,49.2447079 C268.109693,49.6295512 268.184244,49.9712108 268.333346,50.2692633 C268.482872,50.5673158 268.678568,50.8217612 268.921706,51.0330229 C269.164421,51.2442845 269.4478,51.4055885 269.771843,51.5173582 C270.095038,51.6291279 270.431365,51.6850127 270.779976,51.6850127 C271.054036,51.6850127 271.334026,51.6414056 271.620793,51.5546147 C271.907137,51.4674005 272.193058,51.3590178 272.479825,51.2286198 C272.766169,51.0982218 273.04277,50.9491956 273.3109,50.7815411 C273.578606,50.6138865 273.824285,50.4432684 274.048362,50.2692633 C274.17332,50.6668078 274.391043,51.0050804 274.702378,51.2845047 C275.013714,51.5639289 275.492365,51.703641 276.140451,51.703641 C276.364528,51.703641 276.604277,51.6634208 276.859276,51.5825572 C277.114698,51.5016935 277.372662,51.3992379 277.63359,51.2751905 C277.894095,51.1511431 278.146129,51.0177815 278.387996,50.8746825 C278.630711,50.7320068 278.850975,50.5922947 279.05006,50.4555461 L278.807769,49.6917866 C278.571409,49.7912786 278.350721,49.8721423 278.146129,49.9339543 C277.941113,49.9961897 277.764055,50.0270957 277.614529,50.0270957 C277.365884,50.0270957 277.214241,49.9093988 277.158327,49.6731583 C277.10199,49.4373412 277.074457,49.1143099 277.074457,48.7044877 L277.074457,44.811177 C277.074457,44.3640982 277.055396,43.9110923 277.01812,43.4513124 C276.980421,42.991956 276.858429,42.5728196 276.652566,42.1939035 C276.445856,41.8149873 276.126896,41.5046571 275.696534,41.2624894 C275.265323,41.0203218 274.656207,40.8869602 273.868338,40.8619814 L273.532859,40.8619814 C273.421456,40.8619814 273.296921,40.8683319 273.160527,40.8806097 C272.886891,40.9055885 272.579368,40.9674005 272.237958,41.0668925 C271.8957,41.1663844 271.541583,41.2904318 271.175605,41.4394581 C270.80878,41.5884843 270.451274,41.7561389 270.103934,41.9424217 C269.755746,42.1287045 269.448223,42.3213378 269.181364,42.5198984 C268.913658,42.7188823 268.696359,42.9237934 268.529043,43.1346317 C268.360879,43.3458933 268.277009,43.5444539 268.277009,43.7307367 C268.277009,44.0287892 268.373587,44.2709568 268.566318,44.4572396 C268.758626,44.6435224 269.097494,44.7366638 269.581653,44.7366638 C269.867573,44.7366638 270.131467,44.7243861 270.373758,44.6994073 C270.616472,44.6744285 270.861728,44.6248942 271.110373,44.550381 L271.110373,42.557155 C271.321319,42.4081287 271.63816,42.3336156 272.060899,42.3336156 C272.47093,42.3336156 272.796667,42.395851 273.038958,42.5198984 Z M258.848419,39.7629128 C259.594353,39.7629128 260.227613,39.9276037 260.749894,40.2565622 C261.271752,40.5859441 261.697031,41.0173582 262.026157,41.5512278 C262.355707,42.0855207 262.597998,42.6939035 262.753454,43.3767993 C262.908486,44.0601185 262.986426,44.7616427 262.986426,45.4817951 C262.986426,46.0779001 262.927124,46.6553768 262.809367,47.2142252 C262.691187,47.7730737 262.483206,48.2730737 262.184578,48.7138019 C261.886374,49.1545301 261.486086,49.5055038 260.982866,49.7662997 C260.479647,50.0270957 259.848928,50.1574936 259.091133,50.1574936 L257.897893,50.1574936 L257.897893,39.7629128 L258.848419,39.7629128 Z M252.772931,38.6638442 L252.772931,39.5021169 L254.506243,40.0237087 L254.506243,50.0270957 L252.772931,50.4555461 L252.772931,51.3310754 L258.792929,51.3310754 C260.109856,51.3310754 261.262433,51.1604572 262.250234,50.8187976 C263.238036,50.477138 264.060639,50.0021169 264.719738,49.3937341 C265.378413,48.7853514 265.874856,48.0588484 266.210335,47.2142252 C266.545815,46.3700254 266.713979,45.4445385 266.713979,44.4386113 C266.713979,43.5694327 266.561488,42.7777307 266.257353,42.0635055 C265.952795,41.3492803 265.493205,40.7408975 264.878159,40.237934 C264.263113,39.7349704 263.492187,39.3467401 262.567076,39.0736664 C261.641118,38.8005927 260.550809,38.6638442 259.296149,38.6638442 L252.772931,38.6638442 Z M239.875599,47.8475868 L238.776394,47.8475868 L238.962348,51.0143946 C239.434223,51.2006774 240.002675,51.3619814 240.668127,51.4987299 C241.33231,51.635055 242.068501,51.703641 242.876279,51.703641 C243.385852,51.703641 243.901356,51.6443692 244.423213,51.5262489 C244.945071,51.4081287 245.416945,51.2188823 245.840107,50.9572396 C246.262422,50.6960203 246.606797,50.3602879 246.874079,49.9491956 C247.141362,49.53895 247.274791,49.0474174 247.274791,48.4745978 C247.274791,47.9525826 247.141362,47.4949196 246.874079,47.1033023 C246.606797,46.711685 246.271317,46.3632515 245.86764,46.0580017 C245.463963,45.7531753 245.025975,45.4796782 244.553678,45.2370872 C244.08138,44.9940728 243.643392,44.7578323 243.239715,44.5275191 C242.836038,44.2976291 242.500558,44.0643522 242.233276,43.8281118 C241.965994,43.5914479 241.832988,43.3175275 241.832988,43.0063506 C241.832988,42.6083827 242.006658,42.3035563 242.354421,42.0918713 C242.702185,41.8806097 243.105862,41.7747671 243.565876,41.7747671 C243.814097,41.7747671 244.056812,41.8243014 244.292749,41.9237934 L245.61603,44.2709568 L246.380178,44.2709568 L246.957949,41.4640135 C246.796139,41.3911939 246.591548,41.3183743 246.342903,41.2451312 C246.094258,41.1723116 245.824011,41.1054191 245.53216,41.0440305 C245.24031,40.9834886 244.93914,40.934801 244.628229,40.8979678 C244.31774,40.861558 244.013182,40.8433531 243.714978,40.8433531 C242.894917,40.8433531 242.187105,40.9364945 241.590273,41.1227773 C240.993865,41.3090601 240.502929,41.5512278 240.118313,41.8492803 C239.732851,42.1473328 239.447354,42.4762913 239.260553,42.8365792 C239.074175,43.1968671 238.980986,43.5508044 238.980986,43.8983912 C238.980986,44.3704488 239.114839,44.7832345 239.381698,45.1371719 C239.648557,45.4911092 239.984037,45.8107536 240.388137,46.0965284 C240.792238,46.3823031 241.226837,46.6460627 241.692781,46.8882303 C242.158725,47.130398 242.593324,47.369602 242.997848,47.6054191 C243.401101,47.8412362 243.736581,48.0897544 244.004287,48.3505504 C244.270722,48.6113463 244.404575,48.9034716 244.404575,49.2260796 C244.404575,49.5863675 244.239801,49.9060119 243.910675,50.1854361 C243.581549,50.4648603 243.093578,50.6045724 242.448034,50.6045724 C242.310792,50.6045724 242.155336,50.5922947 241.981666,50.5673158 C241.807573,50.5427604 241.65254,50.4991533 241.516146,50.4369179 L239.875599,47.8475868 Z M229.856107,47.8475868 L228.756479,47.8475868 L228.942856,51.0143946 C229.41473,51.2006774 229.983182,51.3619814 230.648212,51.4987299 C231.312817,51.635055 232.049009,51.703641 232.856787,51.703641 C233.365936,51.703641 233.881864,51.6443692 234.403721,51.5262489 C234.925578,51.4081287 235.397453,51.2188823 235.820191,50.9572396 C236.242506,50.6960203 236.587304,50.3602879 236.854587,49.9491956 C237.121869,49.53895 237.255299,49.0474174 237.255299,48.4745978 C237.255299,47.9525826 237.121869,47.4949196 236.854587,47.1033023 C236.587304,46.711685 236.251825,46.3632515 235.848148,46.0580017 C235.444471,45.7531753 235.00606,45.4796782 234.534185,45.2370872 C234.061887,44.9940728 233.6239,44.7578323 233.220223,44.5275191 C232.816122,44.2976291 232.480643,44.0643522 232.213784,43.8281118 C231.946501,43.5914479 231.813072,43.3175275 231.813072,43.0063506 C231.813072,42.6083827 231.986742,42.3035563 232.334929,42.0918713 C232.682693,41.8806097 233.08637,41.7747671 233.546384,41.7747671 C233.794605,41.7747671 234.036896,41.8243014 234.273257,41.9237934 L235.596538,44.2709568 L236.360686,44.2709568 L236.938457,41.4640135 C236.776647,41.3911939 236.572055,41.3183743 236.323411,41.2451312 C236.074766,41.1723116 235.804518,41.1054191 235.512668,41.0440305 C235.220394,40.9834886 234.919225,40.934801 234.608736,40.8979678 C234.297825,40.861558 233.99369,40.8433531 233.695486,40.8433531 C232.875424,40.8433531 232.167189,40.9364945 231.570781,41.1227773 C230.974372,41.3090601 230.483437,41.5512278 230.098397,41.8492803 C229.712935,42.1473328 229.427438,42.4762913 229.24106,42.8365792 C229.054683,43.1968671 228.961494,43.5508044 228.961494,43.8983912 C228.961494,44.3704488 229.094923,44.7832345 229.362206,45.1371719 C229.629065,45.4911092 229.964544,45.8107536 230.368645,46.0965284 C230.772322,46.3823031 231.207344,46.6460627 231.673289,46.8882303 C232.139233,47.130398 232.573831,47.369602 232.977932,47.6054191 C233.381185,47.8412362 233.716665,48.0897544 233.984371,48.3505504 C234.25123,48.6113463 234.385083,48.9034716 234.385083,49.2260796 C234.385083,49.5863675 234.220308,49.9060119 233.891182,50.1854361 C233.561633,50.4648603 233.074086,50.6045724 232.428118,50.6045724 C232.2913,50.6045724 232.135844,50.5922947 231.962174,50.5673158 C231.78808,50.5427604 231.632624,50.4991533 231.49623,50.4369179 L229.856107,47.8475868 Z M223.260033,41.9703641 C223.415065,42.0139712 223.558237,42.1071126 223.688701,42.2497883 C223.819165,42.3928874 223.927603,42.5914479 224.014862,42.8458933 C224.101697,43.1007621 224.145326,43.4390347 224.145326,43.8611346 C224.145326,44.0973751 224.126689,44.3268417 224.089413,44.550381 L221.088733,44.7925487 C221.113725,44.4449619 221.160319,44.1003387 221.228516,43.7586791 C221.296714,43.4174428 221.402186,43.1100762 221.545358,42.8365792 C221.688107,42.5635055 221.865165,42.3399661 222.076535,42.165961 C222.287904,41.991956 222.542902,41.9051651 222.840683,41.9051651 C222.964793,41.9051651 223.104577,41.9271804 223.260033,41.9703641 Z M226.847802,48.9652837 C226.6987,49.0897544 226.518253,49.2167655 226.307307,49.3471634 C226.095938,49.4775614 225.865931,49.5986452 225.61771,49.7104149 C225.369065,49.8221846 225.098817,49.9123624 224.806967,49.980525 C224.515117,50.0491109 224.219877,50.0829805 223.921673,50.0829805 C223.449375,50.0829805 223.033414,49.9775614 222.672943,49.7662997 C222.312472,49.5554615 222.011302,49.2603726 221.769011,48.8814564 C221.526721,48.5025402 221.343308,48.0558848 221.219621,47.5402202 C221.095087,47.0249788 221.03282,46.4627434 221.03282,45.8543607 L227.127369,45.8543607 L227.183282,45.7984759 C227.20785,45.6617273 227.223522,45.5317528 227.229876,45.407282 C227.23623,45.2832345 227.239195,45.146486 227.239195,44.9974598 C227.239195,44.4263336 227.164644,43.8890771 227.015542,43.3861135 C226.866863,42.8831499 226.642787,42.4424217 226.344582,42.0635055 C226.046378,41.6845893 225.667269,41.3869602 225.208102,41.169348 C224.748089,40.9521592 224.213524,40.8433531 223.604831,40.8433531 C222.697935,40.8433531 221.890157,40.9987299 221.181922,41.3090601 C220.473687,41.6198137 219.874313,42.0419136 219.383801,42.5757832 C218.892442,43.1100762 218.519263,43.7248095 218.265112,44.4199831 C218.010113,45.11558 217.883461,45.8543607 217.883461,46.6367485 C217.883461,47.3323455 217.994864,47.9872989 218.218941,48.6020322 C218.442171,49.2167655 218.771297,49.754022 219.206319,50.2133785 C219.641341,50.6731583 220.175483,51.0364098 220.809167,51.3031329 C221.442851,51.5698561 222.169723,51.703641 222.989785,51.703641 C223.884821,51.703641 224.707424,51.5110076 225.459289,51.1261643 C226.211153,50.7413209 226.847802,50.2815411 227.369659,49.7476715 L226.847802,48.9652837 Z M217.176921,51.3310754 L217.176921,50.5486876 L215.779088,50.3624047 L215.779088,45.8543607 C215.779088,45.1837426 215.760451,44.5444539 215.723175,43.9356478 C215.6859,43.327265 215.571108,42.7929721 215.377953,42.3336156 C215.185221,41.8742591 214.875157,41.5110076 214.446065,41.2438611 C214.01782,40.9767146 213.412092,40.8433531 212.629306,40.8433531 C212.256127,40.8433531 211.89608,40.9026249 211.547892,41.0203218 C211.200129,41.138442 210.876933,41.2811177 210.578729,41.4487722 C210.280524,41.6164268 210.010701,41.799746 209.767986,41.9983065 C209.526119,42.1972904 209.323645,42.3772227 209.162682,42.5385267 L209.125407,42.5385267 L209.367698,40.9737511 L209.23681,40.8433531 L204.633706,41.7933954 L204.633706,42.4453853 L206.18064,43.1346317 L206.18064,50.1202371 L204.633706,50.6977138 L204.633706,51.3310754 L210.504601,51.3310754 L210.504601,50.5486876 L209.386335,50.3624047 L209.386335,43.3767993 C209.560005,43.2404742 209.796366,43.118967 210.09457,43.0135478 C210.392775,42.9081287 210.684202,42.8552075 210.970545,42.8552075 C211.355161,42.8552075 211.656754,42.926757 211.874477,43.0694327 C212.091776,43.2125318 212.253586,43.4017782 212.359059,43.6375953 C212.464532,43.8738357 212.526799,44.1405588 212.545436,44.4386113 C212.564074,44.7366638 212.572969,45.0410669 212.572969,45.3513971 L212.572969,50.1202371 L211.827882,50.6977138 L211.827882,51.3310754 L217.176921,51.3310754 Z M198.081261,42.1939035 C198.35405,42.2993226 198.602271,42.4331075 198.826348,42.5944115 L198.826348,49.2447079 C198.640394,49.4064352 198.412928,49.5397968 198.146493,49.6452159 C197.878364,49.7510584 197.645815,49.8035563 197.447153,49.8035563 C197.161233,49.8035563 196.881243,49.7260796 196.608454,49.5707028 C196.334394,49.4157494 196.089562,49.1731583 195.872262,48.8441998 C195.654539,48.5152413 195.477481,48.0931414 195.341086,47.5774767 C195.204268,47.0622354 195.135647,46.4441152 195.135647,45.7239627 C195.135647,45.0287892 195.194526,44.4449619 195.312706,43.9729043 C195.43131,43.5008467 195.585919,43.1223539 195.77865,42.8365792 C195.971381,42.5512278 196.194611,42.3458933 196.449609,42.2218459 C196.704608,42.0977985 196.962572,42.0355631 197.223077,42.0355631 C197.521704,42.0355631 197.807201,42.0884843 198.081261,42.1939035 Z M198.826348,41.0668925 C198.35405,40.9178662 197.90632,40.8433531 197.484429,40.8433531 C196.813469,40.8433531 196.14844,40.9614733 195.489765,41.1972904 C194.831513,41.4335309 194.241458,41.796359 193.719601,42.2870449 C193.197743,42.7777307 192.778394,43.3954276 192.461552,44.1405588 C192.14471,44.8856901 191.986289,45.7612193 191.986289,46.7671465 C191.986289,47.4750212 192.06677,48.1299746 192.229003,48.7324301 C192.390813,49.3348857 192.624208,49.8594412 192.92919,50.3065199 C193.234172,50.7535986 193.610739,51.1045724 194.058469,51.3590178 C194.507046,51.6134632 195.023397,51.7408975 195.609216,51.7408975 C195.957403,51.7408975 196.296695,51.6913633 196.625821,51.5918713 C196.955794,51.4923793 197.264588,51.3590178 197.550932,51.1913633 C197.836852,51.0237087 198.110912,50.8310754 198.372264,50.6138865 C198.633617,50.3966977 198.875907,50.1761219 199.100408,49.9525826 L199.156745,49.9712108 L199.006795,51.573243 L199.119469,51.6850127 L203.597615,50.9026249 L203.523064,49.9339543 L202.032467,50.0643522 L202.032467,36.2235394 L201.938007,36.130398 L197.260352,37.2294666 L197.260352,37.788315 L198.826348,38.5707028 L198.826348,41.0668925 Z M191.192066,51.3310754 L191.192066,50.5486876 L189.794657,50.3624047 L189.794657,45.8543607 C189.794657,45.1837426 189.776019,44.5444539 189.738744,43.9356478 C189.701045,43.327265 189.586253,42.7929721 189.393945,42.3336156 C189.20079,41.8742591 188.890726,41.5110076 188.462057,41.2438611 C188.032965,40.9767146 187.427661,40.8433531 186.644451,40.8433531 C186.27212,40.8433531 185.911648,40.9026249 185.563885,41.0203218 C185.215697,41.138442 184.892925,41.2811177 184.594721,41.4487722 C184.296517,41.6164268 184.025846,41.799746 183.783978,41.9983065 C183.541264,42.1972904 183.339213,42.3772227 183.177827,42.5385267 L183.140975,42.5385267 L183.382843,40.9737511 L183.252802,40.8433531 L178.649274,41.7933954 L178.649274,42.4453853 L180.195785,43.1346317 L180.195785,50.1202371 L178.649274,50.6977138 L178.649274,51.3310754 L184.519746,51.3310754 L184.519746,50.5486876 L183.401904,50.3624047 L183.401904,43.3767993 C183.575574,43.2404742 183.811511,43.118967 184.110139,43.0135478 C184.408343,42.9081287 184.69977,42.8552075 184.98569,42.8552075 C185.37073,42.8552075 185.672323,42.926757 185.890046,43.0694327 C186.106921,43.2125318 186.268731,43.4017782 186.374204,43.6375953 C186.479677,43.8738357 186.541944,44.1405588 186.561005,44.4386113 C186.579643,44.7366638 186.588962,45.0410669 186.588962,45.3513971 L186.588962,50.1202371 L185.843028,50.6977138 L185.843028,51.3310754 L191.192066,51.3310754 Z M173.25576,38.7756139 C173.609877,39.0736664 174.041087,39.2226926 174.550661,39.2226926 C175.047527,39.2226926 175.479584,39.0736664 175.845985,38.7756139 C176.212387,38.4775614 176.395799,38.092718 176.395799,37.6206605 C176.395799,37.3848434 176.34624,37.1672312 176.247121,36.9686706 C176.147155,36.7701101 176.013725,36.599492 175.845985,36.4563929 C175.678245,36.3137172 175.482549,36.2019475 175.259319,36.1210838 C175.035243,36.0406435 174.799305,36 174.550661,36 C174.302016,36 174.066079,36.0406435 173.842426,36.1210838 C173.619196,36.2019475 173.4235,36.3137172 173.25576,36.4563929 C173.08802,36.599492 172.957132,36.7701101 172.863943,36.9686706 C172.771178,37.1672312 172.72416,37.3848434 172.72416,37.6206605 C172.72416,38.092718 172.901219,38.4775614 173.25576,38.7756139 Z M172.873262,50.1202371 L171.326328,50.6977138 L171.326328,51.3310754 L177.570402,51.3310754 L177.570402,50.5486876 L176.079381,50.3624047 L176.079381,40.7502117 L175.985769,40.6756986 L171.326328,41.6257409 L171.326328,42.2777307 L172.873262,42.9669771 L172.873262,50.1202371 Z M166.039133,40.0237087 L161.044212,44.8298052 L161.044212,44.9043184 L165.442724,51.3310754 L170.493558,51.3310754 L170.493558,50.4369179 L169.021175,50.1761219 L164.287183,43.5071973 L168.201114,39.911939 L169.412568,39.5580017 L169.412568,38.6638442 L164.343096,38.6638442 L164.343096,39.5021169 L166.039133,40.0237087 Z M160.652819,39.911939 L162.367493,39.5580017 L162.367493,38.6638442 L155.527434,38.6638442 L155.527434,39.5021169 L157.260746,40.0237087 L157.260746,50.0270957 L155.527434,50.4555461 L155.527434,51.3310754 L162.181116,51.3310754 L162.181116,50.4369179 L160.652819,50.1761219 L160.652819,39.911939 Z M108.924553,51.6257409 L108.924553,52.0952583 C121.629578,52.988569 131.416945,55.104149 136.845618,57.184166 L136.845618,69.8052498 C135.932791,69.4449619 121.284356,63.4199831 98.4230206,63.4127858 C75.5612619,63.4199831 60.9128268,69.4449619 60,69.8052498 L60,57.184166 C65.4286723,55.104149 75.2160397,52.988569 87.9210643,52.0952583 L87.9210643,51.6257409 C75.6231054,51.4229467 64.3930056,50.7925487 60,50.4504657 L60,38.2290432 C65.254155,38.5622354 79.55525,39.3395428 98.4230206,39.3395428 C117.290368,39.3395428 131.591463,38.5622354 136.845618,38.2290432 L136.845618,50.4504657 C132.453036,50.7925487 121.222512,51.4229467 108.924553,51.6257409 Z" id="Fill-1-Copy-2"></path>
        </g>
    </g>
</svg>