<?xml version="1.0" encoding="UTF-8"?>
<svg width="177px" height="27px" viewBox="0 0 177 27" version="1.1" xmlns="http://www.w3.org/2000/svg" xmlns:xlink="http://www.w3.org/1999/xlink">
    <!-- Generator: Sketch 50.2 (55047) - http://www.bohemiancoding.com/sketch -->
    <title>Fill 1 Copy 2</title>
    <desc>Created with Sketch.</desc>
    <defs></defs>
    <g id="Symbol" stroke="none" stroke-width="1" fill="none" fill-rule="evenodd">
        <g id="header/fix-top/990/W" transform="translate(-65.000000, -22.000000)" fill="#000000">
            <path d="M170.499539,39.4433652 L167.615018,40.1177936 L167.615018,40.4607234 L168.576525,40.940825 L168.576525,48.0280392 L167.615018,48.3823999 L167.615018,48.7713802 L171.358027,48.7713802 L171.358027,48.290952 L170.545652,48.1766421 L170.545652,39.5008467 L170.499539,39.4433652 Z M164.562398,43.0271441 C164.657567,43.0539252 164.745542,43.1107536 164.825668,43.1986089 C164.905793,43.2864643 164.97251,43.408286 165.025818,43.5644006 C165.079126,43.7208419 165.105944,43.9282327 165.105944,44.1872263 C165.105944,44.3322366 165.094497,44.4730011 165.071604,44.610173 L163.229043,44.7587759 C163.244087,44.5455062 163.27254,44.3341962 163.314728,44.1245192 C163.35659,43.9148421 163.421344,43.7263941 163.509319,43.5588484 C163.596966,43.3909762 163.705545,43.2538043 163.835708,43.1470062 C163.965217,43.0405347 164.121871,42.9872989 164.304688,42.9872989 C164.381216,42.9872989 164.466901,43.0006895 164.562398,43.0271441 Z M166.765687,47.3193178 C166.674115,47.3957421 166.563575,47.4737994 166.433739,47.5538164 C166.303903,47.6338333 166.162947,47.7082981 166.010218,47.776884 C165.857489,47.8454699 165.691678,47.9006653 165.512458,47.9421435 C165.332911,47.9842748 165.15173,48.0051772 164.968585,48.0051772 C164.678498,48.0051772 164.423077,47.9408371 164.201669,47.8108504 C163.980261,47.6815169 163.795482,47.5005806 163.646677,47.2680416 C163.497872,47.0355026 163.385042,46.7611588 163.308841,46.4446837 C163.23264,46.1288617 163.194703,45.7839724 163.194703,45.4106689 L166.937385,45.4106689 L166.971725,45.3760494 C166.987096,45.2924398 166.99658,45.2124229 167.000504,45.1363251 C167.004102,45.0599008 167.006064,44.9759647 167.006064,44.8845168 C167.006064,44.5340752 166.960278,44.2045361 166.868706,43.8958994 C166.777134,43.5872626 166.639776,43.3165114 166.456632,43.0839724 C166.273488,42.8520866 166.040633,42.6688642 165.758395,42.5356115 C165.476156,42.4023588 165.147805,42.3354058 164.773995,42.3354058 C164.21704,42.3354058 163.720916,42.430773 163.285948,42.6211806 C162.850981,42.8115882 162.48273,43.0709084 162.181524,43.398488 C161.87999,43.7263941 161.65106,44.1036168 161.494733,44.530156 C161.338079,44.9573485 161.260243,45.4106689 161.260243,45.8904439 C161.260243,46.3173098 161.328595,46.7190275 161.465953,47.0965768 C161.603311,47.4737994 161.805751,47.8036652 162.072618,48.0851941 C162.339813,48.3673763 162.667837,48.5901173 163.057018,48.7540704 C163.4462,48.9180235 163.892613,49 164.39626,49 C164.946019,49 165.451301,48.8814443 165.913086,48.6456393 C166.374544,48.4091811 166.765687,48.1273255 167.08619,47.7994194 L166.765687,47.3193178 Z M160.580321,43.5127979 L160.717679,42.6443692 L158.794665,42.6443692 L158.794665,41.1240474 L158.414641,41.1240474 L156.677061,42.6211806 L155.864358,43.1012822 L155.864358,43.5127979 L156.825865,43.5127979 L156.825865,46.553768 C156.825865,46.8963711 156.837312,47.2148059 156.860205,47.5077658 C156.883098,47.8017056 156.950469,48.0528608 157.061663,48.2625378 C157.172858,48.4722148 157.343575,48.6378009 157.57414,48.7596226 C157.804705,48.8814443 158.126843,48.9425184 158.541534,48.9425184 C158.778967,48.9425184 159.008224,48.9098585 159.229632,48.8455183 C159.450713,48.780525 159.65904,48.7008346 159.853304,48.6054675 C160.047894,48.510427 160.223516,48.4111407 160.38017,48.3082618 C160.53617,48.2053828 160.664044,48.1158945 160.763465,48.0394702 L160.591767,47.5936615 C160.423667,47.6851095 160.271265,47.7536954 160.133907,47.7994194 C159.996548,47.8454699 159.839895,47.8680053 159.6646,47.8680053 C159.458563,47.8680053 159.296349,47.8222814 159.17796,47.7308334 C159.059897,47.6397121 158.971922,47.5195234 158.915017,47.3705939 C158.857457,47.221991 158.823118,47.054772 158.811671,46.8676303 C158.800552,46.6811419 158.794665,46.4887746 158.794665,46.2905286 L158.794665,43.5127979 L160.580321,43.5127979 Z M151.239968,47.5783114 C151.030007,47.1256441 150.925353,46.3937341 150.925353,45.3825813 C150.925353,45.055655 150.946284,44.7476715 150.988145,44.4586307 C151.030007,44.1695899 151.097051,43.9207209 151.188623,43.7113705 C151.280195,43.5026733 151.39466,43.3370872 151.532018,43.2152655 C151.669376,43.0937704 151.833225,43.0326963 152.024218,43.0326963 C152.291085,43.0326963 152.508569,43.1052014 152.676669,43.2495585 C152.844442,43.3942422 152.974278,43.5957542 153.06585,43.8540946 C153.157422,44.1127616 153.220215,44.4243377 153.254881,44.7894762 C153.288894,45.1542881 153.306227,45.5537196 153.306227,45.9867909 C153.306227,46.2911818 153.288894,46.5802226 153.254881,46.8535865 C153.220215,47.1276037 153.16102,47.3692875 153.077297,47.5779848 C152.993247,47.7873352 152.880744,47.9525947 152.739461,48.0744164 C152.598179,48.1962381 152.420921,48.256659 152.207362,48.256659 C151.772395,48.256659 151.44993,48.030652 151.239968,47.5783114 Z M153.403359,48.7308818 C153.842251,48.5522318 154.206577,48.3066288 154.496664,47.9940728 C154.786424,47.6815169 155.001946,47.3157252 155.143228,46.8963711 C155.284511,46.4773437 155.355152,46.0276158 155.355152,45.5475142 C155.355152,45.1284868 155.292033,44.7244829 155.166121,44.3358292 C155.04021,43.9471755 154.853141,43.6042458 154.605242,43.30704 C154.357344,43.0098343 154.048288,42.7737027 153.678075,42.5983186 C153.307862,42.4232612 152.874857,42.3354058 152.37906,42.3354058 C151.875413,42.3354058 151.409704,42.4098706 150.982585,42.5584734 C150.55514,42.7070763 150.186889,42.9262247 149.877834,43.2159187 C149.568778,43.5056127 149.326439,43.8612798 149.151144,44.284553 C148.975522,44.7074997 148.887874,45.1931535 148.887874,45.7418411 C148.887874,46.1229829 148.945107,46.5077174 149.059572,46.8963711 C149.174037,47.2853514 149.351294,47.6357929 149.591671,47.9480223 C149.832048,48.2605782 150.139141,48.513693 150.513279,48.7083464 C150.887089,48.9026733 151.333503,49 151.85252,49 C152.447739,49 152.964467,48.9098585 153.403359,48.7308818 Z M147.198369,41.7638563 L148.262895,41.5466675 L148.262895,40.9983065 L144.279509,40.9983065 L144.279509,41.5123745 L145.126551,41.8324422 L145.126551,44.2558123 L142.093226,44.2558123 L142.093226,41.7638563 L142.940268,41.5466675 L142.940268,40.9983065 L138.945436,40.9983065 L138.945436,41.5123745 L140.009961,41.8324422 L140.009961,47.9708842 L138.945436,48.233797 L138.945436,48.7713802 L142.940268,48.7713802 L142.940268,48.222366 L142.093226,48.0626588 L142.093226,45.0677392 L145.126551,45.0677392 L145.126551,47.9708842 L144.279509,48.233797 L144.279509,48.7713802 L148.262895,48.7713802 L148.262895,48.222366 L147.198369,48.0626588 L147.198369,41.7638563 Z M241.395624,27.0583767 L242,26.6847466 L242,26.0524495 L239.352259,26.0524495 L239.352259,26.699117 L240.316382,27.144599 L238.647154,31.8149752 L238.589594,31.8149752 L236.877196,27.0583767 L237.841319,26.6847466 L237.841319,26.0524495 L233.596626,26.0524495 L233.596626,26.699117 L234.388071,27.144599 L237.093045,33.9417927 L237.639861,33.9417927 L237.380843,34.5166082 C237.208491,34.8997097 237.032869,35.1943026 236.855611,35.4003871 C236.678027,35.6061449 236.522354,35.7524616 236.38794,35.8386839 L234.531643,34.6746825 L234.502863,34.6746825 C234.29192,34.8278577 234.118914,35.021858 233.984827,35.2566832 C233.850412,35.4915084 233.783368,35.766832 233.783368,36.0829805 C233.783368,36.3031087 233.824248,36.4948228 233.905682,36.6577961 C233.987116,36.8207693 234.097657,36.9546752 234.236977,37.0601669 C234.375643,37.165332 234.536548,37.242083 234.718711,37.2900931 C234.900875,37.3381033 235.097427,37.3619451 235.308697,37.3619451 C235.826734,37.3619451 236.28721,37.2133422 236.690455,36.916463 C237.093045,36.6192573 237.445597,36.2528124 237.747785,35.8171283 C238.049973,35.3811177 238.308991,34.9189791 238.52484,34.4303859 C238.740688,33.9417927 238.920562,33.510681 239.064461,33.1370509 L241.395624,27.0583767 Z M230.124082,32.36105 C229.893844,32.4858111 229.682901,32.5743196 229.491254,32.6269021 C229.29928,32.6798113 229.136085,32.7059393 229.001997,32.7059393 C228.905847,32.7059393 228.802501,32.6892827 228.692615,32.6556429 C228.582074,32.6223297 228.481345,32.5671344 228.390427,32.4903835 C228.298855,32.4136325 228.222327,32.3107536 228.160188,32.1814201 C228.097396,32.0520866 228.066327,31.8917261 228.066327,31.7000121 C228.066327,31.2594291 228.246201,30.9050683 228.606275,30.6366034 C228.965696,30.368465 229.471631,30.1385388 230.124082,29.9468247 L230.124082,32.36105 Z M229.483732,27.0296359 C229.671128,27.1253296 229.81241,27.2595621 229.908234,27.4320068 C230.004058,27.6044514 230.064233,27.8082497 230.088435,28.0427483 C230.111982,28.2775735 230.124082,28.5385267 230.124082,28.8259344 L230.124082,29.1277126 C229.721492,29.2619451 229.261016,29.4200194 228.742979,29.6019354 C228.224943,29.7841781 227.735686,29.9899359 227.27521,30.2198621 C226.728393,30.4785291 226.325149,30.7541793 226.066131,31.0461594 C225.807113,31.3384662 225.677931,31.7287529 225.677931,32.2173461 C225.677931,32.5142252 225.73549,32.7777912 225.85061,33.0077174 C225.966056,33.2376436 226.11715,33.4339301 226.304873,33.5969034 C226.492268,33.7598766 226.71106,33.8843111 226.961248,33.9705334 C227.210782,34.0567558 227.470454,34.0998669 227.739611,34.0998669 C227.951208,34.0998669 228.167383,34.0662272 228.388791,33.9992742 C228.609873,33.9319947 228.830627,33.8483851 229.052035,33.7477924 C229.273116,33.6471997 229.486675,33.5322366 229.693694,33.4029031 C229.900385,33.2735696 230.09007,33.1419499 230.263076,33.0077174 C230.359553,33.3143946 230.527654,33.5753478 230.76803,33.7909036 C231.008407,34.0064594 231.377966,34.1142373 231.878342,34.1142373 C232.051348,34.1142373 232.236454,34.0832104 232.433334,34.0208298 C232.630541,33.9584493 232.82971,33.8794121 233.031169,33.7837184 C233.2323,33.6880247 233.426891,33.5851458 233.613633,33.4747551 C233.801028,33.3646909 233.971091,33.256913 234.124801,33.1514213 L233.937732,32.5622354 C233.755242,32.6389863 233.584853,32.7013669 233.426891,32.7490504 C233.268602,32.7970606 233.131898,32.8209024 233.016452,32.8209024 C232.824478,32.8209024 232.707396,32.7301077 232.664226,32.547865 C232.62073,32.365949 232.599472,32.1167534 232.599472,31.8006048 L232.599472,28.7971937 C232.599472,28.4523043 232.584755,28.1028426 232.555975,27.7481553 C232.526868,27.3937946 232.43268,27.0704609 232.273737,26.7781541 C232.11414,26.4858473 231.867876,26.2464497 231.535601,26.0596347 C231.202671,25.8728196 230.732383,25.7699407 230.124082,25.7506713 L229.865064,25.7506713 C229.779052,25.7506713 229.682901,25.7555703 229.577593,25.7650417 C229.366323,25.7843111 229.12889,25.8319947 228.865293,25.9087456 C228.601042,25.9854966 228.327634,26.0811903 228.045069,26.1961534 C227.76185,26.3111165 227.485825,26.44045 227.21765,26.5841539 C226.948821,26.7278577 226.711387,26.8764606 226.50535,27.0296359 C226.298659,27.1831378 226.130886,27.341212 226.001704,27.5038587 C225.871867,27.666832 225.807113,27.8200073 225.807113,27.9637111 C225.807113,28.1936374 225.881679,28.3804524 226.030483,28.5241563 C226.178961,28.6678602 226.440595,28.7397121 226.814406,28.7397121 C227.03516,28.7397121 227.238908,28.7302407 227.425976,28.7109713 C227.613372,28.6917019 227.80273,28.6534898 227.994704,28.5960082 L227.994704,27.0583767 C228.157572,26.9434136 228.4022,26.885932 228.728589,26.885932 C229.045167,26.885932 229.296663,26.9339422 229.483732,27.0296359 Z M218.52746,24.9028184 C219.103383,24.9028184 219.592312,25.0298657 219.995556,25.2836337 C220.398473,25.5377283 220.726825,25.8705334 220.980937,26.2823757 C221.235377,26.6945446 221.422446,27.1638684 221.54247,27.6906738 C221.662168,28.2178057 221.722344,28.7589815 221.722344,29.3145276 C221.722344,29.7743801 221.676558,30.2198621 221.58564,30.6509738 C221.494395,31.0820854 221.333817,31.4677997 221.103251,31.80779 C220.873013,32.1477803 220.563957,32.4185315 220.17543,32.6197169 C219.786903,32.8209024 219.299936,32.9214951 218.714855,32.9214951 L217.793575,32.9214951 L217.793575,24.9028184 L218.52746,24.9028184 Z M213.83668,24.0549655 L213.83668,24.701633 L215.17494,25.1040039 L215.17494,32.8209024 L213.83668,33.1514213 L213.83668,33.8268296 L218.484617,33.8268296 C219.501394,33.8268296 220.391278,33.6952099 221.153943,33.4316439 C221.916608,33.1680779 222.551725,32.801633 223.060605,32.3323092 C223.569157,31.8629854 223.952451,31.3025402 224.211469,30.6509738 C224.470488,29.9997339 224.600324,29.2857869 224.600324,28.5097859 C224.600324,27.8392766 224.482588,27.2285351 224.247771,26.6775614 C224.012627,26.1265876 223.657785,25.6572638 223.182919,25.2692633 C222.708052,24.8812629 222.112834,24.5817709 221.398571,24.3711141 C220.683655,24.1604572 219.841846,24.0549655 218.873144,24.0549655 L213.83668,24.0549655 Z M203.87887,31.139567 L203.030193,31.139567 L203.173765,33.582533 C203.538091,33.7262368 203.976983,33.8506713 204.490768,33.9561631 C205.003572,34.0613282 205.571973,34.1142373 206.195644,34.1142373 C206.589077,34.1142373 206.987088,34.0685134 207.390005,33.977392 C207.792923,33.8862707 208.157249,33.7402806 208.483965,33.538442 C208.810027,33.33693 209.075913,33.0779364 209.282277,32.760808 C209.488641,32.4443329 209.59166,32.0651506 209.59166,31.6232612 C209.59166,31.2205637 209.488641,30.8675094 209.282277,30.5654046 C209.075913,30.2632999 208.816895,29.9945083 208.505223,29.7590299 C208.19355,29.5238781 207.855388,29.3128946 207.490735,29.125753 C207.126082,28.9382847 206.787919,28.7560421 206.476247,28.5783718 C206.164575,28.4010282 205.905557,28.2210717 205.699192,28.0388291 C205.492828,27.8562598 205.390137,27.6449498 205.390137,27.404899 C205.390137,27.0978952 205.524224,26.8627434 205.792727,26.6994436 C206.061229,26.5364703 206.372901,26.4548204 206.72807,26.4548204 C206.919717,26.4548204 207.107113,26.4930325 207.289276,26.5697835 L208.310959,28.3804524 L208.900945,28.3804524 L209.347032,26.2150962 C209.222101,26.158921 209.064139,26.1027459 208.872165,26.0462441 C208.680191,25.9900689 208.471537,25.9384662 208.246204,25.8911092 C208.020872,25.8444055 207.788344,25.8068465 207.548294,25.7784323 C207.308572,25.7503447 207.073428,25.736301 206.843189,25.736301 C206.210034,25.736301 205.663545,25.8081529 205.202741,25.9518568 C204.742264,26.0955607 204.363221,26.2823757 204.066266,26.5123019 C203.768657,26.7422281 203.54823,26.9959961 203.404004,27.2739325 C203.260105,27.5518689 203.188155,27.8249063 203.188155,28.0930446 C203.188155,28.4572033 203.291501,28.7756381 203.497538,29.0486755 C203.703575,29.3217128 203.962593,29.5682956 204.274592,29.7887505 C204.586592,30.0092053 204.922138,30.2126769 205.281885,30.399492 C205.641633,30.586307 205.977179,30.7708359 206.289505,30.9527519 C206.60085,31.134668 206.859868,31.326382 207.06656,31.5275674 C207.27227,31.7287529 207.375616,31.9541067 207.375616,32.2029757 C207.375616,32.4809121 207.248396,32.7274949 206.994283,32.9430507 C206.740171,33.1586065 206.363417,33.2663844 205.865003,33.2663844 C205.759041,33.2663844 205.639016,33.256913 205.504929,33.2376436 C205.370514,33.2187009 205.250816,33.1850611 205.145508,33.1370509 L203.87887,31.139567 Z M196.142992,31.139567 L195.293988,31.139567 L195.437887,33.582533 C195.802213,33.7262368 196.241105,33.8506713 196.754562,33.9561631 C197.267693,34.0613282 197.836094,34.1142373 198.459765,34.1142373 C198.852871,34.1142373 199.25121,34.0685134 199.654127,33.977392 C200.057044,33.8862707 200.42137,33.7402806 200.747759,33.538442 C201.073821,33.33693 201.340034,33.0779364 201.546399,32.760808 C201.752763,32.4443329 201.855781,32.0651506 201.855781,31.6232612 C201.855781,31.2205637 201.752763,30.8675094 201.546399,30.5654046 C201.340034,30.2632999 201.081016,29.9945083 200.769344,29.7590299 C200.457672,29.5238781 200.119182,29.3128946 199.754856,29.125753 C199.390203,28.9382847 199.052041,28.7560421 198.740368,28.5783718 C198.428369,28.4010282 198.169351,28.2210717 197.963314,28.0388291 C197.75695,27.8562598 197.653931,27.6449498 197.653931,27.404899 C197.653931,27.0978952 197.788019,26.8627434 198.056848,26.6994436 C198.325351,26.5364703 198.637023,26.4548204 198.992192,26.4548204 C199.183839,26.4548204 199.370908,26.4930325 199.553398,26.5697835 L200.57508,28.3804524 L201.165066,28.3804524 L201.611153,26.2150962 C201.486223,26.158921 201.328261,26.1027459 201.136286,26.0462441 C200.944312,25.9900689 200.735659,25.9384662 200.510326,25.8911092 C200.284666,25.8444055 200.052138,25.8068465 199.812416,25.7784323 C199.572366,25.7503447 199.337549,25.736301 199.107311,25.736301 C198.474155,25.736301 197.927339,25.8081529 197.466862,25.9518568 C197.006386,26.0955607 196.627343,26.2823757 196.33006,26.5123019 C196.032451,26.7422281 195.812024,26.9959961 195.668125,27.2739325 C195.524226,27.5518689 195.452277,27.8249063 195.452277,28.0930446 C195.452277,28.4572033 195.555295,28.7756381 195.761659,29.0486755 C195.967697,29.3217128 196.226715,29.5682956 196.538714,29.7887505 C196.850386,30.0092053 197.186259,30.2126769 197.546007,30.399492 C197.905754,30.586307 198.241301,30.7708359 198.5533,30.9527519 C198.864645,31.134668 199.123663,31.326382 199.330354,31.5275674 C199.536391,31.7287529 199.639737,31.9541067 199.639737,32.2029757 C199.639737,32.4809121 199.512517,32.7274949 199.258405,32.9430507 C199.003965,33.1586065 198.627539,33.2663844 198.128798,33.2663844 C198.023163,33.2663844 197.903138,33.256913 197.76905,33.2376436 C197.634636,33.2187009 197.514611,33.1850611 197.409303,33.1370509 L196.142992,31.139567 Z M191.050276,26.6057094 C191.169974,26.6393492 191.280514,26.7112012 191.381244,26.8212653 C191.481973,26.931656 191.565696,27.0848313 191.633067,27.2811177 C191.700111,27.4777307 191.733796,27.7386839 191.733796,28.0643039 C191.733796,28.2465465 191.719406,28.4235636 191.690626,28.5960082 L189.373853,28.7828233 C189.393148,28.5146849 189.429123,28.2488327 189.481777,27.9852667 C189.534431,27.7220273 189.615865,27.4849159 189.726405,27.2739325 C189.836619,27.0632757 189.973323,26.890831 190.136517,26.7565985 C190.299712,26.622366 190.496592,26.5554131 190.726503,26.5554131 C190.822327,26.5554131 190.930251,26.5723963 191.050276,26.6057094 Z M193.820331,32.0017903 C193.705212,32.0978106 193.565892,32.1957905 193.403024,32.2963832 C193.23983,32.3969759 193.062245,32.4903835 192.870598,32.5766058 C192.678624,32.6628281 192.46997,32.7323939 192.244638,32.7849764 C192.019305,32.8378856 191.791356,32.8640135 191.561117,32.8640135 C191.196464,32.8640135 190.875308,32.7826902 190.596994,32.6197169 C190.31868,32.4570703 190.086153,32.2294303 189.899084,31.9371235 C189.712015,31.6448167 189.570406,31.300254 189.474909,30.9024555 C189.378758,30.5049837 189.330683,30.0712592 189.330683,29.6019354 L194.03618,29.6019354 L194.07935,29.5588242 C194.098318,29.4533325 194.110419,29.3530664 194.115324,29.2570461 C194.12023,29.1613524 194.122519,29.0558607 194.122519,28.9408975 C194.122519,28.5003145 194.06496,28.0858594 193.94984,27.697859 C193.835048,27.3098585 193.662042,26.9698682 193.431804,26.6775614 C193.201566,26.3852546 192.908862,26.155655 192.554347,25.9877828 C192.199179,25.8202371 191.78645,25.736301 191.316489,25.736301 C190.61629,25.736301 189.992618,25.8561631 189.445802,26.0955607 C188.898986,26.3352849 188.43622,26.6609048 188.057504,27.0727471 C187.678134,27.4849159 187.390009,27.9591387 187.193783,28.4954155 C186.996903,29.0320189 186.899117,29.6019354 186.899117,30.2054917 C186.899117,30.7420951 186.98513,31.2473449 187.158136,31.7215677 C187.330487,32.1957905 187.5846,32.6102456 187.920473,32.9646063 C188.256346,33.3192936 188.668748,33.5995161 189.158004,33.805274 C189.647261,34.0110318 190.208467,34.1142373 190.841622,34.1142373 C191.532665,34.1142373 192.167782,33.9656345 192.748284,33.6687553 C193.328786,33.3718761 193.820331,33.0171888 194.223249,32.6053466 L193.820331,32.0017903 Z M186.353609,33.8268296 L186.353609,33.2232733 L185.274367,33.0795694 L185.274367,29.6019354 C185.274367,29.0846014 185.259977,28.5914358 185.231197,28.1217854 C185.202418,27.6524616 185.113789,27.2402927 184.964657,26.885932 C184.815853,26.5315713 184.576457,26.2513487 184.245162,26.0452643 C183.914522,25.8391799 183.44685,25.736301 182.842474,25.736301 C182.554349,25.736301 182.276363,25.7820249 182.007533,25.8728196 C181.739031,25.963941 181.489497,26.0740051 181.259258,26.2033386 C181.02902,26.3326721 180.820694,26.4740898 180.633298,26.627265 C180.446556,26.7807669 180.29023,26.9195718 180.165953,27.0440063 L180.137173,27.0440063 L180.324242,25.8368937 L180.223186,25.736301 L176.669208,26.4691908 L176.669208,26.9721543 L177.863569,27.5038587 L177.863569,32.8927543 L176.669208,33.3382364 L176.669208,33.8268296 L181.202026,33.8268296 L181.202026,33.2232733 L180.338632,33.0795694 L180.338632,27.6906738 C180.47272,27.5855086 180.65521,27.4917745 180.885448,27.4104512 C181.115686,27.3291279 181.340692,27.2883029 181.561773,27.2883029 C181.858728,27.2883029 182.091583,27.3434982 182.259683,27.4535624 C182.427456,27.5639531 182.552387,27.7099431 182.633821,27.8918592 C182.715254,28.0741019 182.76333,28.2798597 182.77772,28.5097859 C182.79211,28.7397121 182.798977,28.9745373 182.798977,29.2139349 L182.798977,32.8927543 L182.223709,33.3382364 L182.223709,33.8268296 L186.353609,33.8268296 Z M171.610178,26.7781541 C171.820793,26.8594774 172.012441,26.962683 172.185446,27.0871175 L172.185446,32.2173461 C172.041874,32.3421072 171.866252,32.4449861 171.660542,32.5263094 C171.453524,32.6079594 171.273977,32.6484577 171.120594,32.6484577 C170.89984,32.6484577 170.683664,32.58869 170.473049,32.4688279 C170.261452,32.3492924 170.072421,32.1621507 169.904648,31.9083827 C169.736547,31.6546147 169.599843,31.3289948 169.494535,30.9311963 C169.3889,30.5337244 169.335919,30.0568888 169.335919,29.5013427 C169.335919,28.9650659 169.381378,28.5146849 169.472624,28.1505262 C169.564196,27.7863675 169.683566,27.4943873 169.832371,27.2739325 C169.981176,27.0538043 170.153527,26.8954034 170.350407,26.7997097 C170.547287,26.704016 170.746457,26.6560058 170.947588,26.6560058 C171.178154,26.6560058 171.398581,26.6968308 171.610178,26.7781541 Z M172.185446,25.9087456 C171.820793,25.7937825 171.475109,25.736301 171.149374,25.736301 C170.631337,25.736301 170.11788,25.8274223 169.609328,26.0093383 C169.101103,26.191581 168.645531,26.471477 168.242614,26.850006 C167.839697,27.2285351 167.515924,27.7050442 167.271296,28.2798597 C167.026668,28.8546752 166.904354,29.5300835 166.904354,30.3060844 C166.904354,30.8521592 166.966492,31.357409 167.091749,31.8221604 C167.21668,32.2869118 167.396881,32.6915689 167.632352,33.0364582 C167.867823,33.3813475 168.158564,33.6520987 168.504249,33.8483851 C168.850587,34.0446716 169.249253,34.1429781 169.701554,34.1429781 C169.970383,34.1429781 170.232345,34.1047659 170.486457,34.028015 C170.741224,33.9512641 170.979638,33.8483851 171.200719,33.7190517 C171.421474,33.5897182 171.633071,33.4411153 171.834856,33.2735696 C172.036642,33.106024 172.22371,32.9358655 172.397043,32.7634208 L172.44054,32.7777912 L172.324767,34.0136446 L172.41176,34.0998669 L175.86926,33.4963106 L175.811701,32.7490504 L174.660836,32.8496432 L174.660836,22.1724447 L174.587905,22.1005927 L170.976368,22.9484456 L170.976368,23.3795573 L172.185446,23.9831136 L172.185446,25.9087456 Z M166.291148,33.8268296 L166.291148,33.2232733 L165.212233,33.0795694 L165.212233,29.6019354 C165.212233,29.0846014 165.197843,28.5914358 165.169063,28.1217854 C165.139956,27.6524616 165.051327,27.2402927 164.90285,26.885932 C164.753718,26.5315713 164.514322,26.2513487 164.183355,26.0452643 C163.85206,25.8391799 163.384715,25.736301 162.780013,25.736301 C162.492542,25.736301 162.214228,25.7820249 161.945726,25.8728196 C161.676896,25.963941 161.427689,26.0740051 161.197451,26.2033386 C160.967213,26.3326721 160.758232,26.4740898 160.57149,26.627265 C160.384095,26.7807669 160.228095,26.9195718 160.103492,27.0440063 L160.075039,27.0440063 L160.26178,25.8368937 L160.161378,25.736301 L156.607073,26.4691908 L156.607073,26.9721543 L157.801108,27.5038587 L157.801108,32.8927543 L156.607073,33.3382364 L156.607073,33.8268296 L161.139564,33.8268296 L161.139564,33.2232733 L160.276497,33.0795694 L160.276497,27.6906738 C160.410585,27.5855086 160.592748,27.4917745 160.823314,27.4104512 C161.053552,27.3291279 161.278558,27.2883029 161.499312,27.2883029 C161.796594,27.2883029 162.029449,27.3434982 162.197549,27.4535624 C162.364995,27.5639531 162.489925,27.7099431 162.571359,27.8918592 C162.652793,28.0741019 162.700868,28.2798597 162.715585,28.5097859 C162.729975,28.7397121 162.73717,28.9745373 162.73717,29.2139349 L162.73717,32.8927543 L162.161247,33.3382364 L162.161247,33.8268296 L166.291148,33.8268296 Z M152.442833,24.1411879 C152.716241,24.3711141 153.049171,24.4860772 153.442604,24.4860772 C153.826226,24.4860772 154.15981,24.3711141 154.442702,24.1411879 C154.725594,23.9112616 154.867204,23.6143825 154.867204,23.2502238 C154.867204,23.0683077 154.82894,22.9004355 154.752412,22.7472602 C154.67523,22.5940849 154.572211,22.4624652 154.442702,22.3520745 C154.313193,22.2420104 154.162099,22.1557881 153.989747,22.0934075 C153.816741,22.0313536 153.634578,22 153.442604,22 C153.25063,22 153.068467,22.0313536 152.895788,22.0934075 C152.723436,22.1557881 152.572342,22.2420104 152.442833,22.3520745 C152.313324,22.4624652 152.212268,22.5940849 152.140318,22.7472602 C152.068696,22.9004355 152.032394,23.0683077 152.032394,23.2502238 C152.032394,23.6143825 152.169098,23.9112616 152.442833,24.1411879 Z M152.147513,32.8927543 L150.953152,33.3382364 L150.953152,33.8268296 L155.774094,33.8268296 L155.774094,33.2232733 L154.622903,33.0795694 L154.622903,25.664449 L154.550626,25.6069675 L150.953152,26.3398573 L150.953152,26.8428209 L152.147513,27.3745252 L152.147513,32.8927543 Z M146.870999,25.1040039 L143.014506,28.811564 L143.014506,28.8690456 L146.410522,33.8268296 L150.310185,33.8268296 L150.310185,33.1370509 L149.173383,32.9358655 L145.518349,27.7912665 L148.540227,25.0177815 L149.475571,24.7447442 L149.475571,24.0549655 L145.561518,24.0549655 L145.561518,24.701633 L146.870999,25.1040039 Z M142.712318,25.0177815 L144.036189,24.7447442 L144.036189,24.0549655 L138.755096,24.0549655 L138.755096,24.701633 L140.093357,25.1040039 L140.093357,32.8209024 L138.755096,33.1514213 L138.755096,33.8268296 L143.89229,33.8268296 L143.89229,33.1370509 L142.712318,32.9358655 L142.712318,25.0177815 Z M102.77381,34.054143 L102.77381,34.4163421 C112.583142,35.1054675 120.139801,36.7374864 124.331186,38.3420709 L124.331186,48.0783356 C123.626408,47.8003992 112.316602,43.1525584 94.6657564,43.1470062 C77.0145839,43.1525584 65.704778,47.8003992 65,48.0783356 L65,38.3420709 C69.1913849,36.7374864 76.7480437,35.1054675 86.5573757,34.4163421 L86.5573757,34.054143 C77.0623322,33.8977017 68.3917644,33.4113947 65,33.1475021 L65,23.7195476 C69.0566431,23.9765816 80.0982737,24.5762187 94.6657564,24.5762187 C109.232912,24.5762187 120.274543,23.9765816 124.331186,23.7195476 L124.331186,33.1475021 C120.939748,33.4113947 112.268853,33.8977017 102.77381,34.054143 Z" id="Fill-1-Copy-2"></path>
        </g>
    </g>
</svg>