<?xml version="1.0" encoding="utf-8"?>
<!-- Generator: Adobe Illustrator 22.0.1, SVG Export Plug-In . SVG Version: 6.00 Build 0)  -->
<svg version="1.1" id="Capa_1" xmlns="http://www.w3.org/2000/svg" xmlns:xlink="http://www.w3.org/1999/xlink" x="0px" y="0px"
	 viewBox="0 0 430.1 430.1" style="enable-background:new 0 0 430.1 430.1;" xml:space="preserve">
<style type="text/css">
	.st0{fill:#898989;}
</style>
<g>
	<path id="Facebook_Places" class="st0" d="M243.6,193.2c-0.3-1.2-0.9-2.4-1.4-3.5c-5.6-13.4-17.8-18.2-27.6-18.2
		c-13.2,0-27.7,8.8-29.6,27v3.7c0,0.2,0.1,1.5,0.1,2.2c1.1,8.7,7.9,17.9,13,26.6c5.5,9.3,11.2,18.4,16.9,27.6c3.5-6,7-12,10.4-17.8
		c0.9-1.7,2-3.4,2.9-5c0.6-1.1,1.8-2.2,2.3-3.2c5.5-10.1,14.3-20.2,14.3-30.2v-4.1C245.1,197.2,243.7,193.4,243.6,193.2z
		 M214.9,211.8c-3.9,0-8.1-1.9-10.2-7.3c-0.3-0.9-0.3-2.6-0.3-2.7v-2.4c0-6.8,5.8-9.9,10.8-9.9c6.2,0,11,5,11,11.1
		C226.2,206.9,221.1,211.8,214.9,211.8z"/>
</g>
</svg>
