<?xml version="1.0" encoding="utf-8"?>
<!-- Generator: Adobe Illustrator 22.0.1, SVG Export Plug-In . SVG Version: 6.00 Build 0)  -->
<svg version="1.1" id="Capa_1" xmlns="http://www.w3.org/2000/svg" xmlns:xlink="http://www.w3.org/1999/xlink" x="0px" y="0px"
	 viewBox="0 0 430.1 430.1" style="enable-background:new 0 0 430.1 430.1;" xml:space="preserve">
<style type="text/css">
	.st0{fill:#898989;}
</style>
<g>
	<path id="Facebook_Places" class="st0" d="M222.2,209.6c-0.1-0.3-0.2-0.6-0.4-0.9c-1.4-3.3-4.4-4.5-6.9-4.5c-3.3,0-6.9,2.2-7.4,6.8
		v0.9c0,0,0,0.4,0,0.6c0.3,2.2,2,4.5,3.3,6.6c1.4,2.3,2.8,4.6,4.2,6.9c0.9-1.5,1.7-3,2.6-4.5c0.2-0.4,0.5-0.9,0.7-1.3
		c0.2-0.3,0.5-0.5,0.6-0.8c1.4-2.5,3.6-5.1,3.6-7.5v-1C222.6,210.6,222.2,209.6,222.2,209.6z M215,214.3c-1,0-2-0.5-2.5-1.8
		c-0.1-0.2-0.1-0.6-0.1-0.7v-0.6c0-1.7,1.4-2.5,2.7-2.5c1.5,0,2.7,1.2,2.7,2.8C217.8,213,216.6,214.3,215,214.3z"/>
</g>
</svg>
