<?xml version="1.0" encoding="UTF-8"?>
<svg width="90px" height="62px" viewBox="0 0 90 62" version="1.1" xmlns="http://www.w3.org/2000/svg" xmlns:xlink="http://www.w3.org/1999/xlink">
    <!-- Generator: Sketch 50.2 (55047) - http://www.bohemiancoding.com/sketch -->
    <title>Fill 1</title>
    <desc>Created with Sketch.</desc>
    <defs></defs>
    <g id="TW-Desktop" stroke="none" stroke-width="1" fill="none" fill-rule="evenodd">
        <g id="5-facility" transform="translate(-892.000000, -786.000000)" fill="#0C2340">
            <path d="M957.208723,817.999699 L946.488736,828.642388 L941.607649,828.642388 L957.208723,813.153808 L957.208723,817.999699 Z M924.231065,833.717701 L930.434897,833.717701 L930.434897,831.480577 L924.231065,831.480577 L924.231065,833.717701 Z M896.618629,811.403556 L896.618629,807.033119 L912.96525,790.805405 L917.367429,790.805405 L896.618629,811.403556 Z M896.618629,795.246434 L901.092958,790.805405 L909.072301,790.805405 L896.618629,803.168241 L896.618629,795.246434 Z M956.641982,786 L897.375678,786 L892,791.336916 L892,832.018318 L897.375678,837.355234 L956.641982,837.355234 L962.01766,832.018318 L962.01766,791.336916 L956.641982,786 Z M946.332934,848 L907.684725,848 L908.615352,844.246199 L919.149214,844.246199 L919.149214,840.08546 L934.868446,840.08546 L934.868446,844.246199 L945.401262,844.246199 L946.332934,848 Z M970.313834,839.835276 C969.14689,839.835276 968.200579,838.896825 968.200579,837.737258 C968.200579,836.578729 969.14689,835.639241 970.313834,835.639241 C971.481823,835.639241 972.427089,836.578729 972.427089,837.737258 C972.427089,838.896825 971.481823,839.835276 970.313834,839.835276 Z M976.373366,796.915712 L964.982073,796.915712 L964.982073,803.994575 L978.458389,803.994575 L978.458389,806.486036 L964.982073,806.486036 L964.982073,810.149521 L978.458389,810.149521 L978.458389,812.64202 L964.982073,812.64202 L964.982073,833.236019 L958.628714,839.543567 L958.628714,842.413937 L964.255347,848 L976.373366,848 L982,842.413937 L982,802.501775 L976.373366,796.915712 Z" id="Fill-1"></path>
        </g>
    </g>
</svg>