<?xml version="1.0" encoding="UTF-8"?>
<svg width="70px" height="82px" viewBox="0 0 70 82" version="1.1" xmlns="http://www.w3.org/2000/svg" xmlns:xlink="http://www.w3.org/1999/xlink">
    <!-- Generator: Sketch 50.2 (55047) - http://www.bohemiancoding.com/sketch -->
    <title>Fill 1</title>
    <desc>Created with Sketch.</desc>
    <defs></defs>
    <g id="TW-Desktop" stroke="none" stroke-width="1" fill="none" fill-rule="evenodd">
        <g id="5-facility" transform="translate(-1223.000000, -1035.000000)" fill="#0C2340">
            <path d="M1259.30213,1081.20454 L1259.30213,1115.80675 L1273.46647,1109.75042 L1273.46647,1070.18222 L1263.13788,1074.59822 L1259.30213,1081.20454 Z M1262.83917,1049.08211 C1262.83917,1046.43615 1260.67273,1044.28229 1258.01132,1044.28229 C1255.34884,1044.28229 1253.18348,1046.43615 1253.18348,1049.08211 C1253.18348,1051.72914 1255.34884,1053.88192 1258.01132,1053.88192 C1260.67273,1053.88192 1262.83917,1051.72914 1262.83917,1049.08211 Z M1270.46106,1055.80099 L1270.46214,1055.80099 L1264.23673,1066.52098 L1258.01132,1077.24096 L1251.78591,1066.52098 L1245.5605,1055.80099 C1244.46812,1053.80366 1243.84698,1051.51472 1243.84698,1049.08211 C1243.84698,1041.30505 1250.18885,1035 1258.01132,1035 C1265.83379,1035 1272.17567,1041.30505 1272.17567,1049.08211 C1272.17567,1051.51472 1271.55453,1053.80366 1270.46106,1055.80099 Z M1252.88693,1074.60573 L1242.54108,1070.18222 L1242.54108,1109.75042 L1256.70542,1115.80675 L1256.70542,1081.17988 L1252.88693,1074.60573 Z M1276.047,1070.18222 L1276.047,1109.75042 L1293,1117 L1293,1077.43072 L1276.047,1070.18222 Z M1239.953,1070.18222 L1239.953,1109.75042 L1223,1117 L1223,1077.43072 L1239.953,1070.18222 Z" id="Fill-1"></path>
        </g>
    </g>
</svg>