<?xml version="1.0" encoding="UTF-8"?>
<svg width="90px" height="71px" viewBox="0 0 90 71" version="1.1" xmlns="http://www.w3.org/2000/svg" xmlns:xlink="http://www.w3.org/1999/xlink">
    <!-- Generator: Sketch 50.2 (55047) - http://www.bohemiancoding.com/sketch -->
    <title>Fill 1</title>
    <desc>Created with Sketch.</desc>
    <defs></defs>
    <g id="TW-Desktop" stroke="none" stroke-width="1" fill="none" fill-rule="evenodd">
        <g id="5-facility" transform="translate(-581.000000, -777.000000)" fill="#0C2340">
            <path d="M648.008436,809.892202 C644.447482,806.355228 638.653951,806.355228 635.092997,809.891135 L641.551253,816.3059 L648.008436,809.892202 Z M630.788925,805.616048 C636.723132,799.721803 646.379375,799.721803 652.313582,805.616048 L658.770764,799.20235 C649.275603,789.772198 633.82583,789.771131 624.331742,799.201283 C624.331742,799.201283 624.331742,799.201283 624.331742,799.201283 L630.788925,805.616048 C630.788925,805.616048 630.788925,805.616048 630.788925,805.616048 Z M620.026596,794.926195 C631.896085,783.137705 651.206422,783.137705 663.075911,794.926195 L669.533093,788.512497 C654.079025,773.162501 629.023482,773.162501 613.569414,788.512497 L620.026596,794.926195 C620.026596,794.926195 620.026596,794.926195 620.026596,794.926195 Z M581,848 L591.627021,848 L591.627021,814.891537 L581,814.891537 L581,848 Z M671,826.884822 L641.200098,848 L622.908864,848 L596.141572,838.932505 L596.141572,816.570426 L615.182367,816.570426 L633.961138,820.189531 L633.961138,825.459793 L613.869024,825.459793 L613.317054,828.448514 L637.189192,830.764186 L654.505351,823.886501 L657.504671,827.029885 L638.882686,837.885066 L628.095658,837.801868 L628.088141,840.435399 L639.289682,840.636994 L661.544572,827.582403 L659.91551,825.590989 L666.223425,823.773437 L671,826.884822 Z" id="Fill-1"></path>
        </g>
    </g>
</svg>