<?xml version="1.0" encoding="UTF-8"?>
<svg width="172px" height="90px" viewBox="0 0 172 90" version="1.1" xmlns="http://www.w3.org/2000/svg" xmlns:xlink="http://www.w3.org/1999/xlink">
    <!-- Generator: Sketch 50.2 (55047) - http://www.bohemiancoding.com/sketch -->
    <title>Fill 1</title>
    <desc>Created with Sketch.</desc>
    <defs></defs>
    <g id="TW-Desktop" stroke="none" stroke-width="1" fill="none" fill-rule="evenodd">
        <g id="0-hamburger-1200menu" transform="translate(-197.000000, -251.000000)" fill="#FFFFFF">
            <path d="M304.275611,327.349425 L300.169325,328.312745 L300.169325,328.802589 L301.537951,329.488453 L301.537951,339.612312 L300.169325,340.118116 L300.169325,340.673437 L305.498022,340.673437 L305.498022,339.987573 L304.340959,339.824292 L304.340959,327.430861 L304.275611,327.349425 Z M295.847799,332.468442 C295.983396,332.506909 296.108373,332.588345 296.222323,332.713159 C296.336682,332.838792 296.431436,333.012713 296.507403,333.235742 C296.583778,333.45918 296.621761,333.755869 296.621761,334.12581 C296.621761,334.332469 296.605424,334.533809 296.57275,334.729829 L293.94904,334.942217 C293.970686,334.637753 294.011529,334.335334 294.071159,334.03578 C294.130788,333.736635 294.2235,333.467364 294.348478,333.227557 C294.473047,332.988569 294.627839,332.792549 294.812855,332.639908 C294.997462,332.487675 295.220053,332.41115 295.481035,332.41115 C295.589267,332.41115 295.711794,332.430384 295.847799,332.468442 Z M298.984489,338.599885 C298.854202,338.70874 298.696551,338.820049 298.511944,338.934633 C298.327336,339.048807 298.126392,339.154797 297.909111,339.253011 C297.691421,339.350816 297.455353,339.430206 297.200088,339.489544 C296.944824,339.549701 296.6867,339.579574 296.426126,339.579574 C296.013211,339.579574 295.649306,339.487089 295.334003,339.302118 C295.019109,339.116739 294.755676,338.858517 294.543704,338.526225 C294.332141,338.194342 294.171631,337.802303 294.063398,337.350516 C293.95435,336.899139 293.900029,336.40643 293.900029,335.872799 L299.229135,335.872799 L299.278145,335.823691 C299.299383,335.704197 299.31327,335.590023 299.318579,335.481169 C299.323889,335.372314 299.326748,335.252411 299.326748,335.121868 C299.326748,334.621383 299.261809,334.150364 299.131522,333.709626 C299.000826,333.26848 298.805191,332.88217 298.544617,332.549878 C298.284043,332.217995 297.952404,331.956908 297.550515,331.766209 C297.148627,331.575918 296.681391,331.480569 296.149216,331.480569 C295.356058,331.480569 294.649894,331.616841 294.030725,331.888977 C293.411147,332.161113 292.88714,332.531053 292.457887,332.999209 C292.028634,333.467364 291.702713,334.005907 291.480122,334.615654 C291.257123,335.225402 291.146032,335.872799 291.146032,336.558663 C291.146032,337.16841 291.244053,337.742555 291.43928,338.281507 C291.634914,338.820049 291.922853,339.291069 292.303095,339.693748 C292.683337,340.096427 293.150573,340.414806 293.704803,340.648883 C294.258625,340.882961 294.894131,341 295.611322,341 C296.393453,341 297.113094,340.830989 297.770656,340.493787 C298.427808,340.156584 298.984489,339.753905 299.441106,339.28534 L298.984489,338.599885 Z M290.204208,333.16249 L290.399843,331.921306 L287.662182,331.921306 L287.662182,329.74954 L287.12143,329.74954 L284.647202,331.888977 L283.49014,332.574432 L283.49014,333.16249 L284.858766,333.16249 L284.858766,337.505613 C284.858766,337.995458 284.875511,338.450108 284.908185,338.869157 C284.940859,339.288205 285.03643,339.647506 285.194898,339.94665 C285.353366,340.246204 285.596378,340.483147 285.924342,340.657068 C286.252305,340.830989 286.711373,340.918564 287.301545,340.918564 C287.639719,340.918564 287.966049,340.871912 288.281352,340.779427 C288.596246,340.686942 288.892353,340.572767 289.169264,340.436495 C289.446583,340.300632 289.69613,340.159039 289.919129,340.012127 C290.141719,339.865214 290.323468,339.737536 290.46519,339.628272 L290.220545,338.991515 C289.981209,339.122468 289.764336,339.220273 289.568702,339.28534 C289.373067,339.350816 289.150476,339.383555 288.900521,339.383555 C288.607273,339.383555 288.376106,339.318078 288.207836,339.187535 C288.039565,339.056992 287.914588,338.885526 287.833312,338.673137 C287.751627,338.461158 287.702616,338.22176 287.686279,337.954944 C287.670351,337.688128 287.662182,337.413537 287.662182,337.130352 L287.662182,333.16249 L290.204208,333.16249 Z M276.932497,338.969417 C276.633532,338.323248 276.484457,337.277674 276.484457,335.832694 C276.484457,335.365767 276.514272,334.926257 276.573902,334.513348 C276.633532,334.100438 276.729103,333.74482 276.85939,333.446084 C276.989677,333.147349 277.152637,332.911225 277.348272,332.737304 C277.543498,332.563382 277.777116,332.476626 278.049126,332.476626 C278.42896,332.476626 278.738953,332.579751 278.977881,332.786411 C279.216808,332.992661 279.401415,333.280348 279.532111,333.649879 C279.662398,334.019002 279.751842,334.46424 279.800853,334.985595 C279.849456,335.507359 279.873961,336.077412 279.873961,336.696572 C279.873961,337.131171 279.849456,337.543671 279.800853,337.934483 C279.751842,338.325704 279.667707,338.670682 279.548448,338.969417 C279.42878,339.268153 279.268269,339.504276 279.067325,339.677789 C278.866381,339.852119 278.613567,339.938466 278.3097,339.938466 C277.690531,339.938466 277.231463,339.615586 276.932497,338.969417 Z M280.012825,340.616145 C280.637304,340.360788 281.156001,340.009671 281.568917,339.563205 C281.981833,339.116739 282.288559,338.594565 282.489911,337.995458 C282.690447,337.397168 282.790919,336.754682 282.790919,336.068818 C282.790919,335.47012 282.701475,334.89311 282.522177,334.338199 C282.342879,333.782878 282.076587,333.293034 281.723709,332.868666 C281.370423,332.443888 280.930552,332.106685 280.403686,331.856239 C279.87682,331.605792 279.260101,331.480569 278.553937,331.480569 C277.837155,331.480569 277.174284,331.586558 276.565733,331.798947 C275.957591,332.011336 275.433176,332.324394 274.993304,332.737713 C274.553432,333.151441 274.208315,333.660519 273.958768,334.264538 C273.708405,334.868556 273.583836,335.562605 273.583836,336.346274 C273.583836,336.890955 273.665112,337.440546 273.828073,337.995458 C273.991034,338.550778 274.243848,339.051672 274.586106,339.497729 C274.928365,339.944195 275.365378,340.305952 275.897961,340.583816 C276.430137,340.861272 277.065643,341 277.804481,341 C278.651959,341 279.387529,340.871912 280.012825,340.616145 Z M271.206405,330.664161 L272.721655,330.353967 L272.721655,329.570298 L267.050699,329.570298 L267.050699,330.30486 L268.256772,330.761966 L268.256772,334.223615 L263.938106,334.223615 L263.938106,330.664161 L265.143771,330.353967 L265.143771,329.570298 L259.456479,329.570298 L259.456479,330.30486 L260.972137,330.761966 L260.972137,339.530467 L259.456479,339.906137 L259.456479,340.673437 L265.143771,340.673437 L265.143771,339.889768 L263.938106,339.66101 L263.938106,335.382954 L268.256772,335.382954 L268.256772,339.530467 L267.050699,339.906137 L267.050699,340.673437 L272.721655,340.673437 L272.721655,339.889768 L271.206405,339.66101 L271.206405,330.664161 Z M367.887927,308.392407 L368.9,307.765063 L368.9,306.70271 L364.466975,306.70271 L364.466975,307.789207 L366.081472,308.537274 L363.286632,316.38215 L363.190653,316.38215 L360.323522,308.392407 L361.93761,307.765063 L361.93761,306.70271 L354.831047,306.70271 L354.831047,307.789207 L356.155972,308.537274 L360.684976,319.954289 L361.600253,319.954289 L361.166916,320.920064 C360.877752,321.563369 360.584504,322.058124 360.287581,322.40433 C359.990249,322.750126 359.729266,322.995662 359.504634,323.140528 L356.396942,321.185243 L356.348748,321.185243 C355.995462,321.442647 355.706298,321.768391 355.481665,322.162886 C355.256216,322.55738 355.144308,323.019807 355.144308,323.550983 C355.144308,323.920924 355.212515,324.242576 355.348928,324.516349 C355.485341,324.790121 355.669948,325.015196 355.903158,325.192391 C356.135959,325.369177 356.404702,325.497674 356.710202,325.578701 C357.014886,325.65891 357.344483,325.699423 357.697769,325.699423 C358.564852,325.699423 359.335955,325.449385 360.010261,324.950947 C360.684976,324.4521 361.275148,323.836623 361.781184,323.104516 C362.287221,322.372001 362.720558,321.595698 363.082012,320.775198 C363.443467,319.954289 363.744474,319.230367 363.985444,318.602614 L367.887927,308.392407 Z M349.133953,317.299227 C348.748401,317.508751 348.395115,317.657709 348.074094,317.745693 C347.752665,317.834495 347.479839,317.878692 347.254798,317.878692 C347.094287,317.878692 346.921524,317.850864 346.736917,317.793982 C346.55231,317.737918 346.383631,317.645432 346.231289,317.516526 C346.07813,317.388029 345.949886,317.214926 345.845738,316.997626 C345.740773,316.780327 345.688903,316.511056 345.688903,316.188995 C345.688903,315.449113 345.990319,314.853279 346.592335,314.40272 C347.194759,313.952571 348.041829,313.566261 349.133953,313.244199 L349.133953,317.299227 Z M348.061842,308.344119 C348.375102,308.505354 348.611988,308.730429 348.772498,309.020161 C348.933008,309.309485 349.03348,309.651598 349.073914,310.046093 C349.113531,310.440587 349.133953,310.87846 349.133953,311.361347 L349.133953,311.868379 C348.459646,312.093863 347.688543,312.359451 346.821052,312.664734 C345.95397,312.970836 345.135081,313.316632 344.363978,313.702942 C343.448702,314.137132 342.773987,314.599967 342.34065,315.09063 C341.906905,315.581702 341.690032,316.237283 341.690032,317.057783 C341.690032,317.557039 341.78642,317.999413 341.979604,318.385314 C342.172788,318.771624 342.426011,319.10187 342.73968,319.375234 C343.053757,319.649006 343.419704,319.857712 343.838338,320.002578 C344.256972,320.147444 344.691125,320.219878 345.142025,320.219878 C345.495719,320.219878 345.85799,320.163404 346.22843,320.050867 C346.598462,319.93833 346.968493,319.797556 347.338933,319.628545 C347.708964,319.459534 348.066743,319.266379 348.413086,319.049489 C348.75902,318.83219 349.076773,318.610798 349.366345,318.385314 C349.527673,318.900531 349.809076,319.338812 350.211781,319.700978 C350.61367,320.063144 351.233248,320.244022 352.070107,320.244022 C352.360087,320.244022 352.67008,320.191641 352.999678,320.087288 C353.329275,319.982526 353.662957,319.849527 354.000315,319.68911 C354.337672,319.528284 354.662777,319.355181 354.976038,319.169802 C355.28889,318.985241 355.573969,318.803953 355.830867,318.626758 L355.518015,317.637248 C355.212515,317.766154 354.927844,317.870507 354.662777,317.951125 C354.39771,318.031742 354.168993,318.071847 353.976218,318.071847 C353.654789,318.071847 353.457929,317.918796 353.386046,317.613103 C353.313755,317.307411 353.277406,316.888772 353.277406,316.358005 L353.277406,311.313058 C353.277406,310.733593 353.2529,310.146762 353.204706,309.550928 C353.156512,308.955913 352.998453,308.412869 352.732161,307.921797 C352.46546,307.431134 352.053361,307.028864 351.496272,306.714987 C350.939183,306.40111 350.151743,306.228417 349.133953,306.196088 L348.700207,306.196088 C348.555625,306.196088 348.395115,306.204272 348.218676,306.220232 C347.864982,306.252561 347.467586,306.33277 347.026081,306.461676 C346.584167,306.590582 346.126324,306.750999 345.652962,306.944154 C345.178783,307.137309 344.717264,307.354609 344.267591,307.596052 C343.817917,307.837496 343.420521,308.087124 343.075403,308.344119 C342.729469,308.601932 342.448882,308.86711 342.23201,309.140883 C342.015137,309.414656 341.906905,309.67165 341.906905,309.913094 C341.906905,310.299404 342.031065,310.613281 342.280203,310.854315 C342.528933,311.095759 342.966763,311.216481 343.593284,311.216481 C343.962498,311.216481 344.30394,311.20093 344.616792,311.168192 C344.930461,311.136272 345.246989,311.071615 345.568827,310.975037 L345.568827,308.392407 C345.841245,308.199252 346.250893,308.102675 346.797364,308.102675 C347.327089,308.102675 347.748581,308.183702 348.061842,308.344119 Z M329.830649,304.771979 C330.794119,304.771979 331.613416,304.985186 332.287722,305.4116 C332.962437,305.838014 333.512175,306.397427 333.937752,307.08902 C334.363329,307.781023 334.676589,308.569603 334.877534,309.454351 C335.078069,310.339917 335.17895,311.24881 335.17895,312.182256 C335.17895,312.954467 335.102166,313.702942 334.949825,314.426864 C334.797074,315.151196 334.528332,315.799001 334.14278,316.369873 C333.757229,316.941562 333.239348,317.395804 332.589139,317.733825 C331.938521,318.071847 331.123308,318.240448 330.143909,318.240448 L328.602112,318.240448 L328.602112,304.771979 L329.830649,304.771979 Z M321.97708,303.34787 L321.97708,304.433958 L324.217689,305.109591 L324.217689,318.071847 L321.97708,318.626758 L321.97708,319.761544 L329.758358,319.761544 C331.460665,319.761544 332.950185,319.540152 334.226916,319.097369 C335.503646,318.654995 336.567589,318.039518 337.419151,317.250938 C338.269896,316.462767 338.912754,315.521546 339.3465,314.426864 C339.779837,313.333001 339.99671,312.133967 339.99671,310.83058 C339.99671,309.704388 339.79985,308.678457 339.406538,307.752786 C339.012818,306.827525 338.418971,306.038945 337.623771,305.387456 C336.82898,304.735558 335.832835,304.232618 334.636564,303.878637 C333.439884,303.525065 332.030824,303.34787 330.408567,303.34787 L321.97708,303.34787 Z M305.30688,315.247364 L303.885567,315.247364 L304.126537,319.351089 C304.736721,319.592533 305.471474,319.801239 306.330797,319.978434 C307.189711,320.155629 308.141337,320.244022 309.185266,320.244022 C309.843644,320.244022 310.510599,320.167496 311.184906,320.014446 C311.859213,319.861395 312.469397,319.615859 313.015867,319.277019 C313.56152,318.938589 314.00711,318.503172 314.352636,317.971177 C314.698162,317.439182 314.870517,316.802425 314.870517,316.060497 C314.870517,315.383227 314.698162,314.791076 314.352636,314.283226 C314.00711,313.775785 313.573773,313.323998 313.051808,312.928685 C312.529843,312.533782 311.963769,312.179391 311.353585,311.865105 C310.742992,311.55041 310.176918,311.244308 309.654953,310.945982 C309.132988,310.647656 308.699651,310.345237 308.354125,310.039136 C308.008599,309.733034 307.836244,309.377825 307.836244,308.974737 C307.836244,308.458702 308.061286,308.063798 308.510959,307.789617 C308.960225,307.515844 309.482598,307.378753 310.076854,307.378753 C310.397874,307.378753 310.711135,307.443002 311.016227,307.571908 L312.726703,310.613281 L313.714271,310.613281 L314.461277,306.976074 C314.252164,306.881952 313.987097,306.78742 313.666077,306.69248 C313.344648,306.597948 312.995446,306.511192 312.618471,306.431802 C312.24068,306.353231 311.851044,306.29021 311.449973,306.24274 C311.048493,306.195679 310.654773,306.171943 310.26963,306.171943 C309.209363,306.171943 308.294087,306.292256 307.523392,306.5337 C306.752289,306.775144 306.1176,307.08902 305.62014,307.47533 C305.121864,307.861231 304.75265,308.288055 304.512088,308.754573 C304.271119,309.221501 304.150634,309.680244 304.150634,310.130393 C304.150634,310.742187 304.322988,311.277046 304.668514,311.73538 C305.013632,312.194124 305.447377,312.60867 305.969342,312.978611 C306.490899,313.348961 307.053297,313.690666 307.655721,314.004542 C308.257737,314.318419 308.819727,314.628204 309.342101,314.933896 C309.863657,315.239589 310.297402,315.561241 310.642928,315.899262 C310.988046,316.237283 311.160809,316.615409 311.160809,317.033638 C311.160809,317.500566 310.947612,317.914704 310.522444,318.276869 C310.096458,318.639035 309.466261,318.819913 308.631444,318.819913 C308.454189,318.819913 308.253653,318.803953 308.02902,318.771624 C307.803979,318.739705 307.603443,318.683231 307.426596,318.602614 L305.30688,315.247364 Z M292.464422,315.247364 L291.043109,315.247364 L291.28367,319.351089 C291.894263,319.592533 292.628608,319.801239 293.48793,319.978434 C294.346844,320.155629 295.298879,320.244022 296.342808,320.244022 C297.001186,320.244022 297.667733,320.167496 298.342448,320.014446 C299.016755,319.861395 299.626939,319.615859 300.173409,319.277019 C300.719062,318.938589 301.164652,318.503172 301.510178,317.971177 C301.855296,317.439182 302.028059,316.802425 302.028059,316.060497 C302.028059,315.383227 301.855296,314.791076 301.510178,314.283226 C301.164652,313.775785 300.730907,313.323998 300.20935,312.928685 C299.687385,312.533782 299.120903,312.179391 298.511127,311.865105 C297.900534,311.55041 297.334051,311.244308 296.812495,310.945982 C296.29053,310.647656 295.856785,310.345237 295.511667,310.039136 C295.166141,309.733034 294.993786,309.377825 294.993786,308.974737 C294.993786,308.458702 295.218419,308.063798 295.668093,307.789617 C296.117767,307.515844 296.639732,307.378753 297.233988,307.378753 C297.555008,307.378753 297.868269,307.443002 298.173769,307.571908 L299.884245,310.613281 L300.871813,310.613281 L301.618819,306.976074 C301.409706,306.881952 301.144639,306.78742 300.823619,306.69248 C300.50219,306.597948 300.152988,306.511192 299.775605,306.431802 C299.398222,306.353231 299.008586,306.29021 298.607515,306.24274 C298.205626,306.195679 297.812315,306.171943 297.426763,306.171943 C296.366905,306.171943 295.451629,306.292256 294.680526,306.5337 C293.909831,306.775144 293.275142,307.08902 292.777274,307.47533 C292.279406,307.861231 291.910192,308.288055 291.669222,308.754573 C291.428252,309.221501 291.308176,309.680244 291.308176,310.130393 C291.308176,310.742187 291.480122,311.277046 291.826056,311.73538 C292.171174,312.194124 292.604511,312.60867 293.126884,312.978611 C293.648441,313.348961 294.210839,313.690666 294.813263,314.004542 C295.415279,314.318419 295.977269,314.628204 296.499234,314.933896 C297.021199,315.239589 297.454536,315.561241 297.80047,315.899262 C298.145588,316.237283 298.318351,316.615409 298.318351,317.033638 C298.318351,317.500566 298.105154,317.914704 297.679986,318.276869 C297.254,318.639035 296.623803,318.819913 295.788578,318.819913 C295.611731,318.819913 295.411195,318.803953 295.186562,318.771624 C294.961521,318.739705 294.760985,318.683231 294.584138,318.602614 L292.464422,315.247364 Z M284.042328,307.632064 C284.243272,307.688538 284.427879,307.809259 284.596558,307.99423 C284.765237,308.17961 284.905734,308.437013 285.018459,308.766441 C285.130367,309.096687 285.186729,309.535378 285.186729,310.082105 C285.186729,310.387797 285.163041,310.685714 285.114439,310.975037 L281.236052,311.288914 C281.267909,310.838765 281.328356,310.391889 281.416575,309.949515 C281.504795,309.507141 281.641616,309.108554 281.826224,308.754573 C282.010831,308.401001 282.239548,308.111269 282.512783,307.885376 C282.78561,307.660301 283.115207,307.547764 283.50035,307.547764 C283.660861,307.547764 283.841384,307.576 284.042328,307.632064 Z M288.679973,316.696026 C288.487197,316.856853 288.253987,317.021771 287.981161,317.190781 C287.708334,317.359792 287.411002,317.516526 287.089981,317.661392 C286.768552,317.806258 286.419351,317.923297 286.041968,318.011281 C285.664585,318.100083 285.283526,318.14428 284.897974,318.14428 C284.287382,318.14428 283.749488,318.007598 283.283886,317.733825 C282.817875,317.460462 282.428648,317.078244 282.115387,316.587172 C281.802127,316.096509 281.565241,315.517044 281.404731,314.849186 C281.243812,314.181738 281.163761,313.453314 281.163761,312.664734 L289.041427,312.664734 L289.113718,312.592301 C289.145575,312.415515 289.165588,312.246505 289.173756,312.085678 C289.181516,311.924852 289.186009,311.747657 289.186009,311.554502 C289.186009,310.81462 289.089621,310.118526 288.896845,309.466628 C288.70407,308.814729 288.414906,308.243858 288.029763,307.752786 C287.644212,307.262123 287.154104,306.875813 286.560257,306.594265 C285.965592,306.312717 285.274949,306.171943 284.488326,306.171943 C283.315743,306.171943 282.271813,306.373283 281.356537,306.775144 C280.441261,307.177823 279.666074,307.724959 279.031792,308.416552 C278.397103,309.108554 277.915163,309.905319 277.586383,310.806027 C277.257194,311.707553 277.092599,312.664734 277.092599,313.678798 C277.092599,314.579915 277.237181,315.428651 277.525936,316.225006 C277.8151,317.021771 278.240677,317.717865 278.803075,318.312881 C279.365066,318.908715 280.055709,319.379326 280.874598,319.725122 C281.693895,320.070919 282.633268,320.244022 283.693126,320.244022 C284.84978,320.244022 285.913314,319.994394 286.885361,319.495955 C287.856592,318.997108 288.679973,318.401683 289.354688,317.709681 L288.679973,316.696026 Z M276.297808,319.761544 L276.297808,318.74748 L274.490944,318.506036 L274.490944,312.664734 C274.490944,311.795946 274.466847,310.967262 274.418653,310.178682 C274.370459,309.390511 274.221793,308.698509 273.973063,308.102675 C273.723925,307.507659 273.322445,307.037049 272.768215,306.690843 C272.214393,306.345046 271.431446,306.171943 270.419373,306.171943 C269.937842,306.171943 269.471831,306.248469 269.022566,306.40111 C268.572484,306.554161 268.155075,306.739132 267.769524,306.956431 C267.384381,307.17373 267.03477,307.411082 266.721918,307.668485 C266.408658,307.925889 266.147267,308.159557 265.938971,308.368263 L265.890777,308.368263 L266.203629,306.340954 L266.035359,306.171943 L260.085042,307.402897 L260.085042,308.247541 L262.084273,309.140883 L262.084273,318.192568 L260.085042,318.940635 L260.085042,319.761544 L267.673136,319.761544 L267.673136,318.74748 L266.227726,318.506036 L266.227726,309.454351 C266.452767,309.277565 266.757859,309.120831 267.143411,308.98374 C267.528554,308.847468 267.905937,308.778717 268.27556,308.778717 C268.773019,308.778717 269.162655,308.871612 269.444059,309.056173 C269.724645,309.241553 269.933758,309.487089 270.070171,309.792372 C270.206585,310.098474 270.287044,310.44427 270.311141,310.83058 C270.335238,311.216481 270.347491,311.610975 270.347491,312.013245 L270.347491,318.192568 L269.383612,318.940635 L269.383612,319.761544 L276.297808,319.761544 Z M251.708691,307.921797 C252.061977,308.058888 252.383406,308.231581 252.67257,308.440696 L252.67257,317.057783 C252.4316,317.267307 252.138352,317.44041 251.793235,317.576682 C251.447709,317.713773 251.146701,317.782114 250.889803,317.782114 C250.52018,317.782114 250.159134,317.681854 249.805848,317.480514 C249.452562,317.279174 249.135217,316.965298 248.854222,316.538883 C248.573227,316.112878 248.344101,315.565742 248.167662,314.897475 C247.990815,314.230026 247.902596,313.42917 247.902596,312.495724 C247.902596,311.595016 247.978562,310.838765 248.131721,310.226971 C248.284063,309.615586 248.484599,309.124923 248.733737,308.754573 C248.982467,308.384632 249.27163,308.119044 249.600819,307.958218 C249.930008,307.797392 250.263282,307.716774 250.600639,307.716774 C250.986191,307.716774 251.355405,307.785115 251.708691,307.921797 Z M252.67257,306.461676 C252.061977,306.268521 251.48365,306.171943 250.937997,306.171943 C250.070914,306.171943 249.211592,306.324994 248.360438,306.630277 C247.508876,306.936379 246.74635,307.40699 246.071635,308.042519 C245.397328,308.678457 244.85535,309.478495 244.445702,310.44427 C244.036054,311.409636 243.831434,312.544012 243.831434,313.847809 C243.831434,314.764886 243.935582,315.614031 244.144694,316.394017 C244.354215,317.174822 244.655632,317.854547 245.050168,318.433603 C245.444297,319.013068 245.930729,319.467719 246.510281,319.797556 C247.089017,320.127392 247.756789,320.292311 248.513597,320.292311 C248.963679,320.292311 249.402326,320.228062 249.828719,320.099156 C250.255113,319.970249 250.653326,319.797556 251.023357,319.580256 C251.393388,319.362957 251.747491,319.113738 252.085257,318.83219 C252.423432,318.550642 252.737101,318.265002 253.026673,317.975269 L253.099372,317.999413 L252.906188,320.075011 L253.05077,320.219878 L258.83976,319.206223 L258.743372,317.951125 L256.816023,318.120135 L256.816023,300.185775 L256.694721,300.065053 L250.648833,301.489162 L250.648833,302.213084 L252.67257,303.227148 L252.67257,306.461676 Z M242.918608,319.761544 L242.918608,318.74748 L241.111744,318.506036 L241.111744,312.664734 C241.111744,311.795946 241.087647,310.967262 241.039453,310.178682 C240.991259,309.390511 240.842593,308.698509 240.593863,308.102675 C240.344725,307.507659 239.943245,307.037049 239.389015,306.690843 C238.835193,306.345046 238.052246,306.171943 237.040173,306.171943 C236.558642,306.171943 236.092632,306.248469 235.643366,306.40111 C235.193284,306.554161 234.775875,306.739132 234.390324,306.956431 C234.005181,307.17373 233.65557,307.411082 233.342718,307.668485 C233.029458,307.925889 232.768067,308.159557 232.559771,308.368263 L232.511577,308.368263 L232.824429,306.340954 L232.656159,306.171943 L226.705842,307.402897 L226.705842,308.247541 L228.705073,309.140883 L228.705073,318.192568 L226.705842,318.940635 L226.705842,319.761544 L234.293936,319.761544 L234.293936,318.74748 L232.848526,318.506036 L232.848526,309.454351 C233.073567,309.277565 233.37866,309.120831 233.764211,308.98374 C234.149354,308.847468 234.526737,308.778717 234.89636,308.778717 C235.393819,308.778717 235.783455,308.871612 236.064859,309.056173 C236.345445,309.241553 236.554558,309.487089 236.690971,309.792372 C236.827385,310.098474 236.907844,310.44427 236.931941,310.83058 C236.956038,311.216481 236.968291,311.610975 236.968291,312.013245 L236.968291,318.192568 L236.004412,318.940635 L236.004412,319.761544 L242.918608,319.761544 Z M219.827996,303.492327 C220.28543,303.878637 220.843744,304.071792 221.502122,304.071792 C222.144572,304.071792 222.702478,303.878637 223.176657,303.492327 C223.65002,303.106426 223.887314,302.607579 223.887314,301.995785 C223.887314,301.690502 223.822783,301.408545 223.694538,301.151141 C223.565885,300.894147 223.393122,300.672755 223.176657,300.487375 C222.959785,300.302405 222.706971,300.157539 222.417807,300.052777 C222.128644,299.948424 221.823551,299.896043 221.502122,299.896043 C221.180693,299.896043 220.87601,299.948424 220.586846,300.052777 C220.297683,300.157539 220.044869,300.302405 219.827996,300.487375 C219.611123,300.672755 219.442444,300.894147 219.32196,301.151141 C219.201475,301.408545 219.141437,301.690502 219.141437,301.995785 C219.141437,302.607579 219.370154,303.106426 219.827996,303.492327 Z M219.334212,318.192568 L217.334572,318.940635 L217.334572,319.761544 L225.405014,319.761544 L225.405014,318.74748 L223.477665,318.506036 L223.477665,306.051222 L223.35718,305.954644 L217.334572,307.185598 L217.334572,308.030651 L219.334212,308.923584 L219.334212,318.192568 Z M210.587013,305.109591 L204.13066,311.337203 L204.13066,311.43378 L209.816319,319.761544 L216.344555,319.761544 L216.344555,318.602614 L214.441303,318.265002 L208.322307,309.623361 L213.381445,304.965134 L214.947339,304.506391 L214.947339,303.34787 L208.395006,303.34787 L208.395006,304.433958 L210.587013,305.109591 Z M203.625032,304.965134 L205.841136,304.506391 L205.841136,303.34787 L197,303.34787 L197,304.433958 L199.240609,305.109591 L199.240609,318.071847 L197,318.626758 L197,319.761544 L205.600167,319.761544 L205.600167,318.602614 L203.625032,318.265002 L203.625032,304.965134 Z M291.436829,262.407603 L291.436829,262.807418 C302.229003,263.56817 310.542456,265.369586 315.153962,267.140719 L315.153962,277.88824 C314.378367,277.58132 301.935347,272.450845 282.516459,272.444707 C263.097163,272.450845 250.654143,277.58132 249.878955,277.88824 L249.878955,267.140719 C254.490053,265.369586 262.803915,263.56817 273.596088,262.807418 L273.596088,262.407603 C263.149441,262.23491 253.610309,261.698004 249.878955,261.407044 L249.878955,251 C254.342204,251.283594 266.489525,251.945723 282.516459,251.945723 C298.542984,251.945723 310.690714,251.283594 315.153962,251 L315.153962,261.407044 C311.4222,261.698004 301.883068,262.23491 291.436829,262.407603 Z" id="Fill-1"></path>
        </g>
    </g>
</svg>